999
DXF file generated by Cheetah3D
0
SECTION
2
ENTITIES
0
3DFACE
8
football_low_poly
10
0.000000
20
-0.000000
30
0.029204
11
0.001492
21
-0.009605
31
0.028325
12
0.000000
22
-0.009925
32
0.028325
13
0.000000
23
-0.009925
33
0.028325
0
3DFACE
8
football_low_poly
10
0.001492
20
-0.009605
30
0.028325
11
0.002709
21
-0.018791
31
0.026225
12
0.000000
22
-0.019416
32
0.026225
13
0.000000
23
-0.009925
33
0.028325
0
3DFACE
8
football_low_poly
10
0.002709
20
-0.018791
30
0.026225
11
0.003948
21
-0.026693
31
0.022380
12
-0.000000
22
-0.027581
32
0.022380
13
0.000000
23
-0.019416
33
0.026225
0
3DFACE
8
football_low_poly
10
0.003948
20
-0.026693
30
0.022380
11
0.004863
21
-0.033515
31
0.017762
12
-0.000000
22
-0.034629
32
0.017762
13
-0.000000
23
-0.027581
33
0.022380
0
3DFACE
8
football_low_poly
10
0.004863
20
-0.033515
30
0.017762
11
0.005679
21
-0.039524
31
0.012584
12
-0.000000
22
-0.040838
32
0.012584
13
-0.000000
23
-0.034629
33
0.017762
0
3DFACE
8
football_low_poly
10
0.005679
20
-0.039524
30
0.012584
11
0.006043
21
-0.044237
31
0.006641
12
0.000000
22
-0.045707
32
0.006641
13
-0.000000
23
-0.040838
33
0.012584
0
3DFACE
8
football_low_poly
10
0.006043
20
-0.044237
30
0.006641
11
0.006299
21
-0.046884
31
0.000000
12
-0.000000
22
-0.048442
32
0.000000
13
0.000000
23
-0.045707
33
0.006641
0
3DFACE
8
football_low_poly
10
0.000000
20
-0.000000
30
0.029204
11
-0.001492
21
-0.009605
31
0.028325
12
-0.002919
22
-0.008638
32
0.028325
13
-0.002919
23
-0.008638
33
0.028325
0
3DFACE
8
football_low_poly
10
-0.011821
20
-0.039781
30
0.006641
11
-0.012323
21
-0.042161
31
0.000000
12
-0.017808
22
-0.035545
32
0.000000
13
-0.017083
23
-0.033539
33
0.006641
0
3DFACE
8
football_low_poly
10
-0.011110
20
-0.035543
30
0.012584
11
-0.011821
21
-0.039781
31
0.006641
12
-0.017083
22
-0.033539
32
0.006641
13
-0.016055
23
-0.029965
33
0.012584
0
3DFACE
8
football_low_poly
10
-0.009513
20
-0.030139
30
0.017762
11
-0.011110
21
-0.035543
31
0.012584
12
-0.016055
22
-0.029965
32
0.012584
13
-0.013747
23
-0.025410
33
0.017762
0
3DFACE
8
football_low_poly
10
-0.007723
20
-0.024005
30
0.022380
11
-0.009513
21
-0.030139
31
0.017762
12
-0.013747
22
-0.025410
32
0.017762
13
-0.011160
23
-0.020238
33
0.022380
0
3DFACE
8
football_low_poly
10
-0.005299
20
-0.016898
30
0.026225
11
-0.007723
21
-0.024005
31
0.022380
12
-0.011160
22
-0.020238
32
0.022380
13
-0.007658
23
-0.014246
33
0.026225
0
3DFACE
8
football_low_poly
10
-0.002919
20
-0.008638
30
0.028325
11
-0.005299
21
-0.016898
31
0.026225
12
-0.007658
22
-0.014246
32
0.026225
13
-0.004219
23
-0.007282
33
0.028325
0
3DFACE
8
football_low_poly
10
0.000000
20
-0.000000
30
0.029204
11
-0.002919
21
-0.008638
31
0.028325
12
-0.004219
22
-0.007282
32
0.028325
13
-0.004219
23
-0.007282
33
0.028325
0
3DFACE
8
football_low_poly
10
0.000000
20
-0.000000
30
0.029204
11
0.002919
21
-0.008638
31
0.028325
12
0.001492
22
-0.009605
32
0.028325
13
0.001492
23
-0.009605
33
0.028325
0
3DFACE
8
football_low_poly
10
0.002919
20
-0.008638
30
0.028325
11
0.005299
21
-0.016898
31
0.026225
12
0.002709
22
-0.018791
32
0.026225
13
0.001492
23
-0.009605
33
0.028325
0
3DFACE
8
football_low_poly
10
0.005299
20
-0.016898
30
0.026225
11
0.007723
21
-0.024005
31
0.022380
12
0.003948
22
-0.026693
32
0.022380
13
0.002709
23
-0.018791
33
0.026225
0
3DFACE
8
football_low_poly
10
0.007723
20
-0.024005
30
0.022380
11
0.009513
21
-0.030139
31
0.017762
12
0.004863
22
-0.033515
32
0.017762
13
0.003948
23
-0.026693
33
0.022380
0
3DFACE
8
football_low_poly
10
0.009513
20
-0.030139
30
0.017762
11
0.011110
21
-0.035543
31
0.012584
12
0.005679
22
-0.039524
32
0.012584
13
0.004863
23
-0.033515
33
0.017762
0
3DFACE
8
football_low_poly
10
0.011110
20
-0.035543
30
0.012584
11
0.011821
21
-0.039781
31
0.006641
12
0.006043
22
-0.044237
32
0.006641
13
0.005679
23
-0.039524
33
0.012584
0
3DFACE
8
football_low_poly
10
0.011821
20
-0.039781
30
0.006641
11
0.012323
21
-0.042161
31
0.000000
12
0.006299
22
-0.046884
32
0.000000
13
0.006043
23
-0.044237
33
0.006641
0
3DFACE
8
football_low_poly
10
-0.001492
20
-0.009605
30
0.028325
11
-0.002709
21
-0.018791
31
0.026225
12
-0.005299
22
-0.016898
32
0.026225
13
-0.002919
23
-0.008638
33
0.028325
0
3DFACE
8
football_low_poly
10
-0.017083
20
-0.033539
30
0.006641
11
-0.017808
21
-0.035545
31
0.000000
12
-0.022515
22
-0.028398
32
0.000000
13
-0.021598
23
-0.026795
33
0.006641
0
3DFACE
8
football_low_poly
10
-0.016055
20
-0.029965
30
0.012584
11
-0.017083
21
-0.033539
31
0.006641
12
-0.021598
22
-0.026795
32
0.006641
13
-0.020299
23
-0.023940
33
0.012584
0
3DFACE
8
football_low_poly
10
-0.013747
20
-0.025410
30
0.017762
11
-0.016055
21
-0.029965
31
0.012584
12
-0.020299
22
-0.023940
32
0.012584
13
-0.017381
23
-0.020301
33
0.017762
0
3DFACE
8
football_low_poly
10
-0.011160
20
-0.020238
30
0.022380
11
-0.013747
21
-0.025410
31
0.017762
12
-0.017381
22
-0.020301
32
0.017762
13
-0.014110
23
-0.016168
33
0.022380
0
3DFACE
8
football_low_poly
10
-0.007658
20
-0.014246
30
0.026225
11
-0.011160
21
-0.020238
31
0.022380
12
-0.014110
22
-0.016168
32
0.022380
13
-0.009682
23
-0.011382
33
0.026225
0
3DFACE
8
football_low_poly
10
-0.004219
20
-0.007282
30
0.028325
11
-0.007658
21
-0.014246
31
0.026225
12
-0.009682
22
-0.011382
32
0.026225
13
-0.005334
23
-0.005818
33
0.028325
0
3DFACE
8
football_low_poly
10
0.000000
20
-0.000000
30
0.029204
11
-0.004219
21
-0.007282
31
0.028325
12
-0.005334
22
-0.005818
32
0.028325
13
-0.005334
23
-0.005818
33
0.028325
0
3DFACE
8
football_low_poly
10
0.000000
20
-0.000000
30
0.029204
11
0.004219
21
-0.007282
31
0.028325
12
0.002919
22
-0.008638
32
0.028325
13
0.002919
23
-0.008638
33
0.028325
0
3DFACE
8
football_low_poly
10
0.004219
20
-0.007282
30
0.028325
11
0.007658
21
-0.014246
31
0.026225
12
0.005299
22
-0.016898
32
0.026225
13
0.002919
23
-0.008638
33
0.028325
0
3DFACE
8
football_low_poly
10
0.007658
20
-0.014246
30
0.026225
11
0.011160
21
-0.020238
31
0.022380
12
0.007723
22
-0.024005
32
0.022380
13
0.005299
23
-0.016898
33
0.026225
0
3DFACE
8
football_low_poly
10
0.011160
20
-0.020238
30
0.022380
11
0.013747
21
-0.025410
31
0.017762
12
0.009513
22
-0.030139
32
0.017762
13
0.007723
23
-0.024005
33
0.022380
0
3DFACE
8
football_low_poly
10
0.013747
20
-0.025410
30
0.017762
11
0.016055
21
-0.029965
31
0.012584
12
0.011110
22
-0.035543
32
0.012584
13
0.009513
23
-0.030139
33
0.017762
0
3DFACE
8
football_low_poly
10
0.016055
20
-0.029965
30
0.012584
11
0.017083
21
-0.033539
31
0.006641
12
0.011821
22
-0.039781
32
0.006641
13
0.011110
23
-0.035543
33
0.012584
0
3DFACE
8
football_low_poly
10
0.017083
20
-0.033539
30
0.006641
11
0.017808
21
-0.035545
31
0.000000
12
0.012323
22
-0.042161
32
0.000000
13
0.011821
23
-0.039781
33
0.006641
0
3DFACE
8
football_low_poly
10
-0.002709
20
-0.018791
30
0.026225
11
-0.003948
21
-0.026693
31
0.022380
12
-0.007723
22
-0.024005
32
0.022380
13
-0.005299
23
-0.016898
33
0.026225
0
3DFACE
8
football_low_poly
10
-0.021598
20
-0.026795
30
0.006641
11
-0.022515
21
-0.028398
31
0.000000
12
-0.026238
22
-0.019991
32
0.000000
13
-0.025170
23
-0.018862
33
0.006641
0
3DFACE
8
football_low_poly
10
-0.020299
20
-0.023940
30
0.012584
11
-0.021598
21
-0.026795
31
0.006641
12
-0.025170
22
-0.018862
32
0.006641
13
-0.023655
23
-0.016853
33
0.012584
0
3DFACE
8
football_low_poly
10
-0.017381
20
-0.020301
30
0.017762
11
-0.020299
21
-0.023940
31
0.012584
12
-0.023655
22
-0.016853
32
0.012584
13
-0.020255
23
-0.014291
33
0.017762
0
3DFACE
8
football_low_poly
10
-0.014110
20
-0.016168
30
0.022380
11
-0.017381
21
-0.020301
31
0.017762
12
-0.020255
22
-0.014291
32
0.017762
13
-0.016443
23
-0.011382
33
0.022380
0
3DFACE
8
football_low_poly
10
-0.009682
20
-0.011382
30
0.026225
11
-0.014110
21
-0.016168
31
0.022380
12
-0.016443
22
-0.011382
32
0.022380
13
-0.011283
23
-0.008012
33
0.026225
0
3DFACE
8
football_low_poly
10
-0.005334
20
-0.005818
30
0.028325
11
-0.009682
21
-0.011382
31
0.026225
12
-0.011283
22
-0.008012
32
0.026225
13
-0.006216
23
-0.004096
33
0.028325
0
3DFACE
8
football_low_poly
10
0.000000
20
-0.000000
30
0.029204
11
-0.005334
21
-0.005818
31
0.028325
12
-0.006216
22
-0.004096
32
0.028325
13
-0.006216
23
-0.004096
33
0.028325
0
3DFACE
8
football_low_poly
10
0.000000
20
-0.000000
30
0.029204
11
0.005334
21
-0.005818
31
0.028325
12
0.004219
22
-0.007282
32
0.028325
13
0.004219
23
-0.007282
33
0.028325
0
3DFACE
8
football_low_poly
10
0.005334
20
-0.005818
30
0.028325
11
0.009682
21
-0.011382
31
0.026225
12
0.007658
22
-0.014246
32
0.026225
13
0.004219
23
-0.007282
33
0.028325
0
3DFACE
8
football_low_poly
10
0.009682
20
-0.011382
30
0.026225
11
0.014110
21
-0.016168
31
0.022380
12
0.011160
22
-0.020238
32
0.022380
13
0.007658
23
-0.014246
33
0.026225
0
3DFACE
8
football_low_poly
10
0.014110
20
-0.016168
30
0.022380
11
0.017381
21
-0.020301
31
0.017762
12
0.013747
22
-0.025410
32
0.017762
13
0.011160
23
-0.020238
33
0.022380
0
3DFACE
8
football_low_poly
10
0.017381
20
-0.020301
30
0.017762
11
0.020299
21
-0.023940
31
0.012584
12
0.016055
22
-0.029965
32
0.012584
13
0.013747
23
-0.025410
33
0.017762
0
3DFACE
8
football_low_poly
10
0.020299
20
-0.023940
30
0.012584
11
0.021598
21
-0.026795
31
0.006641
12
0.017083
22
-0.033539
32
0.006641
13
0.016055
23
-0.029965
33
0.012584
0
3DFACE
8
football_low_poly
10
0.021598
20
-0.026795
30
0.006641
11
0.022515
21
-0.028398
31
0.000000
12
0.017808
22
-0.035545
32
0.000000
13
0.017083
23
-0.033539
33
0.006641
0
3DFACE
8
football_low_poly
10
-0.003948
20
-0.026693
30
0.022380
11
-0.004863
21
-0.033515
31
0.017762
12
-0.009513
22
-0.030139
32
0.017762
13
-0.007723
23
-0.024005
33
0.022380
0
3DFACE
8
football_low_poly
10
-0.025170
20
-0.018862
30
0.006641
11
-0.026238
21
-0.019991
31
0.000000
12
-0.028814
22
-0.011120
32
0.000000
13
-0.027641
23
-0.010492
33
0.006641
0
3DFACE
8
football_low_poly
10
-0.023655
20
-0.016853
30
0.012584
11
-0.025170
21
-0.018862
31
0.006641
12
-0.027641
22
-0.010492
32
0.006641
13
-0.025978
23
-0.009374
33
0.012584
0
3DFACE
8
football_low_poly
10
-0.020255
20
-0.014291
30
0.017762
11
-0.023655
21
-0.016853
31
0.012584
12
-0.025978
22
-0.009374
32
0.012584
13
-0.022243
23
-0.007949
33
0.017762
0
3DFACE
8
football_low_poly
10
-0.016443
20
-0.011382
30
0.022380
11
-0.020255
21
-0.014291
31
0.017762
12
-0.022243
22
-0.007949
32
0.017762
13
-0.018058
23
-0.006331
33
0.022380
0
3DFACE
8
football_low_poly
10
-0.011283
20
-0.008012
30
0.026225
11
-0.016443
21
-0.011382
31
0.022380
12
-0.018058
22
-0.006331
32
0.022380
13
-0.012391
23
-0.004457
33
0.026225
0
3DFACE
8
football_low_poly
10
-0.006216
20
-0.004096
30
0.028325
11
-0.011283
21
-0.008012
31
0.026225
12
-0.012391
22
-0.004457
32
0.026225
13
-0.006826
23
-0.002278
33
0.028325
0
3DFACE
8
football_low_poly
10
0.000000
20
-0.000000
30
0.029204
11
-0.006216
21
-0.004096
31
0.028325
12
-0.006826
22
-0.002278
32
0.028325
13
-0.006826
23
-0.002278
33
0.028325
0
3DFACE
8
football_low_poly
10
0.000000
20
-0.000000
30
0.029204
11
0.006216
21
-0.004096
31
0.028325
12
0.005334
22
-0.005818
32
0.028325
13
0.005334
23
-0.005818
33
0.028325
0
3DFACE
8
football_low_poly
10
0.006216
20
-0.004096
30
0.028325
11
0.011283
21
-0.008012
31
0.026225
12
0.009682
22
-0.011382
32
0.026225
13
0.005334
23
-0.005818
33
0.028325
0
3DFACE
8
football_low_poly
10
0.011283
20
-0.008012
30
0.026225
11
0.016443
21
-0.011382
31
0.022380
12
0.014110
22
-0.016168
32
0.022380
13
0.009682
23
-0.011382
33
0.026225
0
3DFACE
8
football_low_poly
10
0.016443
20
-0.011382
30
0.022380
11
0.020255
21
-0.014291
31
0.017762
12
0.017381
22
-0.020301
32
0.017762
13
0.014110
23
-0.016168
33
0.022380
0
3DFACE
8
football_low_poly
10
0.020255
20
-0.014291
30
0.017762
11
0.023655
21
-0.016853
31
0.012584
12
0.020299
22
-0.023940
32
0.012584
13
0.017381
23
-0.020301
33
0.017762
0
3DFACE
8
football_low_poly
10
0.023655
20
-0.016853
30
0.012584
11
0.025170
21
-0.018862
31
0.006641
12
0.021598
22
-0.026795
32
0.006641
13
0.020299
23
-0.023940
33
0.012584
0
3DFACE
8
football_low_poly
10
0.025170
20
-0.018862
30
0.006641
11
0.026238
21
-0.019991
31
0.000000
12
0.022515
22
-0.028398
32
0.000000
13
0.021598
23
-0.026795
33
0.006641
0
3DFACE
8
football_low_poly
10
-0.004863
20
-0.033515
30
0.017762
11
-0.005679
21
-0.039524
31
0.012584
12
-0.011110
22
-0.035543
32
0.012584
13
-0.009513
23
-0.030139
33
0.017762
0
3DFACE
8
football_low_poly
10
-0.027641
20
-0.010492
30
0.006641
11
-0.028814
21
-0.011120
31
0.000000
12
-0.030131
22
-0.004797
32
0.000000
13
-0.028904
23
-0.004527
33
0.006641
0
3DFACE
8
football_low_poly
10
-0.025978
20
-0.009374
30
0.012584
11
-0.027641
21
-0.010492
31
0.006641
12
-0.028904
22
-0.004527
32
0.006641
13
-0.027165
23
-0.004044
33
0.012584
0
3DFACE
8
football_low_poly
10
-0.022243
20
-0.007949
30
0.017762
11
-0.025978
21
-0.009374
31
0.012584
12
-0.027165
22
-0.004044
32
0.012584
13
-0.023260
23
-0.003429
33
0.017762
0
3DFACE
8
football_low_poly
10
-0.018058
20
-0.006331
30
0.022380
11
-0.022243
21
-0.007949
31
0.017762
12
-0.023260
22
-0.003429
32
0.017762
13
-0.018883
23
-0.002731
33
0.022380
0
3DFACE
8
football_low_poly
10
-0.012391
20
-0.004457
30
0.026225
11
-0.018058
21
-0.006331
31
0.022380
12
-0.018883
22
-0.002731
32
0.022380
13
-0.012957
23
-0.001923
33
0.026225
0
3DFACE
8
football_low_poly
10
-0.006826
20
-0.002278
30
0.028325
11
-0.012391
21
-0.004457
31
0.026225
12
-0.012957
22
-0.001923
32
0.026225
13
-0.007138
23
-0.000983
33
0.028325
0
3DFACE
8
football_low_poly
10
0.000000
20
-0.000000
30
0.029204
11
-0.006826
21
-0.002278
31
0.028325
12
-0.007138
22
-0.000983
32
0.028325
13
-0.007138
23
-0.000983
33
0.028325
0
3DFACE
8
football_low_poly
10
0.000000
20
-0.000000
30
0.029204
11
0.006826
21
-0.002278
31
0.028325
12
0.006216
22
-0.004096
32
0.028325
13
0.006216
23
-0.004096
33
0.028325
0
3DFACE
8
football_low_poly
10
0.006826
20
-0.002278
30
0.028325
11
0.012391
21
-0.004457
31
0.026225
12
0.011283
22
-0.008012
32
0.026225
13
0.006216
23
-0.004096
33
0.028325
0
3DFACE
8
football_low_poly
10
0.012391
20
-0.004457
30
0.026225
11
0.018058
21
-0.006331
31
0.022380
12
0.016443
22
-0.011382
32
0.022380
13
0.011283
23
-0.008012
33
0.026225
0
3DFACE
8
football_low_poly
10
0.018058
20
-0.006331
30
0.022380
11
0.022243
21
-0.007949
31
0.017762
12
0.020255
22
-0.014291
32
0.017762
13
0.016443
23
-0.011382
33
0.022380
0
3DFACE
8
football_low_poly
10
0.022243
20
-0.007949
30
0.017762
11
0.025978
21
-0.009374
31
0.012584
12
0.023655
22
-0.016853
32
0.012584
13
0.020255
23
-0.014291
33
0.017762
0
3DFACE
8
football_low_poly
10
0.025978
20
-0.009374
30
0.012584
11
0.027641
21
-0.010492
31
0.006641
12
0.025170
22
-0.018862
32
0.006641
13
0.023655
23
-0.016853
33
0.012584
0
3DFACE
8
football_low_poly
10
0.027641
20
-0.010492
30
0.006641
11
0.028814
21
-0.011120
31
0.000000
12
0.026238
22
-0.019991
32
0.000000
13
0.025170
23
-0.018862
33
0.006641
0
3DFACE
8
football_low_poly
10
-0.005679
20
-0.039524
30
0.012584
11
-0.006043
21
-0.044237
31
0.006641
12
-0.011821
22
-0.039781
32
0.006641
13
-0.011110
23
-0.035543
33
0.012584
0
3DFACE
8
football_low_poly
10
-0.028904
20
-0.004527
30
0.006641
11
-0.030131
21
-0.004797
31
0.000000
12
-0.030131
22
0.004797
32
0.000000
13
-0.028904
23
0.004526
33
0.006641
0
3DFACE
8
football_low_poly
10
-0.027165
20
-0.004044
30
0.012584
11
-0.028904
21
-0.004527
31
0.006641
12
-0.028904
22
0.004526
32
0.006641
13
-0.027165
23
0.004044
33
0.012584
0
3DFACE
8
football_low_poly
10
-0.023260
20
-0.003429
30
0.017762
11
-0.027165
21
-0.004044
31
0.012584
12
-0.027165
22
0.004044
32
0.012584
13
-0.023260
23
0.003429
33
0.017762
0
3DFACE
8
football_low_poly
10
-0.018883
20
-0.002731
30
0.022380
11
-0.023260
21
-0.003429
31
0.017762
12
-0.023260
22
0.003429
32
0.017762
13
-0.018883
23
0.002731
33
0.022380
0
3DFACE
8
football_low_poly
10
-0.012957
20
-0.001923
30
0.026225
11
-0.018883
21
-0.002731
31
0.022380
12
-0.018883
22
0.002731
32
0.022380
13
-0.012957
23
0.001923
33
0.026225
0
3DFACE
8
football_low_poly
10
-0.007138
20
-0.000983
30
0.028325
11
-0.012957
21
-0.001923
31
0.026225
12
-0.012957
22
0.001923
32
0.026225
13
-0.007138
23
0.000983
33
0.028325
0
3DFACE
8
football_low_poly
10
0.000000
20
-0.000000
30
0.029204
11
-0.007138
21
-0.000983
31
0.028325
12
-0.007138
22
0.000983
32
0.028325
13
-0.007138
23
0.000983
33
0.028325
0
3DFACE
8
football_low_poly
10
0.000000
20
-0.000000
30
0.029204
11
0.007138
21
-0.000983
31
0.028325
12
0.006826
22
-0.002278
32
0.028325
13
0.006826
23
-0.002278
33
0.028325
0
3DFACE
8
football_low_poly
10
0.007138
20
-0.000983
30
0.028325
11
0.012957
21
-0.001923
31
0.026225
12
0.012391
22
-0.004457
32
0.026225
13
0.006826
23
-0.002278
33
0.028325
0
3DFACE
8
football_low_poly
10
0.012957
20
-0.001923
30
0.026225
11
0.018883
21
-0.002731
31
0.022380
12
0.018058
22
-0.006331
32
0.022380
13
0.012391
23
-0.004457
33
0.026225
0
3DFACE
8
football_low_poly
10
0.018883
20
-0.002731
30
0.022380
11
0.023260
21
-0.003429
31
0.017762
12
0.022243
22
-0.007949
32
0.017762
13
0.018058
23
-0.006331
33
0.022380
0
3DFACE
8
football_low_poly
10
0.023260
20
-0.003429
30
0.017762
11
0.027165
21
-0.004044
31
0.012584
12
0.025978
22
-0.009374
32
0.012584
13
0.022243
23
-0.007949
33
0.017762
0
3DFACE
8
football_low_poly
10
0.027165
20
-0.004044
30
0.012584
11
0.028904
21
-0.004526
31
0.006641
12
0.027641
22
-0.010492
32
0.006641
13
0.025978
23
-0.009374
33
0.012584
0
3DFACE
8
football_low_poly
10
0.028904
20
-0.004526
30
0.006641
11
0.030131
21
-0.004797
31
0.000000
12
0.028814
22
-0.011120
32
0.000000
13
0.027641
23
-0.010492
33
0.006641
0
3DFACE
8
football_low_poly
10
-0.006043
20
-0.044237
30
0.006641
11
-0.006299
21
-0.046884
31
0.000000
12
-0.012323
22
-0.042161
32
0.000000
13
-0.011821
23
-0.039781
33
0.006641
0
3DFACE
8
football_low_poly
10
-0.028904
20
0.004526
30
0.006641
11
-0.030131
21
0.004797
31
0.000000
12
-0.028814
22
0.011120
32
0.000000
13
-0.027641
23
0.010492
33
0.006641
0
3DFACE
8
football_low_poly
10
-0.027165
20
0.004044
30
0.012584
11
-0.028904
21
0.004526
31
0.006641
12
-0.027641
22
0.010492
32
0.006641
13
-0.025978
23
0.009374
33
0.012584
0
3DFACE
8
football_low_poly
10
-0.023260
20
0.003429
30
0.017762
11
-0.027165
21
0.004044
31
0.012584
12
-0.025978
22
0.009374
32
0.012584
13
-0.022243
23
0.007949
33
0.017762
0
3DFACE
8
football_low_poly
10
-0.018883
20
0.002731
30
0.022380
11
-0.023260
21
0.003429
31
0.017762
12
-0.022243
22
0.007949
32
0.017762
13
-0.018058
23
0.006331
33
0.022380
0
3DFACE
8
football_low_poly
10
-0.012957
20
0.001923
30
0.026225
11
-0.018883
21
0.002731
31
0.022380
12
-0.018058
22
0.006331
32
0.022380
13
-0.012391
23
0.004457
33
0.026225
0
3DFACE
8
football_low_poly
10
-0.007138
20
0.000983
30
0.028325
11
-0.012957
21
0.001923
31
0.026225
12
-0.012391
22
0.004457
32
0.026225
13
-0.006826
23
0.002278
33
0.028325
0
3DFACE
8
football_low_poly
10
0.000000
20
-0.000000
30
0.029204
11
-0.007138
21
0.000983
31
0.028325
12
-0.006826
22
0.002278
32
0.028325
13
-0.006826
23
0.002278
33
0.028325
0
3DFACE
8
football_low_poly
10
0.000000
20
-0.000000
30
0.029204
11
0.007138
21
0.000983
31
0.028325
12
0.007138
22
-0.000983
32
0.028325
13
0.007138
23
-0.000983
33
0.028325
0
3DFACE
8
football_low_poly
10
0.007138
20
0.000983
30
0.028325
11
0.012957
21
0.001923
31
0.026225
12
0.012957
22
-0.001923
32
0.026225
13
0.007138
23
-0.000983
33
0.028325
0
3DFACE
8
football_low_poly
10
0.012957
20
0.001923
30
0.026225
11
0.018883
21
0.002731
31
0.022380
12
0.018883
22
-0.002731
32
0.022380
13
0.012957
23
-0.001923
33
0.026225
0
3DFACE
8
football_low_poly
10
0.018883
20
0.002731
30
0.022380
11
0.023260
21
0.003429
31
0.017762
12
0.023260
22
-0.003429
32
0.017762
13
0.018883
23
-0.002731
33
0.022380
0
3DFACE
8
football_low_poly
10
0.023260
20
0.003429
30
0.017762
11
0.027165
21
0.004044
31
0.012584
12
0.027165
22
-0.004044
32
0.012584
13
0.023260
23
-0.003429
33
0.017762
0
3DFACE
8
football_low_poly
10
0.027165
20
0.004044
30
0.012584
11
0.028904
21
0.004526
31
0.006641
12
0.028904
22
-0.004526
32
0.006641
13
0.027165
23
-0.004044
33
0.012584
0
3DFACE
8
football_low_poly
10
0.028904
20
0.004526
30
0.006641
11
0.030131
21
0.004797
31
0.000000
12
0.030131
22
-0.004797
32
0.000000
13
0.028904
23
-0.004526
33
0.006641
0
3DFACE
8
football_low_poly
10
0.000000
20
-0.045707
30
0.006641
11
-0.000000
21
-0.048442
31
0.000000
12
-0.006299
22
-0.046884
32
0.000000
13
-0.006043
23
-0.044237
33
0.006641
0
3DFACE
8
football_low_poly
10
-0.027641
20
0.010492
30
0.006641
11
-0.028814
21
0.011120
31
0.000000
12
-0.026238
22
0.019991
32
0.000000
13
-0.025170
23
0.018862
33
0.006641
0
3DFACE
8
football_low_poly
10
-0.025978
20
0.009374
30
0.012584
11
-0.027641
21
0.010492
31
0.006641
12
-0.025170
22
0.018862
32
0.006641
13
-0.023655
23
0.016853
33
0.012584
0
3DFACE
8
football_low_poly
10
-0.022243
20
0.007949
30
0.017762
11
-0.025978
21
0.009374
31
0.012584
12
-0.023655
22
0.016853
32
0.012584
13
-0.020255
23
0.014291
33
0.017762
0
3DFACE
8
football_low_poly
10
-0.018058
20
0.006331
30
0.022380
11
-0.022243
21
0.007949
31
0.017762
12
-0.020255
22
0.014291
32
0.017762
13
-0.016443
23
0.011382
33
0.022380
0
3DFACE
8
football_low_poly
10
-0.012391
20
0.004457
30
0.026225
11
-0.018058
21
0.006331
31
0.022380
12
-0.016443
22
0.011382
32
0.022380
13
-0.011283
23
0.008012
33
0.026225
0
3DFACE
8
football_low_poly
10
-0.006826
20
0.002278
30
0.028325
11
-0.012391
21
0.004457
31
0.026225
12
-0.011283
22
0.008012
32
0.026225
13
-0.006216
23
0.004096
33
0.028325
0
3DFACE
8
football_low_poly
10
0.000000
20
-0.000000
30
0.029204
11
-0.006826
21
0.002278
31
0.028325
12
-0.006216
22
0.004096
32
0.028325
13
-0.006216
23
0.004096
33
0.028325
0
3DFACE
8
football_low_poly
10
0.000000
20
-0.000000
30
0.029204
11
0.006826
21
0.002278
31
0.028325
12
0.007138
22
0.000983
32
0.028325
13
0.007138
23
0.000983
33
0.028325
0
3DFACE
8
football_low_poly
10
0.006826
20
0.002278
30
0.028325
11
0.012391
21
0.004457
31
0.026225
12
0.012957
22
0.001923
32
0.026225
13
0.007138
23
0.000983
33
0.028325
0
3DFACE
8
football_low_poly
10
0.012391
20
0.004457
30
0.026225
11
0.018058
21
0.006331
31
0.022380
12
0.018883
22
0.002731
32
0.022380
13
0.012957
23
0.001923
33
0.026225
0
3DFACE
8
football_low_poly
10
0.018058
20
0.006331
30
0.022380
11
0.022243
21
0.007949
31
0.017762
12
0.023260
22
0.003429
32
0.017762
13
0.018883
23
0.002731
33
0.022380
0
3DFACE
8
football_low_poly
10
0.022243
20
0.007949
30
0.017762
11
0.025978
21
0.009374
31
0.012584
12
0.027165
22
0.004044
32
0.012584
13
0.023260
23
0.003429
33
0.017762
0
3DFACE
8
football_low_poly
10
0.025978
20
0.009374
30
0.012584
11
0.027641
21
0.010492
31
0.006641
12
0.028904
22
0.004526
32
0.006641
13
0.027165
23
0.004044
33
0.012584
0
3DFACE
8
football_low_poly
10
0.027641
20
0.010492
30
0.006641
11
0.028814
21
0.011120
31
0.000000
12
0.030131
22
0.004797
32
0.000000
13
0.028904
23
0.004526
33
0.006641
0
3DFACE
8
football_low_poly
10
-0.000000
20
-0.040838
30
0.012584
11
0.000000
21
-0.045707
31
0.006641
12
-0.006043
22
-0.044237
32
0.006641
13
-0.005679
23
-0.039524
33
0.012584
0
3DFACE
8
football_low_poly
10
-0.025170
20
0.018862
30
0.006641
11
-0.026238
21
0.019991
31
0.000000
12
-0.022515
22
0.028398
32
0.000000
13
-0.021598
23
0.026795
33
0.006641
0
3DFACE
8
football_low_poly
10
-0.023655
20
0.016853
30
0.012584
11
-0.025170
21
0.018862
31
0.006641
12
-0.021598
22
0.026795
32
0.006641
13
-0.020299
23
0.023940
33
0.012584
0
3DFACE
8
football_low_poly
10
-0.020255
20
0.014291
30
0.017762
11
-0.023655
21
0.016853
31
0.012584
12
-0.020299
22
0.023940
32
0.012584
13
-0.017381
23
0.020301
33
0.017762
0
3DFACE
8
football_low_poly
10
-0.016443
20
0.011382
30
0.022380
11
-0.020255
21
0.014291
31
0.017762
12
-0.017381
22
0.020301
32
0.017762
13
-0.014110
23
0.016168
33
0.022380
0
3DFACE
8
football_low_poly
10
-0.011283
20
0.008012
30
0.026225
11
-0.016443
21
0.011382
31
0.022380
12
-0.014110
22
0.016168
32
0.022380
13
-0.009682
23
0.011382
33
0.026225
0
3DFACE
8
football_low_poly
10
-0.006216
20
0.004096
30
0.028325
11
-0.011283
21
0.008012
31
0.026225
12
-0.009682
22
0.011382
32
0.026225
13
-0.005334
23
0.005818
33
0.028325
0
3DFACE
8
football_low_poly
10
0.000000
20
-0.000000
30
0.029204
11
-0.006216
21
0.004096
31
0.028325
12
-0.005334
22
0.005818
32
0.028325
13
-0.005334
23
0.005818
33
0.028325
0
3DFACE
8
football_low_poly
10
0.000000
20
-0.000000
30
0.029204
11
0.006216
21
0.004096
31
0.028325
12
0.006826
22
0.002278
32
0.028325
13
0.006826
23
0.002278
33
0.028325
0
3DFACE
8
football_low_poly
10
0.006216
20
0.004096
30
0.028325
11
0.011283
21
0.008012
31
0.026225
12
0.012391
22
0.004457
32
0.026225
13
0.006826
23
0.002278
33
0.028325
0
3DFACE
8
football_low_poly
10
0.011283
20
0.008012
30
0.026225
11
0.016443
21
0.011382
31
0.022380
12
0.018058
22
0.006331
32
0.022380
13
0.012391
23
0.004457
33
0.026225
0
3DFACE
8
football_low_poly
10
0.016443
20
0.011382
30
0.022380
11
0.020255
21
0.014291
31
0.017762
12
0.022243
22
0.007949
32
0.017762
13
0.018058
23
0.006331
33
0.022380
0
3DFACE
8
football_low_poly
10
0.020255
20
0.014291
30
0.017762
11
0.023655
21
0.016853
31
0.012584
12
0.025978
22
0.009374
32
0.012584
13
0.022243
23
0.007949
33
0.017762
0
3DFACE
8
football_low_poly
10
0.023655
20
0.016853
30
0.012584
11
0.025170
21
0.018862
31
0.006641
12
0.027641
22
0.010492
32
0.006641
13
0.025978
23
0.009374
33
0.012584
0
3DFACE
8
football_low_poly
10
0.025170
20
0.018862
30
0.006641
11
0.026238
21
0.019991
31
0.000000
12
0.028814
22
0.011120
32
0.000000
13
0.027641
23
0.010492
33
0.006641
0
3DFACE
8
football_low_poly
10
-0.000000
20
-0.034629
30
0.017762
11
-0.000000
21
-0.040838
31
0.012584
12
-0.005679
22
-0.039524
32
0.012584
13
-0.004863
23
-0.033515
33
0.017762
0
3DFACE
8
football_low_poly
10
-0.021598
20
0.026795
30
0.006641
11
-0.022515
21
0.028398
31
0.000000
12
-0.017808
22
0.035545
32
0.000000
13
-0.017083
23
0.033539
33
0.006641
0
3DFACE
8
football_low_poly
10
-0.020299
20
0.023940
30
0.012584
11
-0.021598
21
0.026795
31
0.006641
12
-0.017083
22
0.033539
32
0.006641
13
-0.016055
23
0.029965
33
0.012584
0
3DFACE
8
football_low_poly
10
-0.017381
20
0.020301
30
0.017762
11
-0.020299
21
0.023940
31
0.012584
12
-0.016055
22
0.029965
32
0.012584
13
-0.013747
23
0.025410
33
0.017762
0
3DFACE
8
football_low_poly
10
-0.014110
20
0.016168
30
0.022380
11
-0.017381
21
0.020301
31
0.017762
12
-0.013747
22
0.025410
32
0.017762
13
-0.011160
23
0.020238
33
0.022380
0
3DFACE
8
football_low_poly
10
-0.009682
20
0.011382
30
0.026225
11
-0.014110
21
0.016168
31
0.022380
12
-0.011160
22
0.020238
32
0.022380
13
-0.007658
23
0.014246
33
0.026225
0
3DFACE
8
football_low_poly
10
-0.005334
20
0.005818
30
0.028325
11
-0.009682
21
0.011382
31
0.026225
12
-0.007658
22
0.014246
32
0.026225
13
-0.004219
23
0.007282
33
0.028325
0
3DFACE
8
football_low_poly
10
0.000000
20
-0.000000
30
0.029204
11
-0.005334
21
0.005818
31
0.028325
12
-0.004219
22
0.007282
32
0.028325
13
-0.004219
23
0.007282
33
0.028325
0
3DFACE
8
football_low_poly
10
0.000000
20
-0.000000
30
0.029204
11
0.005334
21
0.005818
31
0.028325
12
0.006216
22
0.004096
32
0.028325
13
0.006216
23
0.004096
33
0.028325
0
3DFACE
8
football_low_poly
10
0.005334
20
0.005818
30
0.028325
11
0.009682
21
0.011382
31
0.026225
12
0.011283
22
0.008012
32
0.026225
13
0.006216
23
0.004096
33
0.028325
0
3DFACE
8
football_low_poly
10
0.009682
20
0.011382
30
0.026225
11
0.014110
21
0.016168
31
0.022380
12
0.016443
22
0.011382
32
0.022380
13
0.011283
23
0.008012
33
0.026225
0
3DFACE
8
football_low_poly
10
0.014110
20
0.016168
30
0.022380
11
0.017381
21
0.020301
31
0.017762
12
0.020255
22
0.014291
32
0.017762
13
0.016443
23
0.011382
33
0.022380
0
3DFACE
8
football_low_poly
10
0.017381
20
0.020301
30
0.017762
11
0.020299
21
0.023940
31
0.012584
12
0.023655
22
0.016853
32
0.012584
13
0.020255
23
0.014291
33
0.017762
0
3DFACE
8
football_low_poly
10
0.020299
20
0.023940
30
0.012584
11
0.021598
21
0.026795
31
0.006641
12
0.025170
22
0.018862
32
0.006641
13
0.023655
23
0.016853
33
0.012584
0
3DFACE
8
football_low_poly
10
0.021598
20
0.026795
30
0.006641
11
0.022515
21
0.028398
31
0.000000
12
0.026238
22
0.019991
32
0.000000
13
0.025170
23
0.018862
33
0.006641
0
3DFACE
8
football_low_poly
10
-0.000000
20
-0.027581
30
0.022380
11
-0.000000
21
-0.034629
31
0.017762
12
-0.004863
22
-0.033515
32
0.017762
13
-0.003948
23
-0.026693
33
0.022380
0
3DFACE
8
football_low_poly
10
-0.017083
20
0.033539
30
0.006641
11
-0.017808
21
0.035545
31
0.000000
12
-0.012323
22
0.042161
32
0.000000
13
-0.011821
23
0.039781
33
0.006641
0
3DFACE
8
football_low_poly
10
-0.016055
20
0.029965
30
0.012584
11
-0.017083
21
0.033539
31
0.006641
12
-0.011821
22
0.039781
32
0.006641
13
-0.011110
23
0.035543
33
0.012584
0
3DFACE
8
football_low_poly
10
-0.013747
20
0.025410
30
0.017762
11
-0.016055
21
0.029965
31
0.012584
12
-0.011110
22
0.035543
32
0.012584
13
-0.009513
23
0.030139
33
0.017762
0
3DFACE
8
football_low_poly
10
-0.011160
20
0.020238
30
0.022380
11
-0.013747
21
0.025410
31
0.017762
12
-0.009513
22
0.030139
32
0.017762
13
-0.007723
23
0.024005
33
0.022380
0
3DFACE
8
football_low_poly
10
-0.007658
20
0.014246
30
0.026225
11
-0.011160
21
0.020238
31
0.022380
12
-0.007723
22
0.024005
32
0.022380
13
-0.005299
23
0.016898
33
0.026225
0
3DFACE
8
football_low_poly
10
-0.004219
20
0.007282
30
0.028325
11
-0.007658
21
0.014246
31
0.026225
12
-0.005299
22
0.016898
32
0.026225
13
-0.002919
23
0.008638
33
0.028325
0
3DFACE
8
football_low_poly
10
0.000000
20
-0.000000
30
0.029204
11
-0.004219
21
0.007282
31
0.028325
12
-0.002919
22
0.008638
32
0.028325
13
-0.002919
23
0.008638
33
0.028325
0
3DFACE
8
football_low_poly
10
0.000000
20
-0.000000
30
0.029204
11
0.004219
21
0.007282
31
0.028325
12
0.005334
22
0.005818
32
0.028325
13
0.005334
23
0.005818
33
0.028325
0
3DFACE
8
football_low_poly
10
0.004219
20
0.007282
30
0.028325
11
0.007658
21
0.014246
31
0.026225
12
0.009682
22
0.011382
32
0.026225
13
0.005334
23
0.005818
33
0.028325
0
3DFACE
8
football_low_poly
10
0.007658
20
0.014246
30
0.026225
11
0.011160
21
0.020238
31
0.022380
12
0.014110
22
0.016168
32
0.022380
13
0.009682
23
0.011382
33
0.026225
0
3DFACE
8
football_low_poly
10
0.011160
20
0.020238
30
0.022380
11
0.013747
21
0.025410
31
0.017762
12
0.017381
22
0.020301
32
0.017762
13
0.014110
23
0.016168
33
0.022380
0
3DFACE
8
football_low_poly
10
0.013747
20
0.025410
30
0.017762
11
0.016055
21
0.029965
31
0.012584
12
0.020299
22
0.023940
32
0.012584
13
0.017381
23
0.020301
33
0.017762
0
3DFACE
8
football_low_poly
10
0.016055
20
0.029965
30
0.012584
11
0.017083
21
0.033539
31
0.006641
12
0.021598
22
0.026795
32
0.006641
13
0.020299
23
0.023940
33
0.012584
0
3DFACE
8
football_low_poly
10
0.017083
20
0.033539
30
0.006641
11
0.017808
21
0.035545
31
0.000000
12
0.022515
22
0.028398
32
0.000000
13
0.021598
23
0.026795
33
0.006641
0
3DFACE
8
football_low_poly
10
0.000000
20
-0.019416
30
0.026225
11
-0.000000
21
-0.027581
31
0.022380
12
-0.003948
22
-0.026693
32
0.022380
13
-0.002709
23
-0.018791
33
0.026225
0
3DFACE
8
football_low_poly
10
-0.011821
20
0.039781
30
0.006641
11
-0.012323
21
0.042161
31
0.000000
12
-0.006299
22
0.046884
32
0.000000
13
-0.006043
23
0.044237
33
0.006641
0
3DFACE
8
football_low_poly
10
-0.011110
20
0.035543
30
0.012584
11
-0.011821
21
0.039781
31
0.006641
12
-0.006043
22
0.044237
32
0.006641
13
-0.005679
23
0.039524
33
0.012584
0
3DFACE
8
football_low_poly
10
-0.009513
20
0.030139
30
0.017762
11
-0.011110
21
0.035543
31
0.012584
12
-0.005679
22
0.039524
32
0.012584
13
-0.004863
23
0.033515
33
0.017762
0
3DFACE
8
football_low_poly
10
-0.007723
20
0.024005
30
0.022380
11
-0.009513
21
0.030139
31
0.017762
12
-0.004863
22
0.033515
32
0.017762
13
-0.003948
23
0.026693
33
0.022380
0
3DFACE
8
football_low_poly
10
-0.005299
20
0.016898
30
0.026225
11
-0.007723
21
0.024005
31
0.022380
12
-0.003948
22
0.026693
32
0.022380
13
-0.002709
23
0.018791
33
0.026225
0
3DFACE
8
football_low_poly
10
-0.002919
20
0.008638
30
0.028325
11
-0.005299
21
0.016898
31
0.026225
12
-0.002709
22
0.018791
32
0.026225
13
-0.001492
23
0.009605
33
0.028325
0
3DFACE
8
football_low_poly
10
0.000000
20
-0.000000
30
0.029204
11
-0.002919
21
0.008638
31
0.028325
12
-0.001492
22
0.009605
32
0.028325
13
-0.001492
23
0.009605
33
0.028325
0
3DFACE
8
football_low_poly
10
0.000000
20
-0.000000
30
0.029204
11
0.002919
21
0.008638
31
0.028325
12
0.004219
22
0.007282
32
0.028325
13
0.004219
23
0.007282
33
0.028325
0
3DFACE
8
football_low_poly
10
0.002919
20
0.008638
30
0.028325
11
0.005299
21
0.016898
31
0.026225
12
0.007658
22
0.014246
32
0.026225
13
0.004219
23
0.007282
33
0.028325
0
3DFACE
8
football_low_poly
10
0.005299
20
0.016898
30
0.026225
11
0.007723
21
0.024005
31
0.022380
12
0.011160
22
0.020238
32
0.022380
13
0.007658
23
0.014246
33
0.026225
0
3DFACE
8
football_low_poly
10
0.007723
20
0.024005
30
0.022380
11
0.009513
21
0.030139
31
0.017762
12
0.013747
22
0.025410
32
0.017762
13
0.011160
23
0.020238
33
0.022380
0
3DFACE
8
football_low_poly
10
0.009513
20
0.030139
30
0.017762
11
0.011110
21
0.035543
31
0.012584
12
0.016055
22
0.029965
32
0.012584
13
0.013747
23
0.025410
33
0.017762
0
3DFACE
8
football_low_poly
10
0.011110
20
0.035543
30
0.012584
11
0.011821
21
0.039781
31
0.006641
12
0.017083
22
0.033539
32
0.006641
13
0.016055
23
0.029965
33
0.012584
0
3DFACE
8
football_low_poly
10
0.011821
20
0.039781
30
0.006641
11
0.012323
21
0.042161
31
0.000000
12
0.017808
22
0.035545
32
0.000000
13
0.017083
23
0.033539
33
0.006641
0
3DFACE
8
football_low_poly
10
0.000000
20
-0.009925
30
0.028325
11
0.000000
21
-0.019416
31
0.026225
12
-0.002709
22
-0.018791
32
0.026225
13
-0.001492
23
-0.009605
33
0.028325
0
3DFACE
8
football_low_poly
10
-0.006043
20
0.044237
30
0.006641
11
-0.006299
21
0.046884
31
0.000000
12
-0.000000
22
0.048442
32
0.000000
13
-0.000000
23
0.045707
33
0.006641
0
3DFACE
8
football_low_poly
10
-0.005679
20
0.039524
30
0.012584
11
-0.006043
21
0.044237
31
0.006641
12
-0.000000
22
0.045707
32
0.006641
13
-0.000000
23
0.040838
33
0.012584
0
3DFACE
8
football_low_poly
10
-0.004863
20
0.033515
30
0.017762
11
-0.005679
21
0.039524
31
0.012584
12
-0.000000
22
0.040838
32
0.012584
13
-0.000000
23
0.034629
33
0.017762
0
3DFACE
8
football_low_poly
10
-0.003948
20
0.026693
30
0.022380
11
-0.004863
21
0.033515
31
0.017762
12
-0.000000
22
0.034629
32
0.017762
13
-0.000000
23
0.027581
33
0.022380
0
3DFACE
8
football_low_poly
10
-0.002709
20
0.018791
30
0.026225
11
-0.003948
21
0.026693
31
0.022380
12
-0.000000
22
0.027581
32
0.022380
13
-0.000000
23
0.019416
33
0.026225
0
3DFACE
8
football_low_poly
10
-0.001492
20
0.009605
30
0.028325
11
-0.002709
21
0.018791
31
0.026225
12
-0.000000
22
0.019416
32
0.026225
13
-0.000000
23
0.009925
33
0.028325
0
3DFACE
8
football_low_poly
10
0.000000
20
-0.000000
30
0.029204
11
-0.001492
21
0.009605
31
0.028325
12
-0.000000
22
0.009925
32
0.028325
13
-0.000000
23
0.009925
33
0.028325
0
3DFACE
8
football_low_poly
10
0.000000
20
-0.000000
30
0.029204
11
0.001492
21
0.009605
31
0.028325
12
0.002919
22
0.008638
32
0.028325
13
0.002919
23
0.008638
33
0.028325
0
3DFACE
8
football_low_poly
10
0.001492
20
0.009605
30
0.028325
11
0.002709
21
0.018791
31
0.026225
12
0.005299
22
0.016898
32
0.026225
13
0.002919
23
0.008638
33
0.028325
0
3DFACE
8
football_low_poly
10
0.002709
20
0.018791
30
0.026225
11
0.003948
21
0.026693
31
0.022380
12
0.007723
22
0.024005
32
0.022380
13
0.005299
23
0.016898
33
0.026225
0
3DFACE
8
football_low_poly
10
0.003948
20
0.026693
30
0.022380
11
0.004863
21
0.033515
31
0.017762
12
0.009513
22
0.030139
32
0.017762
13
0.007723
23
0.024005
33
0.022380
0
3DFACE
8
football_low_poly
10
0.004863
20
0.033515
30
0.017762
11
0.005679
21
0.039524
31
0.012584
12
0.011110
22
0.035543
32
0.012584
13
0.009513
23
0.030139
33
0.017762
0
3DFACE
8
football_low_poly
10
0.005679
20
0.039524
30
0.012584
11
0.006043
21
0.044237
31
0.006641
12
0.011821
22
0.039781
32
0.006641
13
0.011110
23
0.035543
33
0.012584
0
3DFACE
8
football_low_poly
10
0.006043
20
0.044237
30
0.006641
11
0.006299
21
0.046884
31
0.000000
12
0.012323
22
0.042161
32
0.000000
13
0.011821
23
0.039781
33
0.006641
0
3DFACE
8
football_low_poly
10
0.000000
20
-0.000000
30
0.029204
11
0.000000
21
-0.009925
31
0.028325
12
-0.001492
22
-0.009605
32
0.028325
13
-0.001492
23
-0.009605
33
0.028325
0
3DFACE
8
football_low_poly
10
-0.000000
20
0.045707
30
0.006641
11
-0.000000
21
0.048442
31
0.000000
12
0.006299
22
0.046884
32
0.000000
13
0.006043
23
0.044237
33
0.006641
0
3DFACE
8
football_low_poly
10
-0.000000
20
0.040838
30
0.012584
11
-0.000000
21
0.045707
31
0.006641
12
0.006043
22
0.044237
32
0.006641
13
0.005679
23
0.039524
33
0.012584
0
3DFACE
8
football_low_poly
10
-0.000000
20
0.034629
30
0.017762
11
-0.000000
21
0.040838
31
0.012584
12
0.005679
22
0.039524
32
0.012584
13
0.004863
23
0.033515
33
0.017762
0
3DFACE
8
football_low_poly
10
-0.000000
20
0.027581
30
0.022380
11
-0.000000
21
0.034629
31
0.017762
12
0.004863
22
0.033515
32
0.017762
13
0.003948
23
0.026693
33
0.022380
0
3DFACE
8
football_low_poly
10
-0.000000
20
0.019416
30
0.026225
11
-0.000000
21
0.027581
31
0.022380
12
0.003948
22
0.026693
32
0.022380
13
0.002709
23
0.018791
33
0.026225
0
3DFACE
8
football_low_poly
10
-0.000000
20
0.009925
30
0.028325
11
-0.000000
21
0.019416
31
0.026225
12
0.002709
22
0.018791
32
0.026225
13
0.001492
23
0.009605
33
0.028325
0
3DFACE
8
football_low_poly
10
0.000000
20
-0.000000
30
0.029204
11
-0.000000
21
0.009925
31
0.028325
12
0.001492
22
0.009605
32
0.028325
13
0.001492
23
0.009605
33
0.028325
0
3DFACE
8
football_low_poly
10
0.000000
20
-0.009925
30
-0.028325
11
0.001492
21
-0.009605
31
-0.028325
12
0.000000
22
-0.000000
32
-0.029204
13
0.000000
23
-0.000000
33
-0.029204
0
3DFACE
8
football_low_poly
10
0.000000
20
-0.009925
30
-0.028325
11
0.000000
21
-0.019416
31
-0.026225
12
0.002709
22
-0.018791
32
-0.026225
13
0.001492
23
-0.009605
33
-0.028325
0
3DFACE
8
football_low_poly
10
0.000000
20
-0.019416
30
-0.026225
11
-0.000000
21
-0.027581
31
-0.022380
12
0.003948
22
-0.026693
32
-0.022380
13
0.002709
23
-0.018791
33
-0.026225
0
3DFACE
8
football_low_poly
10
-0.000000
20
-0.027581
30
-0.022380
11
-0.000000
21
-0.034629
31
-0.017762
12
0.004863
22
-0.033515
32
-0.017762
13
0.003948
23
-0.026693
33
-0.022380
0
3DFACE
8
football_low_poly
10
-0.000000
20
-0.034629
30
-0.017762
11
-0.000000
21
-0.040838
31
-0.012584
12
0.005679
22
-0.039524
32
-0.012584
13
0.004863
23
-0.033515
33
-0.017762
0
3DFACE
8
football_low_poly
10
-0.000000
20
-0.040838
30
-0.012584
11
0.000000
21
-0.045707
31
-0.006641
12
0.006043
22
-0.044237
32
-0.006641
13
0.005679
23
-0.039524
33
-0.012584
0
3DFACE
8
football_low_poly
10
0.000000
20
-0.045707
30
-0.006641
11
-0.000000
21
-0.048442
31
0.000000
12
0.006299
22
-0.046884
32
0.000000
13
0.006043
23
-0.044237
33
-0.006641
0
3DFACE
8
football_low_poly
10
-0.002919
20
-0.008638
30
-0.028325
11
-0.001492
21
-0.009605
31
-0.028325
12
0.000000
22
-0.000000
32
-0.029204
13
0.000000
23
-0.000000
33
-0.029204
0
3DFACE
8
football_low_poly
10
-0.017083
20
-0.033539
30
-0.006641
11
-0.017808
21
-0.035545
31
0.000000
12
-0.012323
22
-0.042161
32
0.000000
13
-0.011821
23
-0.039781
33
-0.006641
0
3DFACE
8
football_low_poly
10
-0.016055
20
-0.029965
30
-0.012584
11
-0.017083
21
-0.033539
31
-0.006641
12
-0.011821
22
-0.039781
32
-0.006641
13
-0.011110
23
-0.035543
33
-0.012584
0
3DFACE
8
football_low_poly
10
-0.013747
20
-0.025410
30
-0.017762
11
-0.016055
21
-0.029965
31
-0.012584
12
-0.011110
22
-0.035543
32
-0.012584
13
-0.009513
23
-0.030139
33
-0.017762
0
3DFACE
8
football_low_poly
10
-0.011160
20
-0.020238
30
-0.022380
11
-0.013747
21
-0.025410
31
-0.017762
12
-0.009513
22
-0.030139
32
-0.017762
13
-0.007723
23
-0.024005
33
-0.022380
0
3DFACE
8
football_low_poly
10
-0.007658
20
-0.014246
30
-0.026225
11
-0.011160
21
-0.020238
31
-0.022380
12
-0.007723
22
-0.024005
32
-0.022380
13
-0.005299
23
-0.016898
33
-0.026225
0
3DFACE
8
football_low_poly
10
-0.004219
20
-0.007282
30
-0.028325
11
-0.007658
21
-0.014246
31
-0.026225
12
-0.005299
22
-0.016898
32
-0.026225
13
-0.002919
23
-0.008638
33
-0.028325
0
3DFACE
8
football_low_poly
10
-0.004219
20
-0.007282
30
-0.028325
11
-0.002919
21
-0.008638
31
-0.028325
12
0.000000
22
-0.000000
32
-0.029204
13
0.000000
23
-0.000000
33
-0.029204
0
3DFACE
8
football_low_poly
10
0.001492
20
-0.009605
30
-0.028325
11
0.002919
21
-0.008638
31
-0.028325
12
0.000000
22
-0.000000
32
-0.029204
13
0.000000
23
-0.000000
33
-0.029204
0
3DFACE
8
football_low_poly
10
0.001492
20
-0.009605
30
-0.028325
11
0.002709
21
-0.018791
31
-0.026225
12
0.005299
22
-0.016898
32
-0.026225
13
0.002919
23
-0.008638
33
-0.028325
0
3DFACE
8
football_low_poly
10
0.002709
20
-0.018791
30
-0.026225
11
0.003948
21
-0.026693
31
-0.022380
12
0.007723
22
-0.024005
32
-0.022380
13
0.005299
23
-0.016898
33
-0.026225
0
3DFACE
8
football_low_poly
10
0.003948
20
-0.026693
30
-0.022380
11
0.004863
21
-0.033515
31
-0.017762
12
0.009513
22
-0.030139
32
-0.017762
13
0.007723
23
-0.024005
33
-0.022380
0
3DFACE
8
football_low_poly
10
0.004863
20
-0.033515
30
-0.017762
11
0.005679
21
-0.039524
31
-0.012584
12
0.011110
22
-0.035543
32
-0.012584
13
0.009513
23
-0.030139
33
-0.017762
0
3DFACE
8
football_low_poly
10
0.005679
20
-0.039524
30
-0.012584
11
0.006043
21
-0.044237
31
-0.006641
12
0.011821
22
-0.039781
32
-0.006641
13
0.011110
23
-0.035543
33
-0.012584
0
3DFACE
8
football_low_poly
10
0.006043
20
-0.044237
30
-0.006641
11
0.006299
21
-0.046884
31
0.000000
12
0.012323
22
-0.042161
32
0.000000
13
0.011821
23
-0.039781
33
-0.006641
0
3DFACE
8
football_low_poly
10
-0.002919
20
-0.008638
30
-0.028325
11
-0.005299
21
-0.016898
31
-0.026225
12
-0.002709
22
-0.018791
32
-0.026225
13
-0.001492
23
-0.009605
33
-0.028325
0
3DFACE
8
football_low_poly
10
-0.021598
20
-0.026795
30
-0.006641
11
-0.022515
21
-0.028398
31
0.000000
12
-0.017808
22
-0.035545
32
0.000000
13
-0.017083
23
-0.033539
33
-0.006641
0
3DFACE
8
football_low_poly
10
-0.020299
20
-0.023940
30
-0.012584
11
-0.021598
21
-0.026795
31
-0.006641
12
-0.017083
22
-0.033539
32
-0.006641
13
-0.016055
23
-0.029965
33
-0.012584
0
3DFACE
8
football_low_poly
10
-0.017381
20
-0.020301
30
-0.017762
11
-0.020299
21
-0.023940
31
-0.012584
12
-0.016055
22
-0.029965
32
-0.012584
13
-0.013747
23
-0.025410
33
-0.017762
0
3DFACE
8
football_low_poly
10
-0.014110
20
-0.016168
30
-0.022380
11
-0.017381
21
-0.020301
31
-0.017762
12
-0.013747
22
-0.025410
32
-0.017762
13
-0.011160
23
-0.020238
33
-0.022380
0
3DFACE
8
football_low_poly
10
-0.009682
20
-0.011382
30
-0.026225
11
-0.014110
21
-0.016168
31
-0.022380
12
-0.011160
22
-0.020238
32
-0.022380
13
-0.007658
23
-0.014246
33
-0.026225
0
3DFACE
8
football_low_poly
10
-0.005334
20
-0.005818
30
-0.028325
11
-0.009682
21
-0.011382
31
-0.026225
12
-0.007658
22
-0.014246
32
-0.026225
13
-0.004219
23
-0.007282
33
-0.028325
0
3DFACE
8
football_low_poly
10
-0.005334
20
-0.005818
30
-0.028325
11
-0.004219
21
-0.007282
31
-0.028325
12
0.000000
22
-0.000000
32
-0.029204
13
0.000000
23
-0.000000
33
-0.029204
0
3DFACE
8
football_low_poly
10
0.002919
20
-0.008638
30
-0.028325
11
0.004219
21
-0.007282
31
-0.028325
12
0.000000
22
-0.000000
32
-0.029204
13
0.000000
23
-0.000000
33
-0.029204
0
3DFACE
8
football_low_poly
10
0.002919
20
-0.008638
30
-0.028325
11
0.005299
21
-0.016898
31
-0.026225
12
0.007658
22
-0.014246
32
-0.026225
13
0.004219
23
-0.007282
33
-0.028325
0
3DFACE
8
football_low_poly
10
0.005299
20
-0.016898
30
-0.026225
11
0.007723
21
-0.024005
31
-0.022380
12
0.011160
22
-0.020238
32
-0.022380
13
0.007658
23
-0.014246
33
-0.026225
0
3DFACE
8
football_low_poly
10
0.007723
20
-0.024005
30
-0.022380
11
0.009513
21
-0.030139
31
-0.017762
12
0.013747
22
-0.025410
32
-0.017762
13
0.011160
23
-0.020238
33
-0.022380
0
3DFACE
8
football_low_poly
10
0.009513
20
-0.030139
30
-0.017762
11
0.011110
21
-0.035543
31
-0.012584
12
0.016055
22
-0.029965
32
-0.012584
13
0.013747
23
-0.025410
33
-0.017762
0
3DFACE
8
football_low_poly
10
0.011110
20
-0.035543
30
-0.012584
11
0.011821
21
-0.039781
31
-0.006641
12
0.017083
22
-0.033539
32
-0.006641
13
0.016055
23
-0.029965
33
-0.012584
0
3DFACE
8
football_low_poly
10
0.011821
20
-0.039781
30
-0.006641
11
0.012323
21
-0.042161
31
0.000000
12
0.017808
22
-0.035545
32
0.000000
13
0.017083
23
-0.033539
33
-0.006641
0
3DFACE
8
football_low_poly
10
-0.005299
20
-0.016898
30
-0.026225
11
-0.007723
21
-0.024005
31
-0.022380
12
-0.003948
22
-0.026693
32
-0.022380
13
-0.002709
23
-0.018791
33
-0.026225
0
3DFACE
8
football_low_poly
10
-0.025170
20
-0.018862
30
-0.006641
11
-0.026238
21
-0.019991
31
0.000000
12
-0.022515
22
-0.028398
32
0.000000
13
-0.021598
23
-0.026795
33
-0.006641
0
3DFACE
8
football_low_poly
10
-0.023655
20
-0.016853
30
-0.012584
11
-0.025170
21
-0.018862
31
-0.006641
12
-0.021598
22
-0.026795
32
-0.006641
13
-0.020299
23
-0.023940
33
-0.012584
0
3DFACE
8
football_low_poly
10
-0.020255
20
-0.014291
30
-0.017762
11
-0.023655
21
-0.016853
31
-0.012584
12
-0.020299
22
-0.023940
32
-0.012584
13
-0.017381
23
-0.020301
33
-0.017762
0
3DFACE
8
football_low_poly
10
-0.016443
20
-0.011382
30
-0.022380
11
-0.020255
21
-0.014291
31
-0.017762
12
-0.017381
22
-0.020301
32
-0.017762
13
-0.014110
23
-0.016168
33
-0.022380
0
3DFACE
8
football_low_poly
10
-0.011283
20
-0.008012
30
-0.026225
11
-0.016443
21
-0.011382
31
-0.022380
12
-0.014110
22
-0.016168
32
-0.022380
13
-0.009682
23
-0.011382
33
-0.026225
0
3DFACE
8
football_low_poly
10
-0.006216
20
-0.004096
30
-0.028325
11
-0.011283
21
-0.008012
31
-0.026225
12
-0.009682
22
-0.011382
32
-0.026225
13
-0.005334
23
-0.005818
33
-0.028325
0
3DFACE
8
football_low_poly
10
-0.006216
20
-0.004096
30
-0.028325
11
-0.005334
21
-0.005818
31
-0.028325
12
0.000000
22
-0.000000
32
-0.029204
13
0.000000
23
-0.000000
33
-0.029204
0
3DFACE
8
football_low_poly
10
0.004219
20
-0.007282
30
-0.028325
11
0.005334
21
-0.005818
31
-0.028325
12
0.000000
22
-0.000000
32
-0.029204
13
0.000000
23
-0.000000
33
-0.029204
0
3DFACE
8
football_low_poly
10
0.004219
20
-0.007282
30
-0.028325
11
0.007658
21
-0.014246
31
-0.026225
12
0.009682
22
-0.011382
32
-0.026225
13
0.005334
23
-0.005818
33
-0.028325
0
3DFACE
8
football_low_poly
10
0.007658
20
-0.014246
30
-0.026225
11
0.011160
21
-0.020238
31
-0.022380
12
0.014110
22
-0.016168
32
-0.022380
13
0.009682
23
-0.011382
33
-0.026225
0
3DFACE
8
football_low_poly
10
0.011160
20
-0.020238
30
-0.022380
11
0.013747
21
-0.025410
31
-0.017762
12
0.017381
22
-0.020301
32
-0.017762
13
0.014110
23
-0.016168
33
-0.022380
0
3DFACE
8
football_low_poly
10
0.013747
20
-0.025410
30
-0.017762
11
0.016055
21
-0.029965
31
-0.012584
12
0.020299
22
-0.023940
32
-0.012584
13
0.017381
23
-0.020301
33
-0.017762
0
3DFACE
8
football_low_poly
10
0.016055
20
-0.029965
30
-0.012584
11
0.017083
21
-0.033539
31
-0.006641
12
0.021598
22
-0.026795
32
-0.006641
13
0.020299
23
-0.023940
33
-0.012584
0
3DFACE
8
football_low_poly
10
0.017083
20
-0.033539
30
-0.006641
11
0.017808
21
-0.035545
31
0.000000
12
0.022515
22
-0.028398
32
0.000000
13
0.021598
23
-0.026795
33
-0.006641
0
3DFACE
8
football_low_poly
10
-0.007723
20
-0.024005
30
-0.022380
11
-0.009513
21
-0.030139
31
-0.017762
12
-0.004863
22
-0.033515
32
-0.017762
13
-0.003948
23
-0.026693
33
-0.022380
0
3DFACE
8
football_low_poly
10
-0.027641
20
-0.010492
30
-0.006641
11
-0.028814
21
-0.011120
31
0.000000
12
-0.026238
22
-0.019991
32
0.000000
13
-0.025170
23
-0.018862
33
-0.006641
0
3DFACE
8
football_low_poly
10
-0.025978
20
-0.009374
30
-0.012584
11
-0.027641
21
-0.010492
31
-0.006641
12
-0.025170
22
-0.018862
32
-0.006641
13
-0.023655
23
-0.016853
33
-0.012584
0
3DFACE
8
football_low_poly
10
-0.022243
20
-0.007949
30
-0.017762
11
-0.025978
21
-0.009374
31
-0.012584
12
-0.023655
22
-0.016853
32
-0.012584
13
-0.020255
23
-0.014291
33
-0.017762
0
3DFACE
8
football_low_poly
10
-0.018058
20
-0.006331
30
-0.022380
11
-0.022243
21
-0.007949
31
-0.017762
12
-0.020255
22
-0.014291
32
-0.017762
13
-0.016443
23
-0.011382
33
-0.022380
0
3DFACE
8
football_low_poly
10
-0.012391
20
-0.004457
30
-0.026225
11
-0.018058
21
-0.006331
31
-0.022380
12
-0.016443
22
-0.011382
32
-0.022380
13
-0.011283
23
-0.008012
33
-0.026225
0
3DFACE
8
football_low_poly
10
-0.006826
20
-0.002278
30
-0.028325
11
-0.012391
21
-0.004457
31
-0.026225
12
-0.011283
22
-0.008012
32
-0.026225
13
-0.006216
23
-0.004096
33
-0.028325
0
3DFACE
8
football_low_poly
10
-0.006826
20
-0.002278
30
-0.028325
11
-0.006216
21
-0.004096
31
-0.028325
12
0.000000
22
-0.000000
32
-0.029204
13
0.000000
23
-0.000000
33
-0.029204
0
3DFACE
8
football_low_poly
10
0.005334
20
-0.005818
30
-0.028325
11
0.006216
21
-0.004096
31
-0.028325
12
0.000000
22
-0.000000
32
-0.029204
13
0.000000
23
-0.000000
33
-0.029204
0
3DFACE
8
football_low_poly
10
0.005334
20
-0.005818
30
-0.028325
11
0.009682
21
-0.011382
31
-0.026225
12
0.011283
22
-0.008012
32
-0.026225
13
0.006216
23
-0.004096
33
-0.028325
0
3DFACE
8
football_low_poly
10
0.009682
20
-0.011382
30
-0.026225
11
0.014110
21
-0.016168
31
-0.022380
12
0.016443
22
-0.011382
32
-0.022380
13
0.011283
23
-0.008012
33
-0.026225
0
3DFACE
8
football_low_poly
10
0.014110
20
-0.016168
30
-0.022380
11
0.017381
21
-0.020301
31
-0.017762
12
0.020255
22
-0.014291
32
-0.017762
13
0.016443
23
-0.011382
33
-0.022380
0
3DFACE
8
football_low_poly
10
0.017381
20
-0.020301
30
-0.017762
11
0.020299
21
-0.023940
31
-0.012584
12
0.023655
22
-0.016853
32
-0.012584
13
0.020255
23
-0.014291
33
-0.017762
0
3DFACE
8
football_low_poly
10
0.020299
20
-0.023940
30
-0.012584
11
0.021598
21
-0.026795
31
-0.006641
12
0.025170
22
-0.018862
32
-0.006641
13
0.023655
23
-0.016853
33
-0.012584
0
3DFACE
8
football_low_poly
10
0.021598
20
-0.026795
30
-0.006641
11
0.022515
21
-0.028398
31
0.000000
12
0.026238
22
-0.019991
32
0.000000
13
0.025170
23
-0.018862
33
-0.006641
0
3DFACE
8
football_low_poly
10
-0.009513
20
-0.030139
30
-0.017762
11
-0.011110
21
-0.035543
31
-0.012584
12
-0.005679
22
-0.039524
32
-0.012584
13
-0.004863
23
-0.033515
33
-0.017762
0
3DFACE
8
football_low_poly
10
-0.028904
20
-0.004527
30
-0.006641
11
-0.030131
21
-0.004797
31
0.000000
12
-0.028814
22
-0.011120
32
0.000000
13
-0.027641
23
-0.010492
33
-0.006641
0
3DFACE
8
football_low_poly
10
-0.027165
20
-0.004044
30
-0.012584
11
-0.028904
21
-0.004527
31
-0.006641
12
-0.027641
22
-0.010492
32
-0.006641
13
-0.025978
23
-0.009374
33
-0.012584
0
3DFACE
8
football_low_poly
10
-0.023260
20
-0.003429
30
-0.017762
11
-0.027165
21
-0.004044
31
-0.012584
12
-0.025978
22
-0.009374
32
-0.012584
13
-0.022243
23
-0.007949
33
-0.017762
0
3DFACE
8
football_low_poly
10
-0.018883
20
-0.002731
30
-0.022380
11
-0.023260
21
-0.003429
31
-0.017762
12
-0.022243
22
-0.007949
32
-0.017762
13
-0.018058
23
-0.006331
33
-0.022380
0
3DFACE
8
football_low_poly
10
-0.012957
20
-0.001923
30
-0.026225
11
-0.018883
21
-0.002731
31
-0.022380
12
-0.018058
22
-0.006331
32
-0.022380
13
-0.012391
23
-0.004457
33
-0.026225
0
3DFACE
8
football_low_poly
10
-0.007138
20
-0.000983
30
-0.028325
11
-0.012957
21
-0.001923
31
-0.026225
12
-0.012391
22
-0.004457
32
-0.026225
13
-0.006826
23
-0.002278
33
-0.028325
0
3DFACE
8
football_low_poly
10
-0.007138
20
-0.000983
30
-0.028325
11
-0.006826
21
-0.002278
31
-0.028325
12
0.000000
22
-0.000000
32
-0.029204
13
0.000000
23
-0.000000
33
-0.029204
0
3DFACE
8
football_low_poly
10
0.006216
20
-0.004096
30
-0.028325
11
0.006826
21
-0.002278
31
-0.028325
12
0.000000
22
-0.000000
32
-0.029204
13
0.000000
23
-0.000000
33
-0.029204
0
3DFACE
8
football_low_poly
10
0.006216
20
-0.004096
30
-0.028325
11
0.011283
21
-0.008012
31
-0.026225
12
0.012391
22
-0.004457
32
-0.026225
13
0.006826
23
-0.002278
33
-0.028325
0
3DFACE
8
football_low_poly
10
0.011283
20
-0.008012
30
-0.026225
11
0.016443
21
-0.011382
31
-0.022380
12
0.018058
22
-0.006331
32
-0.022380
13
0.012391
23
-0.004457
33
-0.026225
0
3DFACE
8
football_low_poly
10
0.016443
20
-0.011382
30
-0.022380
11
0.020255
21
-0.014291
31
-0.017762
12
0.022243
22
-0.007949
32
-0.017762
13
0.018058
23
-0.006331
33
-0.022380
0
3DFACE
8
football_low_poly
10
0.020255
20
-0.014291
30
-0.017762
11
0.023655
21
-0.016853
31
-0.012584
12
0.025978
22
-0.009374
32
-0.012584
13
0.022243
23
-0.007949
33
-0.017762
0
3DFACE
8
football_low_poly
10
0.023655
20
-0.016853
30
-0.012584
11
0.025170
21
-0.018862
31
-0.006641
12
0.027641
22
-0.010492
32
-0.006641
13
0.025978
23
-0.009374
33
-0.012584
0
3DFACE
8
football_low_poly
10
0.025170
20
-0.018862
30
-0.006641
11
0.026238
21
-0.019991
31
0.000000
12
0.028814
22
-0.011120
32
0.000000
13
0.027641
23
-0.010492
33
-0.006641
0
3DFACE
8
football_low_poly
10
-0.011110
20
-0.035543
30
-0.012584
11
-0.011821
21
-0.039781
31
-0.006641
12
-0.006043
22
-0.044237
32
-0.006641
13
-0.005679
23
-0.039524
33
-0.012584
0
3DFACE
8
football_low_poly
10
-0.028904
20
0.004526
30
-0.006641
11
-0.030131
21
0.004797
31
0.000000
12
-0.030131
22
-0.004797
32
0.000000
13
-0.028904
23
-0.004527
33
-0.006641
0
3DFACE
8
football_low_poly
10
-0.027165
20
0.004044
30
-0.012584
11
-0.028904
21
0.004526
31
-0.006641
12
-0.028904
22
-0.004527
32
-0.006641
13
-0.027165
23
-0.004044
33
-0.012584
0
3DFACE
8
football_low_poly
10
-0.023260
20
0.003429
30
-0.017762
11
-0.027165
21
0.004044
31
-0.012584
12
-0.027165
22
-0.004044
32
-0.012584
13
-0.023260
23
-0.003429
33
-0.017762
0
3DFACE
8
football_low_poly
10
-0.018883
20
0.002731
30
-0.022380
11
-0.023260
21
0.003429
31
-0.017762
12
-0.023260
22
-0.003429
32
-0.017762
13
-0.018883
23
-0.002731
33
-0.022380
0
3DFACE
8
football_low_poly
10
-0.012957
20
0.001923
30
-0.026225
11
-0.018883
21
0.002731
31
-0.022380
12
-0.018883
22
-0.002731
32
-0.022380
13
-0.012957
23
-0.001923
33
-0.026225
0
3DFACE
8
football_low_poly
10
-0.007138
20
0.000983
30
-0.028325
11
-0.012957
21
0.001923
31
-0.026225
12
-0.012957
22
-0.001923
32
-0.026225
13
-0.007138
23
-0.000983
33
-0.028325
0
3DFACE
8
football_low_poly
10
-0.007138
20
0.000983
30
-0.028325
11
-0.007138
21
-0.000983
31
-0.028325
12
0.000000
22
-0.000000
32
-0.029204
13
0.000000
23
-0.000000
33
-0.029204
0
3DFACE
8
football_low_poly
10
0.006826
20
-0.002278
30
-0.028325
11
0.007138
21
-0.000983
31
-0.028325
12
0.000000
22
-0.000000
32
-0.029204
13
0.000000
23
-0.000000
33
-0.029204
0
3DFACE
8
football_low_poly
10
0.006826
20
-0.002278
30
-0.028325
11
0.012391
21
-0.004457
31
-0.026225
12
0.012957
22
-0.001923
32
-0.026225
13
0.007138
23
-0.000983
33
-0.028325
0
3DFACE
8
football_low_poly
10
0.012391
20
-0.004457
30
-0.026225
11
0.018058
21
-0.006331
31
-0.022380
12
0.018883
22
-0.002731
32
-0.022380
13
0.012957
23
-0.001923
33
-0.026225
0
3DFACE
8
football_low_poly
10
0.018058
20
-0.006331
30
-0.022380
11
0.022243
21
-0.007949
31
-0.017762
12
0.023260
22
-0.003429
32
-0.017762
13
0.018883
23
-0.002731
33
-0.022380
0
3DFACE
8
football_low_poly
10
0.022243
20
-0.007949
30
-0.017762
11
0.025978
21
-0.009374
31
-0.012584
12
0.027165
22
-0.004044
32
-0.012584
13
0.023260
23
-0.003429
33
-0.017762
0
3DFACE
8
football_low_poly
10
0.025978
20
-0.009374
30
-0.012584
11
0.027641
21
-0.010492
31
-0.006641
12
0.028904
22
-0.004526
32
-0.006641
13
0.027165
23
-0.004044
33
-0.012584
0
3DFACE
8
football_low_poly
10
0.027641
20
-0.010492
30
-0.006641
11
0.028814
21
-0.011120
31
0.000000
12
0.030131
22
-0.004797
32
0.000000
13
0.028904
23
-0.004526
33
-0.006641
0
3DFACE
8
football_low_poly
10
-0.011821
20
-0.039781
30
-0.006641
11
-0.012323
21
-0.042161
31
0.000000
12
-0.006299
22
-0.046884
32
0.000000
13
-0.006043
23
-0.044237
33
-0.006641
0
3DFACE
8
football_low_poly
10
-0.027641
20
0.010492
30
-0.006641
11
-0.028814
21
0.011120
31
0.000000
12
-0.030131
22
0.004797
32
0.000000
13
-0.028904
23
0.004526
33
-0.006641
0
3DFACE
8
football_low_poly
10
-0.025978
20
0.009374
30
-0.012584
11
-0.027641
21
0.010492
31
-0.006641
12
-0.028904
22
0.004526
32
-0.006641
13
-0.027165
23
0.004044
33
-0.012584
0
3DFACE
8
football_low_poly
10
-0.022243
20
0.007949
30
-0.017762
11
-0.025978
21
0.009374
31
-0.012584
12
-0.027165
22
0.004044
32
-0.012584
13
-0.023260
23
0.003429
33
-0.017762
0
3DFACE
8
football_low_poly
10
-0.018058
20
0.006331
30
-0.022380
11
-0.022243
21
0.007949
31
-0.017762
12
-0.023260
22
0.003429
32
-0.017762
13
-0.018883
23
0.002731
33
-0.022380
0
3DFACE
8
football_low_poly
10
-0.012391
20
0.004457
30
-0.026225
11
-0.018058
21
0.006331
31
-0.022380
12
-0.018883
22
0.002731
32
-0.022380
13
-0.012957
23
0.001923
33
-0.026225
0
3DFACE
8
football_low_poly
10
-0.006826
20
0.002278
30
-0.028325
11
-0.012391
21
0.004457
31
-0.026225
12
-0.012957
22
0.001923
32
-0.026225
13
-0.007138
23
0.000983
33
-0.028325
0
3DFACE
8
football_low_poly
10
-0.006826
20
0.002278
30
-0.028325
11
-0.007138
21
0.000983
31
-0.028325
12
0.000000
22
-0.000000
32
-0.029204
13
0.000000
23
-0.000000
33
-0.029204
0
3DFACE
8
football_low_poly
10
0.007138
20
-0.000983
30
-0.028325
11
0.007138
21
0.000983
31
-0.028325
12
0.000000
22
-0.000000
32
-0.029204
13
0.000000
23
-0.000000
33
-0.029204
0
3DFACE
8
football_low_poly
10
0.007138
20
-0.000983
30
-0.028325
11
0.012957
21
-0.001923
31
-0.026225
12
0.012957
22
0.001923
32
-0.026225
13
0.007138
23
0.000983
33
-0.028325
0
3DFACE
8
football_low_poly
10
0.012957
20
-0.001923
30
-0.026225
11
0.018883
21
-0.002731
31
-0.022380
12
0.018883
22
0.002731
32
-0.022380
13
0.012957
23
0.001923
33
-0.026225
0
3DFACE
8
football_low_poly
10
0.018883
20
-0.002731
30
-0.022380
11
0.023260
21
-0.003429
31
-0.017762
12
0.023260
22
0.003429
32
-0.017762
13
0.018883
23
0.002731
33
-0.022380
0
3DFACE
8
football_low_poly
10
0.023260
20
-0.003429
30
-0.017762
11
0.027165
21
-0.004044
31
-0.012584
12
0.027165
22
0.004044
32
-0.012584
13
0.023260
23
0.003429
33
-0.017762
0
3DFACE
8
football_low_poly
10
0.027165
20
-0.004044
30
-0.012584
11
0.028904
21
-0.004526
31
-0.006641
12
0.028904
22
0.004526
32
-0.006641
13
0.027165
23
0.004044
33
-0.012584
0
3DFACE
8
football_low_poly
10
0.028904
20
-0.004526
30
-0.006641
11
0.030131
21
-0.004797
31
0.000000
12
0.030131
22
0.004797
32
0.000000
13
0.028904
23
0.004526
33
-0.006641
0
3DFACE
8
football_low_poly
10
-0.006043
20
-0.044237
30
-0.006641
11
-0.006299
21
-0.046884
31
0.000000
12
-0.000000
22
-0.048442
32
0.000000
13
0.000000
23
-0.045707
33
-0.006641
0
3DFACE
8
football_low_poly
10
-0.025170
20
0.018862
30
-0.006641
11
-0.026238
21
0.019991
31
0.000000
12
-0.028814
22
0.011120
32
0.000000
13
-0.027641
23
0.010492
33
-0.006641
0
3DFACE
8
football_low_poly
10
-0.023655
20
0.016853
30
-0.012584
11
-0.025170
21
0.018862
31
-0.006641
12
-0.027641
22
0.010492
32
-0.006641
13
-0.025978
23
0.009374
33
-0.012584
0
3DFACE
8
football_low_poly
10
-0.020255
20
0.014291
30
-0.017762
11
-0.023655
21
0.016853
31
-0.012584
12
-0.025978
22
0.009374
32
-0.012584
13
-0.022243
23
0.007949
33
-0.017762
0
3DFACE
8
football_low_poly
10
-0.016443
20
0.011382
30
-0.022380
11
-0.020255
21
0.014291
31
-0.017762
12
-0.022243
22
0.007949
32
-0.017762
13
-0.018058
23
0.006331
33
-0.022380
0
3DFACE
8
football_low_poly
10
-0.011283
20
0.008012
30
-0.026225
11
-0.016443
21
0.011382
31
-0.022380
12
-0.018058
22
0.006331
32
-0.022380
13
-0.012391
23
0.004457
33
-0.026225
0
3DFACE
8
football_low_poly
10
-0.006216
20
0.004096
30
-0.028325
11
-0.011283
21
0.008012
31
-0.026225
12
-0.012391
22
0.004457
32
-0.026225
13
-0.006826
23
0.002278
33
-0.028325
0
3DFACE
8
football_low_poly
10
-0.006216
20
0.004096
30
-0.028325
11
-0.006826
21
0.002278
31
-0.028325
12
0.000000
22
-0.000000
32
-0.029204
13
0.000000
23
-0.000000
33
-0.029204
0
3DFACE
8
football_low_poly
10
0.007138
20
0.000983
30
-0.028325
11
0.006826
21
0.002278
31
-0.028325
12
0.000000
22
-0.000000
32
-0.029204
13
0.000000
23
-0.000000
33
-0.029204
0
3DFACE
8
football_low_poly
10
0.007138
20
0.000983
30
-0.028325
11
0.012957
21
0.001923
31
-0.026225
12
0.012391
22
0.004457
32
-0.026225
13
0.006826
23
0.002278
33
-0.028325
0
3DFACE
8
football_low_poly
10
0.012957
20
0.001923
30
-0.026225
11
0.018883
21
0.002731
31
-0.022380
12
0.018058
22
0.006331
32
-0.022380
13
0.012391
23
0.004457
33
-0.026225
0
3DFACE
8
football_low_poly
10
0.018883
20
0.002731
30
-0.022380
11
0.023260
21
0.003429
31
-0.017762
12
0.022243
22
0.007949
32
-0.017762
13
0.018058
23
0.006331
33
-0.022380
0
3DFACE
8
football_low_poly
10
0.023260
20
0.003429
30
-0.017762
11
0.027165
21
0.004044
31
-0.012584
12
0.025978
22
0.009374
32
-0.012584
13
0.022243
23
0.007949
33
-0.017762
0
3DFACE
8
football_low_poly
10
0.027165
20
0.004044
30
-0.012584
11
0.028904
21
0.004526
31
-0.006641
12
0.027641
22
0.010492
32
-0.006641
13
0.025978
23
0.009374
33
-0.012584
0
3DFACE
8
football_low_poly
10
0.028904
20
0.004526
30
-0.006641
11
0.030131
21
0.004797
31
0.000000
12
0.028814
22
0.011120
32
0.000000
13
0.027641
23
0.010492
33
-0.006641
0
3DFACE
8
football_low_poly
10
-0.005679
20
-0.039524
30
-0.012584
11
-0.006043
21
-0.044237
31
-0.006641
12
0.000000
22
-0.045707
32
-0.006641
13
-0.000000
23
-0.040838
33
-0.012584
0
3DFACE
8
football_low_poly
10
-0.021598
20
0.026795
30
-0.006641
11
-0.022515
21
0.028398
31
0.000000
12
-0.026238
22
0.019991
32
0.000000
13
-0.025170
23
0.018862
33
-0.006641
0
3DFACE
8
football_low_poly
10
-0.020299
20
0.023940
30
-0.012584
11
-0.021598
21
0.026795
31
-0.006641
12
-0.025170
22
0.018862
32
-0.006641
13
-0.023655
23
0.016853
33
-0.012584
0
3DFACE
8
football_low_poly
10
-0.017381
20
0.020301
30
-0.017762
11
-0.020299
21
0.023940
31
-0.012584
12
-0.023655
22
0.016853
32
-0.012584
13
-0.020255
23
0.014291
33
-0.017762
0
3DFACE
8
football_low_poly
10
-0.014110
20
0.016168
30
-0.022380
11
-0.017381
21
0.020301
31
-0.017762
12
-0.020255
22
0.014291
32
-0.017762
13
-0.016443
23
0.011382
33
-0.022380
0
3DFACE
8
football_low_poly
10
-0.009682
20
0.011382
30
-0.026225
11
-0.014110
21
0.016168
31
-0.022380
12
-0.016443
22
0.011382
32
-0.022380
13
-0.011283
23
0.008012
33
-0.026225
0
3DFACE
8
football_low_poly
10
-0.005334
20
0.005818
30
-0.028325
11
-0.009682
21
0.011382
31
-0.026225
12
-0.011283
22
0.008012
32
-0.026225
13
-0.006216
23
0.004096
33
-0.028325
0
3DFACE
8
football_low_poly
10
-0.005334
20
0.005818
30
-0.028325
11
-0.006216
21
0.004096
31
-0.028325
12
0.000000
22
-0.000000
32
-0.029204
13
0.000000
23
-0.000000
33
-0.029204
0
3DFACE
8
football_low_poly
10
0.006826
20
0.002278
30
-0.028325
11
0.006216
21
0.004096
31
-0.028325
12
0.000000
22
-0.000000
32
-0.029204
13
0.000000
23
-0.000000
33
-0.029204
0
3DFACE
8
football_low_poly
10
0.006826
20
0.002278
30
-0.028325
11
0.012391
21
0.004457
31
-0.026225
12
0.011283
22
0.008012
32
-0.026225
13
0.006216
23
0.004096
33
-0.028325
0
3DFACE
8
football_low_poly
10
0.012391
20
0.004457
30
-0.026225
11
0.018058
21
0.006331
31
-0.022380
12
0.016443
22
0.011382
32
-0.022380
13
0.011283
23
0.008012
33
-0.026225
0
3DFACE
8
football_low_poly
10
0.018058
20
0.006331
30
-0.022380
11
0.022243
21
0.007949
31
-0.017762
12
0.020255
22
0.014291
32
-0.017762
13
0.016443
23
0.011382
33
-0.022380
0
3DFACE
8
football_low_poly
10
0.022243
20
0.007949
30
-0.017762
11
0.025978
21
0.009374
31
-0.012584
12
0.023655
22
0.016853
32
-0.012584
13
0.020255
23
0.014291
33
-0.017762
0
3DFACE
8
football_low_poly
10
0.025978
20
0.009374
30
-0.012584
11
0.027641
21
0.010492
31
-0.006641
12
0.025170
22
0.018862
32
-0.006641
13
0.023655
23
0.016853
33
-0.012584
0
3DFACE
8
football_low_poly
10
0.027641
20
0.010492
30
-0.006641
11
0.028814
21
0.011120
31
0.000000
12
0.026238
22
0.019991
32
0.000000
13
0.025170
23
0.018862
33
-0.006641
0
3DFACE
8
football_low_poly
10
-0.004863
20
-0.033515
30
-0.017762
11
-0.005679
21
-0.039524
31
-0.012584
12
-0.000000
22
-0.040838
32
-0.012584
13
-0.000000
23
-0.034629
33
-0.017762
0
3DFACE
8
football_low_poly
10
-0.017083
20
0.033539
30
-0.006641
11
-0.017808
21
0.035545
31
0.000000
12
-0.022515
22
0.028398
32
0.000000
13
-0.021598
23
0.026795
33
-0.006641
0
3DFACE
8
football_low_poly
10
-0.016055
20
0.029965
30
-0.012584
11
-0.017083
21
0.033539
31
-0.006641
12
-0.021598
22
0.026795
32
-0.006641
13
-0.020299
23
0.023940
33
-0.012584
0
3DFACE
8
football_low_poly
10
-0.013747
20
0.025410
30
-0.017762
11
-0.016055
21
0.029965
31
-0.012584
12
-0.020299
22
0.023940
32
-0.012584
13
-0.017381
23
0.020301
33
-0.017762
0
3DFACE
8
football_low_poly
10
-0.011160
20
0.020238
30
-0.022380
11
-0.013747
21
0.025410
31
-0.017762
12
-0.017381
22
0.020301
32
-0.017762
13
-0.014110
23
0.016168
33
-0.022380
0
3DFACE
8
football_low_poly
10
-0.007658
20
0.014246
30
-0.026225
11
-0.011160
21
0.020238
31
-0.022380
12
-0.014110
22
0.016168
32
-0.022380
13
-0.009682
23
0.011382
33
-0.026225
0
3DFACE
8
football_low_poly
10
-0.004219
20
0.007282
30
-0.028325
11
-0.007658
21
0.014246
31
-0.026225
12
-0.009682
22
0.011382
32
-0.026225
13
-0.005334
23
0.005818
33
-0.028325
0
3DFACE
8
football_low_poly
10
-0.004219
20
0.007282
30
-0.028325
11
-0.005334
21
0.005818
31
-0.028325
12
0.000000
22
-0.000000
32
-0.029204
13
0.000000
23
-0.000000
33
-0.029204
0
3DFACE
8
football_low_poly
10
0.006216
20
0.004096
30
-0.028325
11
0.005334
21
0.005818
31
-0.028325
12
0.000000
22
-0.000000
32
-0.029204
13
0.000000
23
-0.000000
33
-0.029204
0
3DFACE
8
football_low_poly
10
0.006216
20
0.004096
30
-0.028325
11
0.011283
21
0.008012
31
-0.026225
12
0.009682
22
0.011382
32
-0.026225
13
0.005334
23
0.005818
33
-0.028325
0
3DFACE
8
football_low_poly
10
0.011283
20
0.008012
30
-0.026225
11
0.016443
21
0.011382
31
-0.022380
12
0.014110
22
0.016168
32
-0.022380
13
0.009682
23
0.011382
33
-0.026225
0
3DFACE
8
football_low_poly
10
0.016443
20
0.011382
30
-0.022380
11
0.020255
21
0.014291
31
-0.017762
12
0.017381
22
0.020301
32
-0.017762
13
0.014110
23
0.016168
33
-0.022380
0
3DFACE
8
football_low_poly
10
0.020255
20
0.014291
30
-0.017762
11
0.023655
21
0.016853
31
-0.012584
12
0.020299
22
0.023940
32
-0.012584
13
0.017381
23
0.020301
33
-0.017762
0
3DFACE
8
football_low_poly
10
0.023655
20
0.016853
30
-0.012584
11
0.025170
21
0.018862
31
-0.006641
12
0.021598
22
0.026795
32
-0.006641
13
0.020299
23
0.023940
33
-0.012584
0
3DFACE
8
football_low_poly
10
0.025170
20
0.018862
30
-0.006641
11
0.026238
21
0.019991
31
0.000000
12
0.022515
22
0.028398
32
0.000000
13
0.021598
23
0.026795
33
-0.006641
0
3DFACE
8
football_low_poly
10
-0.003948
20
-0.026693
30
-0.022380
11
-0.004863
21
-0.033515
31
-0.017762
12
-0.000000
22
-0.034629
32
-0.017762
13
-0.000000
23
-0.027581
33
-0.022380
0
3DFACE
8
football_low_poly
10
-0.011821
20
0.039781
30
-0.006641
11
-0.012323
21
0.042161
31
0.000000
12
-0.017808
22
0.035545
32
0.000000
13
-0.017083
23
0.033539
33
-0.006641
0
3DFACE
8
football_low_poly
10
-0.011110
20
0.035543
30
-0.012584
11
-0.011821
21
0.039781
31
-0.006641
12
-0.017083
22
0.033539
32
-0.006641
13
-0.016055
23
0.029965
33
-0.012584
0
3DFACE
8
football_low_poly
10
-0.009513
20
0.030139
30
-0.017762
11
-0.011110
21
0.035543
31
-0.012584
12
-0.016055
22
0.029965
32
-0.012584
13
-0.013747
23
0.025410
33
-0.017762
0
3DFACE
8
football_low_poly
10
-0.007723
20
0.024005
30
-0.022380
11
-0.009513
21
0.030139
31
-0.017762
12
-0.013747
22
0.025410
32
-0.017762
13
-0.011160
23
0.020238
33
-0.022380
0
3DFACE
8
football_low_poly
10
-0.005299
20
0.016898
30
-0.026225
11
-0.007723
21
0.024005
31
-0.022380
12
-0.011160
22
0.020238
32
-0.022380
13
-0.007658
23
0.014246
33
-0.026225
0
3DFACE
8
football_low_poly
10
-0.002919
20
0.008638
30
-0.028325
11
-0.005299
21
0.016898
31
-0.026225
12
-0.007658
22
0.014246
32
-0.026225
13
-0.004219
23
0.007282
33
-0.028325
0
3DFACE
8
football_low_poly
10
-0.002919
20
0.008638
30
-0.028325
11
-0.004219
21
0.007282
31
-0.028325
12
0.000000
22
-0.000000
32
-0.029204
13
0.000000
23
-0.000000
33
-0.029204
0
3DFACE
8
football_low_poly
10
0.005334
20
0.005818
30
-0.028325
11
0.004219
21
0.007282
31
-0.028325
12
0.000000
22
-0.000000
32
-0.029204
13
0.000000
23
-0.000000
33
-0.029204
0
3DFACE
8
football_low_poly
10
0.005334
20
0.005818
30
-0.028325
11
0.009682
21
0.011382
31
-0.026225
12
0.007658
22
0.014246
32
-0.026225
13
0.004219
23
0.007282
33
-0.028325
0
3DFACE
8
football_low_poly
10
0.009682
20
0.011382
30
-0.026225
11
0.014110
21
0.016168
31
-0.022380
12
0.011160
22
0.020238
32
-0.022380
13
0.007658
23
0.014246
33
-0.026225
0
3DFACE
8
football_low_poly
10
0.014110
20
0.016168
30
-0.022380
11
0.017381
21
0.020301
31
-0.017762
12
0.013747
22
0.025410
32
-0.017762
13
0.011160
23
0.020238
33
-0.022380
0
3DFACE
8
football_low_poly
10
0.017381
20
0.020301
30
-0.017762
11
0.020299
21
0.023940
31
-0.012584
12
0.016055
22
0.029965
32
-0.012584
13
0.013747
23
0.025410
33
-0.017762
0
3DFACE
8
football_low_poly
10
0.020299
20
0.023940
30
-0.012584
11
0.021598
21
0.026795
31
-0.006641
12
0.017083
22
0.033539
32
-0.006641
13
0.016055
23
0.029965
33
-0.012584
0
3DFACE
8
football_low_poly
10
0.021598
20
0.026795
30
-0.006641
11
0.022515
21
0.028398
31
0.000000
12
0.017808
22
0.035545
32
0.000000
13
0.017083
23
0.033539
33
-0.006641
0
3DFACE
8
football_low_poly
10
-0.002709
20
-0.018791
30
-0.026225
11
-0.003948
21
-0.026693
31
-0.022380
12
-0.000000
22
-0.027581
32
-0.022380
13
0.000000
23
-0.019416
33
-0.026225
0
3DFACE
8
football_low_poly
10
-0.006043
20
0.044237
30
-0.006641
11
-0.006299
21
0.046884
31
0.000000
12
-0.012323
22
0.042161
32
0.000000
13
-0.011821
23
0.039781
33
-0.006641
0
3DFACE
8
football_low_poly
10
-0.005679
20
0.039524
30
-0.012584
11
-0.006043
21
0.044237
31
-0.006641
12
-0.011821
22
0.039781
32
-0.006641
13
-0.011110
23
0.035543
33
-0.012584
0
3DFACE
8
football_low_poly
10
-0.004863
20
0.033515
30
-0.017762
11
-0.005679
21
0.039524
31
-0.012584
12
-0.011110
22
0.035543
32
-0.012584
13
-0.009513
23
0.030139
33
-0.017762
0
3DFACE
8
football_low_poly
10
-0.003948
20
0.026693
30
-0.022380
11
-0.004863
21
0.033515
31
-0.017762
12
-0.009513
22
0.030139
32
-0.017762
13
-0.007723
23
0.024005
33
-0.022380
0
3DFACE
8
football_low_poly
10
-0.002709
20
0.018791
30
-0.026225
11
-0.003948
21
0.026693
31
-0.022380
12
-0.007723
22
0.024005
32
-0.022380
13
-0.005299
23
0.016898
33
-0.026225
0
3DFACE
8
football_low_poly
10
-0.001492
20
0.009605
30
-0.028325
11
-0.002709
21
0.018791
31
-0.026225
12
-0.005299
22
0.016898
32
-0.026225
13
-0.002919
23
0.008638
33
-0.028325
0
3DFACE
8
football_low_poly
10
-0.001492
20
0.009605
30
-0.028325
11
-0.002919
21
0.008638
31
-0.028325
12
0.000000
22
-0.000000
32
-0.029204
13
0.000000
23
-0.000000
33
-0.029204
0
3DFACE
8
football_low_poly
10
0.004219
20
0.007282
30
-0.028325
11
0.002919
21
0.008638
31
-0.028325
12
0.000000
22
-0.000000
32
-0.029204
13
0.000000
23
-0.000000
33
-0.029204
0
3DFACE
8
football_low_poly
10
0.004219
20
0.007282
30
-0.028325
11
0.007658
21
0.014246
31
-0.026225
12
0.005299
22
0.016898
32
-0.026225
13
0.002919
23
0.008638
33
-0.028325
0
3DFACE
8
football_low_poly
10
0.007658
20
0.014246
30
-0.026225
11
0.011160
21
0.020238
31
-0.022380
12
0.007723
22
0.024005
32
-0.022380
13
0.005299
23
0.016898
33
-0.026225
0
3DFACE
8
football_low_poly
10
0.011160
20
0.020238
30
-0.022380
11
0.013747
21
0.025410
31
-0.017762
12
0.009513
22
0.030139
32
-0.017762
13
0.007723
23
0.024005
33
-0.022380
0
3DFACE
8
football_low_poly
10
0.013747
20
0.025410
30
-0.017762
11
0.016055
21
0.029965
31
-0.012584
12
0.011110
22
0.035543
32
-0.012584
13
0.009513
23
0.030139
33
-0.017762
0
3DFACE
8
football_low_poly
10
0.016055
20
0.029965
30
-0.012584
11
0.017083
21
0.033539
31
-0.006641
12
0.011821
22
0.039781
32
-0.006641
13
0.011110
23
0.035543
33
-0.012584
0
3DFACE
8
football_low_poly
10
0.017083
20
0.033539
30
-0.006641
11
0.017808
21
0.035545
31
0.000000
12
0.012323
22
0.042161
32
0.000000
13
0.011821
23
0.039781
33
-0.006641
0
3DFACE
8
football_low_poly
10
-0.001492
20
-0.009605
30
-0.028325
11
-0.002709
21
-0.018791
31
-0.026225
12
0.000000
22
-0.019416
32
-0.026225
13
0.000000
23
-0.009925
33
-0.028325
0
3DFACE
8
football_low_poly
10
-0.000000
20
0.045707
30
-0.006641
11
-0.000000
21
0.048442
31
0.000000
12
-0.006299
22
0.046884
32
0.000000
13
-0.006043
23
0.044237
33
-0.006641
0
3DFACE
8
football_low_poly
10
-0.000000
20
0.040838
30
-0.012584
11
-0.000000
21
0.045707
31
-0.006641
12
-0.006043
22
0.044237
32
-0.006641
13
-0.005679
23
0.039524
33
-0.012584
0
3DFACE
8
football_low_poly
10
-0.000000
20
0.034629
30
-0.017762
11
-0.000000
21
0.040838
31
-0.012584
12
-0.005679
22
0.039524
32
-0.012584
13
-0.004863
23
0.033515
33
-0.017762
0
3DFACE
8
football_low_poly
10
-0.000000
20
0.027581
30
-0.022380
11
-0.000000
21
0.034629
31
-0.017762
12
-0.004863
22
0.033515
32
-0.017762
13
-0.003948
23
0.026693
33
-0.022380
0
3DFACE
8
football_low_poly
10
-0.000000
20
0.019416
30
-0.026225
11
-0.000000
21
0.027581
31
-0.022380
12
-0.003948
22
0.026693
32
-0.022380
13
-0.002709
23
0.018791
33
-0.026225
0
3DFACE
8
football_low_poly
10
-0.000000
20
0.009925
30
-0.028325
11
-0.000000
21
0.019416
31
-0.026225
12
-0.002709
22
0.018791
32
-0.026225
13
-0.001492
23
0.009605
33
-0.028325
0
3DFACE
8
football_low_poly
10
-0.000000
20
0.009925
30
-0.028325
11
-0.001492
21
0.009605
31
-0.028325
12
0.000000
22
-0.000000
32
-0.029204
13
0.000000
23
-0.000000
33
-0.029204
0
3DFACE
8
football_low_poly
10
0.002919
20
0.008638
30
-0.028325
11
0.001492
21
0.009605
31
-0.028325
12
0.000000
22
-0.000000
32
-0.029204
13
0.000000
23
-0.000000
33
-0.029204
0
3DFACE
8
football_low_poly
10
0.002919
20
0.008638
30
-0.028325
11
0.005299
21
0.016898
31
-0.026225
12
0.002709
22
0.018791
32
-0.026225
13
0.001492
23
0.009605
33
-0.028325
0
3DFACE
8
football_low_poly
10
0.005299
20
0.016898
30
-0.026225
11
0.007723
21
0.024005
31
-0.022380
12
0.003948
22
0.026693
32
-0.022380
13
0.002709
23
0.018791
33
-0.026225
0
3DFACE
8
football_low_poly
10
0.007723
20
0.024005
30
-0.022380
11
0.009513
21
0.030139
31
-0.017762
12
0.004863
22
0.033515
32
-0.017762
13
0.003948
23
0.026693
33
-0.022380
0
3DFACE
8
football_low_poly
10
0.009513
20
0.030139
30
-0.017762
11
0.011110
21
0.035543
31
-0.012584
12
0.005679
22
0.039524
32
-0.012584
13
0.004863
23
0.033515
33
-0.017762
0
3DFACE
8
football_low_poly
10
0.011110
20
0.035543
30
-0.012584
11
0.011821
21
0.039781
31
-0.006641
12
0.006043
22
0.044237
32
-0.006641
13
0.005679
23
0.039524
33
-0.012584
0
3DFACE
8
football_low_poly
10
0.011821
20
0.039781
30
-0.006641
11
0.012323
21
0.042161
31
0.000000
12
0.006299
22
0.046884
32
0.000000
13
0.006043
23
0.044237
33
-0.006641
0
3DFACE
8
football_low_poly
10
-0.001492
20
-0.009605
30
-0.028325
11
0.000000
21
-0.009925
31
-0.028325
12
0.000000
22
-0.000000
32
-0.029204
13
0.000000
23
-0.000000
33
-0.029204
0
3DFACE
8
football_low_poly
10
0.006043
20
0.044237
30
-0.006641
11
0.006299
21
0.046884
31
0.000000
12
-0.000000
22
0.048442
32
0.000000
13
-0.000000
23
0.045707
33
-0.006641
0
3DFACE
8
football_low_poly
10
0.005679
20
0.039524
30
-0.012584
11
0.006043
21
0.044237
31
-0.006641
12
-0.000000
22
0.045707
32
-0.006641
13
-0.000000
23
0.040838
33
-0.012584
0
3DFACE
8
football_low_poly
10
0.004863
20
0.033515
30
-0.017762
11
0.005679
21
0.039524
31
-0.012584
12
-0.000000
22
0.040838
32
-0.012584
13
-0.000000
23
0.034629
33
-0.017762
0
3DFACE
8
football_low_poly
10
0.003948
20
0.026693
30
-0.022380
11
0.004863
21
0.033515
31
-0.017762
12
-0.000000
22
0.034629
32
-0.017762
13
-0.000000
23
0.027581
33
-0.022380
0
3DFACE
8
football_low_poly
10
0.002709
20
0.018791
30
-0.026225
11
0.003948
21
0.026693
31
-0.022380
12
-0.000000
22
0.027581
32
-0.022380
13
-0.000000
23
0.019416
33
-0.026225
0
3DFACE
8
football_low_poly
10
0.001492
20
0.009605
30
-0.028325
11
0.002709
21
0.018791
31
-0.026225
12
-0.000000
22
0.019416
32
-0.026225
13
-0.000000
23
0.009925
33
-0.028325
0
3DFACE
8
football_low_poly
10
0.001492
20
0.009605
30
-0.028325
11
-0.000000
21
0.009925
31
-0.028325
12
0.000000
22
-0.000000
32
-0.029204
13
0.000000
23
-0.000000
33
-0.029204
0
3DFACE
8
football_low_poly
10
0.002806
20
0.009090
30
0.028750
11
0.002831
21
0.008431
31
0.028908
12
0.002148
22
0.008462
32
0.029156
13
0.002168
23
0.009138
33
0.028977
0
3DFACE
8
football_low_poly
10
0.001344
20
0.009153
30
0.029088
11
0.002168
21
0.009138
31
0.028977
12
0.002148
22
0.008462
32
0.029156
13
0.001311
23
0.008476
33
0.029267
0
3DFACE
8
football_low_poly
10
0.001344
20
0.007789
30
0.029352
11
0.001311
21
0.008476
31
0.029267
12
0.002148
22
0.008462
32
0.029156
13
0.002168
23
0.007775
33
0.029241
0
3DFACE
8
football_low_poly
10
-0.001344
20
0.018891
30
0.026789
11
-0.001311
21
0.019548
31
0.026570
12
0.000000
22
0.019558
32
0.026606
13
0.000000
23
0.018901
33
0.026824
0
3DFACE
8
football_low_poly
10
0.001344
20
0.018891
30
0.026789
11
0.000000
21
0.018901
31
0.026824
12
0.000000
22
0.019558
32
0.026606
13
0.001311
23
0.019548
33
0.026570
0
3DFACE
8
football_low_poly
10
0.001344
20
0.020185
30
0.026261
11
0.001311
21
0.019548
31
0.026570
12
0.000000
22
0.019558
32
0.026606
13
0.000000
23
0.020194
33
0.026296
0
3DFACE
8
football_low_poly
10
-0.001344
20
0.020185
30
0.026261
11
0.000000
21
0.020194
31
0.026296
12
0.000000
22
0.019558
32
0.026606
13
-0.001311
23
0.019548
33
0.026570
0
3DFACE
8
football_low_poly
10
-0.001344
20
0.018891
30
0.026789
11
-0.002168
21
0.018864
31
0.026683
12
-0.002148
22
0.019521
32
0.026463
13
-0.001311
23
0.019548
33
0.026570
0
3DFACE
8
football_low_poly
10
-0.001344
20
0.020185
30
0.026261
11
-0.001311
21
0.019548
31
0.026570
12
-0.002148
22
0.019521
32
0.026463
13
-0.002168
23
0.020157
33
0.026155
0
3DFACE
8
football_low_poly
10
-0.002807
20
0.020087
30
0.025938
11
-0.002168
21
0.020157
31
0.026155
12
-0.002148
22
0.019521
32
0.026463
13
-0.002831
23
0.019465
33
0.026224
0
3DFACE
8
football_low_poly
10
-0.002807
20
0.018829
30
0.026452
11
-0.002831
21
0.019465
31
0.026224
12
-0.002148
22
0.019521
32
0.026463
13
-0.002168
23
0.018864
33
0.026683
0
3DFACE
8
football_low_poly
10
0.004173
20
0.018760
30
0.025635
11
0.003571
21
0.018796
31
0.026046
12
0.003681
22
0.019369
32
0.025791
13
0.004381
23
0.019274
33
0.025350
0
3DFACE
8
football_low_poly
10
0.004173
20
0.019815
30
0.025204
11
0.004381
21
0.019274
31
0.025350
12
0.003681
22
0.019369
32
0.025791
13
0.003571
23
0.019950
33
0.025575
0
3DFACE
8
football_low_poly
10
0.002807
20
0.020087
30
0.025938
11
0.003571
21
0.019950
31
0.025575
12
0.003681
22
0.019369
32
0.025791
13
0.002831
23
0.019465
33
0.026224
0
3DFACE
8
football_low_poly
10
0.002807
20
0.018829
30
0.026452
11
0.002831
21
0.019465
31
0.026224
12
0.003681
22
0.019369
32
0.025791
13
0.003571
23
0.018796
33
0.026046
0
3DFACE
8
football_low_poly
10
0.004173
20
0.013283
30
0.027143
11
0.003571
21
0.013292
31
0.027556
12
0.003681
22
0.013890
32
0.027381
13
0.004381
23
0.013822
33
0.026929
0
3DFACE
8
football_low_poly
10
0.004173
20
0.014382
30
0.026857
11
0.004381
21
0.013822
31
0.026929
12
0.003681
22
0.013890
32
0.027381
13
0.003571
23
0.014494
33
0.027243
0
3DFACE
8
football_low_poly
10
0.002807
20
0.014607
30
0.027622
11
0.003571
21
0.014494
31
0.027243
12
0.003681
22
0.013890
32
0.027381
13
0.002831
23
0.013957
33
0.027823
0
3DFACE
8
football_low_poly
10
0.002807
20
0.013298
30
0.027964
11
0.002831
21
0.013957
31
0.027823
12
0.003681
22
0.013890
32
0.027381
13
0.003571
23
0.013292
33
0.027556
0
3DFACE
8
football_low_poly
10
-0.001344
20
0.002244
30
0.029947
11
-0.002168
21
0.002234
31
0.029836
12
-0.002148
22
0.002923
32
0.029794
13
-0.001311
23
0.002933
33
0.029906
0
3DFACE
8
football_low_poly
10
-0.001344
20
0.003615
30
0.029770
11
-0.001311
21
0.002933
31
0.029906
12
-0.002148
22
0.002923
32
0.029794
13
-0.002168
23
0.003605
33
0.029659
0
3DFACE
8
football_low_poly
10
-0.002806
20
0.003565
30
0.029429
11
-0.002168
21
0.003605
31
0.029659
12
-0.002148
22
0.002923
32
0.029794
13
-0.002831
23
0.002901
33
0.029545
0
3DFACE
8
football_low_poly
10
-0.002806
20
0.002232
30
0.029601
11
-0.002831
21
0.002901
31
0.029545
12
-0.002148
22
0.002923
32
0.029794
13
-0.002168
23
0.002234
33
0.029836
0
3DFACE
8
football_low_poly
10
0.002807
20
-0.020103
30
0.025938
11
0.003571
21
-0.019963
31
0.025575
12
0.003329
22
-0.020189
32
0.025529
13
0.002773
23
-0.020294
33
0.025746
0
3DFACE
8
football_low_poly
10
0.002780
20
-0.020249
30
0.025569
11
0.002773
21
-0.020294
31
0.025746
12
0.003329
22
-0.020189
32
0.025529
13
0.003530
23
-0.020116
33
0.025329
0
3DFACE
8
football_low_poly
10
0.004173
20
0.002263
30
0.028784
11
0.003530
21
0.002036
31
0.029046
12
0.003329
22
0.002029
32
0.029267
13
0.003571
23
0.002250
33
0.029195
0
3DFACE
8
football_low_poly
10
0.002780
20
0.001988
30
0.029334
11
0.002773
21
0.002001
31
0.029519
12
0.003329
22
0.002029
32
0.029267
13
0.003530
23
0.002036
33
0.029046
0
3DFACE
8
football_low_poly
10
0.002806
20
0.002232
30
0.029601
11
0.003571
21
0.002250
31
0.029195
12
0.003329
22
0.002029
32
0.029267
13
0.002773
23
0.002001
33
0.029519
0
3DFACE
8
football_low_poly
10
0.004173
20
-0.019825
30
0.025204
11
0.003530
21
-0.020116
31
0.025329
12
0.003329
22
-0.020189
32
0.025529
13
0.003571
23
-0.019963
33
0.025575
0
3DFACE
8
football_low_poly
10
0.002806
20
-0.002234
30
0.029601
11
0.002168
21
-0.002236
31
0.029836
12
0.002229
22
-0.001998
32
0.029726
13
0.002773
23
-0.002003
33
0.029519
0
3DFACE
8
football_low_poly
10
0.001344
20
-0.002246
30
0.029947
11
0.001443
21
-0.002007
31
0.029834
12
0.002229
22
-0.001998
32
0.029726
13
0.002168
23
-0.002236
33
0.029836
0
3DFACE
8
football_low_poly
10
0.001497
20
-0.001990
30
0.029607
11
0.002291
21
-0.001982
31
0.029523
12
0.002229
22
-0.001998
32
0.029726
13
0.001443
23
-0.002007
33
0.029834
0
3DFACE
8
football_low_poly
10
0.002780
20
-0.001991
30
0.029334
11
0.002773
21
-0.002003
31
0.029519
12
0.002229
22
-0.001998
32
0.029726
13
0.002291
23
-0.001982
33
0.029523
0
3DFACE
8
football_low_poly
10
0.002780
20
0.014780
30
0.027274
11
0.003530
21
0.014663
31
0.027019
12
0.003329
22
0.014722
32
0.027227
13
0.002773
23
0.014810
33
0.027456
0
3DFACE
8
football_low_poly
10
0.002807
20
0.014607
30
0.027622
11
0.002773
21
0.014810
31
0.027456
12
0.003329
22
0.014722
32
0.027227
13
0.003571
23
0.014494
33
0.027243
0
3DFACE
8
football_low_poly
10
0.004173
20
0.014382
30
0.026857
11
0.003571
21
0.014494
31
0.027243
12
0.003329
22
0.014722
32
0.027227
13
0.003530
23
0.014663
33
0.027019
0
3DFACE
8
football_low_poly
10
-0.002780
20
0.013036
30
0.027729
11
-0.003530
21
0.013069
31
0.027435
12
-0.003329
22
0.013076
32
0.027656
13
-0.002773
23
0.013062
33
0.027912
0
3DFACE
8
football_low_poly
10
-0.002807
20
0.013298
30
0.027964
11
-0.002773
21
0.013062
31
0.027912
12
-0.003329
22
0.013076
32
0.027656
13
-0.003571
23
0.013292
33
0.027556
0
3DFACE
8
football_low_poly
10
-0.004173
20
0.013283
30
0.027143
11
-0.003571
21
0.013292
31
0.027556
12
-0.003329
22
0.013076
32
0.027656
13
-0.003530
23
0.013069
33
0.027435
0
3DFACE
8
football_low_poly
10
-0.002780
20
-0.003761
30
0.029105
11
-0.002773
21
-0.003778
31
0.029290
12
-0.002229
22
-0.003820
32
0.029490
13
-0.002291
23
-0.003804
33
0.029287
0
3DFACE
8
football_low_poly
10
-0.001497
20
-0.003812
30
0.029372
11
-0.002291
21
-0.003804
31
0.029287
12
-0.002229
22
-0.003820
32
0.029490
13
-0.001443
23
-0.003829
33
0.029599
0
3DFACE
8
football_low_poly
10
-0.001344
20
-0.003612
30
0.029770
11
-0.001443
21
-0.003829
31
0.029599
12
-0.002229
22
-0.003820
32
0.029490
13
-0.002168
23
-0.003603
33
0.029659
0
3DFACE
8
football_low_poly
10
-0.002806
20
-0.003563
30
0.029429
11
-0.002168
21
-0.003603
31
0.029659
12
-0.002229
22
-0.003820
32
0.029490
13
-0.002773
23
-0.003778
33
0.029290
0
3DFACE
8
football_low_poly
10
-0.002806
20
0.003565
30
0.029429
11
-0.003571
21
0.003473
31
0.029038
12
-0.003329
22
0.003705
32
0.029051
13
-0.002773
23
0.003781
33
0.029290
0
3DFACE
8
football_low_poly
10
-0.002780
20
0.003764
30
0.029105
11
-0.002773
21
0.003781
31
0.029290
12
-0.003329
22
0.003705
32
0.029051
13
-0.003530
23
0.003659
33
0.028837
0
3DFACE
8
football_low_poly
10
-0.004173
20
0.003382
30
0.028640
11
-0.003530
21
0.003659
31
0.028837
12
-0.003329
22
0.003705
32
0.029051
13
-0.003571
23
0.003473
33
0.029038
0
3DFACE
8
football_low_poly
10
-0.002780
20
0.007510
30
0.028756
11
-0.003530
21
0.007551
31
0.028465
12
-0.003329
22
0.007551
32
0.028686
13
-0.002773
23
0.007530
33
0.028940
0
3DFACE
8
football_low_poly
10
-0.002806
20
0.007764
30
0.029007
11
-0.002773
21
0.007530
31
0.028940
12
-0.003329
22
0.007551
32
0.028686
13
-0.003571
23
0.007770
33
0.028600
0
3DFACE
8
football_low_poly
10
-0.004173
20
0.007773
30
0.028188
11
-0.003571
21
0.007770
31
0.028600
12
-0.003329
22
0.007551
32
0.028686
13
-0.003530
23
0.007551
33
0.028465
0
3DFACE
8
football_low_poly
10
0.002806
20
0.007764
30
0.029007
11
0.003571
21
0.007770
31
0.028600
12
0.003329
22
0.007551
32
0.028686
13
0.002773
23
0.007530
33
0.028940
0
3DFACE
8
football_low_poly
10
0.002780
20
0.007510
30
0.028756
11
0.002773
21
0.007530
31
0.028940
12
0.003329
22
0.007551
32
0.028686
13
0.003530
23
0.007551
33
0.028465
0
3DFACE
8
football_low_poly
10
0.004173
20
0.007773
30
0.028188
11
0.003530
21
0.007551
31
0.028465
12
0.003329
22
0.007551
32
0.028686
13
0.003571
23
0.007770
33
0.028600
0
3DFACE
8
football_low_poly
10
0.002780
20
0.003764
30
0.029105
11
0.003530
21
0.003659
31
0.028837
12
0.003329
22
0.003705
32
0.029051
13
0.002773
23
0.003781
33
0.029290
0
3DFACE
8
football_low_poly
10
0.001344
20
-0.003612
30
0.029770
11
0.002168
21
-0.003603
31
0.029659
12
0.002229
22
-0.003820
32
0.029490
13
0.001443
23
-0.003829
33
0.029599
0
3DFACE
8
football_low_poly
10
0.002806
20
-0.003563
30
0.029429
11
0.002773
21
-0.003778
31
0.029290
12
0.002229
22
-0.003820
32
0.029490
13
0.002168
23
-0.003603
33
0.029659
0
3DFACE
8
football_low_poly
10
0.002780
20
-0.003761
30
0.029105
11
0.002291
21
-0.003804
31
0.029287
12
0.002229
22
-0.003820
32
0.029490
13
0.002773
23
-0.003778
33
0.029290
0
3DFACE
8
football_low_poly
10
0.001497
20
-0.003812
30
0.029372
11
0.001443
21
-0.003829
31
0.029599
12
0.002229
22
-0.003820
32
0.029490
13
0.002291
23
-0.003804
33
0.029287
0
3DFACE
8
football_low_poly
10
0.002806
20
0.003565
30
0.029429
11
0.002773
21
0.003781
31
0.029290
12
0.003329
22
0.003705
32
0.029051
13
0.003571
23
0.003473
33
0.029038
0
3DFACE
8
football_low_poly
10
0.004173
20
0.003382
30
0.028640
11
0.003571
21
0.003473
31
0.029038
12
0.003329
22
0.003705
32
0.029051
13
0.003530
23
0.003659
33
0.028837
0
3DFACE
8
football_low_poly
10
-0.001497
20
-0.001990
30
0.029607
11
-0.001443
21
-0.002007
31
0.029834
12
-0.002229
22
-0.001998
32
0.029726
13
-0.002291
23
-0.001982
33
0.029523
0
3DFACE
8
football_low_poly
10
-0.002780
20
-0.001991
30
0.029334
11
-0.002291
21
-0.001982
31
0.029523
12
-0.002229
22
-0.001998
32
0.029726
13
-0.002773
23
-0.002003
33
0.029519
0
3DFACE
8
football_low_poly
10
0.001344
20
0.018891
30
0.026789
11
0.002168
21
0.018864
31
0.026683
12
0.002229
22
0.018618
32
0.026637
13
0.001443
23
0.018645
33
0.026740
0
3DFACE
8
football_low_poly
10
0.002807
20
0.018829
30
0.026452
11
0.002773
21
0.018594
31
0.026432
12
0.002229
22
0.018618
32
0.026637
13
0.002168
23
0.018864
33
0.026683
0
3DFACE
8
football_low_poly
10
0.002780
20
0.018554
30
0.026253
11
0.002291
21
0.018572
31
0.026442
12
0.002229
22
0.018618
32
0.026637
13
0.002773
23
0.018594
33
0.026432
0
3DFACE
8
football_low_poly
10
0.001497
20
0.018594
30
0.026522
11
0.001443
21
0.018645
31
0.026740
12
0.002229
22
0.018618
32
0.026637
13
0.002291
23
0.018572
33
0.026442
0
3DFACE
8
football_low_poly
10
0.004173
20
-0.003380
30
0.028640
11
0.003530
21
-0.003656
31
0.028837
12
0.003329
22
-0.003702
32
0.029051
13
0.003571
23
-0.003471
33
0.029038
0
3DFACE
8
football_low_poly
10
0.002780
20
-0.003761
30
0.029105
11
0.002773
21
-0.003778
31
0.029290
12
0.003329
22
-0.003702
32
0.029051
13
0.003530
23
-0.003656
33
0.028837
0
3DFACE
8
football_low_poly
10
0.002806
20
-0.003563
30
0.029429
11
0.003571
21
-0.003471
31
0.029038
12
0.003329
22
-0.003702
32
0.029051
13
0.002773
23
-0.003778
33
0.029290
0
3DFACE
8
football_low_poly
10
0.004173
20
-0.007775
30
0.028188
11
0.003571
21
-0.007773
31
0.028600
12
0.003329
22
-0.007555
32
0.028686
13
0.003530
23
-0.007555
33
0.028465
0
3DFACE
8
football_low_poly
10
0.002806
20
-0.007767
30
0.029007
11
0.002773
21
-0.007534
31
0.028940
12
0.003329
22
-0.007555
32
0.028686
13
0.003571
23
-0.007773
33
0.028600
0
3DFACE
8
football_low_poly
10
0.002780
20
-0.007514
30
0.028756
11
0.003530
21
-0.007555
31
0.028465
12
0.003329
22
-0.007555
32
0.028686
13
0.002773
23
-0.007534
33
0.028940
0
3DFACE
8
football_low_poly
10
-0.002806
20
-0.002234
30
0.029601
11
-0.002773
21
-0.002003
31
0.029519
12
-0.002229
22
-0.001998
32
0.029726
13
-0.002168
23
-0.002236
33
0.029836
0
3DFACE
8
football_low_poly
10
-0.001344
20
-0.002246
30
0.029947
11
-0.002168
21
-0.002236
31
0.029836
12
-0.002229
22
-0.001998
32
0.029726
13
-0.001443
23
-0.002007
33
0.029834
0
3DFACE
8
football_low_poly
10
0.002807
20
-0.014608
30
0.027622
11
0.003571
21
-0.014495
31
0.027243
12
0.003329
22
-0.014724
32
0.027227
13
0.002773
23
-0.014812
33
0.027456
0
3DFACE
8
football_low_poly
10
0.002780
20
-0.014781
30
0.027274
11
0.002773
21
-0.014812
31
0.027456
12
0.003329
22
-0.014724
32
0.027227
13
0.003530
23
-0.014665
33
0.027019
0
3DFACE
8
football_low_poly
10
0.002807
20
-0.018814
30
0.026452
11
0.002168
21
-0.018850
31
0.026683
12
0.002229
22
-0.018598
32
0.026637
13
0.002773
23
-0.018573
33
0.026432
0
3DFACE
8
football_low_poly
10
0.001344
20
-0.018878
30
0.026789
11
0.001443
21
-0.018625
31
0.026740
12
0.002229
22
-0.018598
32
0.026637
13
0.002168
23
-0.018850
33
0.026683
0
3DFACE
8
football_low_poly
10
0.001497
20
-0.018573
30
0.026522
11
0.002291
21
-0.018550
31
0.026442
12
0.002229
22
-0.018598
32
0.026637
13
0.001443
23
-0.018625
33
0.026740
0
3DFACE
8
football_low_poly
10
0.002780
20
-0.018533
30
0.026253
11
0.002773
21
-0.018573
31
0.026432
12
0.002229
22
-0.018598
32
0.026637
13
0.002291
23
-0.018550
33
0.026442
0
3DFACE
8
football_low_poly
10
0.001344
20
-0.020203
30
0.026261
11
0.002168
21
-0.020175
31
0.026155
12
0.002229
22
-0.020364
32
0.025933
13
0.001443
23
-0.020392
33
0.026036
0
3DFACE
8
football_low_poly
10
0.002807
20
-0.020103
30
0.025938
11
0.002773
21
-0.020294
31
0.025746
12
0.002229
22
-0.020364
32
0.025933
13
0.002168
23
-0.020175
33
0.026155
0
3DFACE
8
football_low_poly
10
0.002780
20
-0.020249
30
0.025569
11
0.002291
21
-0.020317
31
0.025738
12
0.002229
22
-0.020364
32
0.025933
13
0.002773
23
-0.020294
33
0.025746
0
3DFACE
8
football_low_poly
10
0.001497
20
-0.020340
30
0.025818
11
0.001443
21
-0.020392
31
0.026036
12
0.002229
22
-0.020364
32
0.025933
13
0.002291
23
-0.020317
33
0.025738
0
3DFACE
8
football_low_poly
10
0.004173
20
-0.014383
30
0.026857
11
0.003530
21
-0.014665
31
0.027019
12
0.003329
22
-0.014724
32
0.027227
13
0.003571
23
-0.014495
33
0.027243
0
3DFACE
8
football_low_poly
10
-0.002807
20
0.020087
30
0.025938
11
-0.003571
21
0.019950
31
0.025575
12
-0.003329
22
0.020171
32
0.025529
13
-0.002773
23
0.020273
33
0.025746
0
3DFACE
8
football_low_poly
10
-0.002780
20
0.020229
30
0.025569
11
-0.002773
21
0.020273
31
0.025746
12
-0.003329
22
0.020171
32
0.025529
13
-0.003530
23
0.020100
33
0.025329
0
3DFACE
8
football_low_poly
10
-0.004173
20
0.019815
30
0.025204
11
-0.003530
21
0.020100
31
0.025329
12
-0.003329
22
0.020171
32
0.025529
13
-0.003571
23
0.019950
33
0.025575
0
3DFACE
8
football_low_poly
10
-0.004173
20
-0.007775
30
0.028188
11
-0.003530
21
-0.007555
31
0.028465
12
-0.003329
22
-0.007555
32
0.028686
13
-0.003571
23
-0.007773
33
0.028600
0
3DFACE
8
football_low_poly
10
-0.002780
20
-0.007514
30
0.028756
11
-0.002773
21
-0.007534
31
0.028940
12
-0.003329
22
-0.007555
32
0.028686
13
-0.003530
23
-0.007555
33
0.028465
0
3DFACE
8
football_low_poly
10
-0.002806
20
-0.007767
30
0.029007
11
-0.003571
21
-0.007773
31
0.028600
12
-0.003329
22
-0.007555
32
0.028686
13
-0.002773
23
-0.007534
33
0.028940
0
3DFACE
8
football_low_poly
10
0.002780
20
-0.001991
30
0.029334
11
0.003530
21
-0.002038
31
0.029046
12
0.003329
22
-0.002032
32
0.029267
13
0.002773
23
-0.002003
33
0.029519
0
3DFACE
8
football_low_poly
10
0.002806
20
-0.002234
30
0.029601
11
0.002773
21
-0.002003
31
0.029519
12
0.003329
22
-0.002032
32
0.029267
13
0.003571
23
-0.002252
33
0.029195
0
3DFACE
8
football_low_poly
10
0.004173
20
-0.002265
30
0.028784
11
0.003571
21
-0.002252
31
0.029195
12
0.003329
22
-0.002032
32
0.029267
13
0.003530
23
-0.002038
33
0.029046
0
3DFACE
8
football_low_poly
10
-0.001497
20
0.013055
30
0.028002
11
-0.001443
21
0.013090
31
0.028226
12
-0.000000
22
0.013096
32
0.028261
13
0.000000
23
0.013068
33
0.028073
0
3DFACE
8
football_low_poly
10
0.001497
20
0.013055
30
0.028002
11
0.000000
21
0.013068
31
0.028073
12
-0.000000
22
0.013096
32
0.028261
13
0.001443
23
0.013090
33
0.028226
0
3DFACE
8
football_low_poly
10
0.001344
20
0.013335
30
0.028307
11
0.001443
21
0.013090
31
0.028226
12
-0.000000
22
0.013096
32
0.028261
13
-0.000000
23
0.013341
33
0.028343
0
3DFACE
8
football_low_poly
10
-0.001344
20
0.013335
30
0.028307
11
-0.000000
21
0.013341
31
0.028343
12
-0.000000
22
0.013096
32
0.028261
13
-0.001443
23
0.013090
33
0.028226
0
3DFACE
8
football_low_poly
10
0.001497
20
0.014850
30
0.027534
11
0.001443
21
0.014885
31
0.027758
12
-0.000000
22
0.014891
32
0.027793
13
0.000000
23
0.014863
33
0.027605
0
3DFACE
8
football_low_poly
10
-0.001497
20
0.014850
30
0.027534
11
0.000000
21
0.014863
31
0.027605
12
-0.000000
22
0.014891
32
0.027793
13
-0.001443
23
0.014885
33
0.027758
0
3DFACE
8
football_low_poly
10
-0.001344
20
0.014681
30
0.027956
11
-0.001443
21
0.014885
31
0.027758
12
-0.000000
22
0.014891
32
0.027793
13
-0.000000
23
0.014688
33
0.027992
0
3DFACE
8
football_low_poly
10
0.001344
20
0.014681
30
0.027956
11
-0.000000
21
0.014688
31
0.027992
12
-0.000000
22
0.014891
32
0.027793
13
0.001443
23
0.014885
33
0.027758
0
3DFACE
8
football_low_poly
10
-0.002780
20
0.013036
30
0.027729
11
-0.002773
21
0.013062
31
0.027912
12
-0.002229
22
0.013071
32
0.028119
13
-0.002291
23
0.013040
33
0.027919
0
3DFACE
8
football_low_poly
10
-0.001497
20
0.013055
30
0.028002
11
-0.002291
21
0.013040
31
0.027919
12
-0.002229
22
0.013071
32
0.028119
13
-0.001443
23
0.013090
33
0.028226
0
3DFACE
8
football_low_poly
10
-0.001344
20
0.013335
30
0.028307
11
-0.001443
21
0.013090
31
0.028226
12
-0.002229
22
0.013071
32
0.028119
13
-0.002168
23
0.013316
33
0.028198
0
3DFACE
8
football_low_poly
10
-0.002807
20
0.013298
30
0.027964
11
-0.002168
21
0.013316
31
0.028198
12
-0.002229
22
0.013071
32
0.028119
13
-0.002773
23
0.013062
33
0.027912
0
3DFACE
8
football_low_poly
10
-0.001497
20
0.014850
30
0.027534
11
-0.001443
21
0.014885
31
0.027758
12
-0.002229
22
0.014866
32
0.027651
13
-0.002291
23
0.014835
33
0.027451
0
3DFACE
8
football_low_poly
10
-0.004173
20
-0.003380
30
0.028640
11
-0.003571
21
-0.003471
31
0.029038
12
-0.003329
22
-0.003702
32
0.029051
13
-0.003530
23
-0.003656
33
0.028837
0
3DFACE
8
football_low_poly
10
-0.002806
20
-0.003563
30
0.029429
11
-0.002773
21
-0.003778
31
0.029290
12
-0.003329
22
-0.003702
32
0.029051
13
-0.003571
23
-0.003471
33
0.029038
0
3DFACE
8
football_low_poly
10
-0.002780
20
-0.003761
30
0.029105
11
-0.003530
21
-0.003656
31
0.028837
12
-0.003329
22
-0.003702
32
0.029051
13
-0.002773
23
-0.003778
33
0.029290
0
3DFACE
8
football_low_poly
10
0.002807
20
0.014607
30
0.027622
11
0.002168
21
0.014662
31
0.027847
12
0.002229
22
0.014866
32
0.027651
13
0.002773
23
0.014810
33
0.027456
0
3DFACE
8
football_low_poly
10
0.001344
20
0.014681
30
0.027956
11
0.001443
21
0.014885
31
0.027758
12
0.002229
22
0.014866
32
0.027651
13
0.002168
23
0.014662
33
0.027847
0
3DFACE
8
football_low_poly
10
0.001497
20
0.014850
30
0.027534
11
0.002291
21
0.014835
31
0.027451
12
0.002229
22
0.014866
32
0.027651
13
0.001443
23
0.014885
33
0.027758
0
3DFACE
8
football_low_poly
10
0.002780
20
0.014780
30
0.027274
11
0.002773
21
0.014810
31
0.027456
12
0.002229
22
0.014866
32
0.027651
13
0.002291
23
0.014835
33
0.027451
0
3DFACE
8
football_low_poly
10
-0.002780
20
0.014780
30
0.027274
11
-0.002291
21
0.014835
31
0.027451
12
-0.002229
22
0.014866
32
0.027651
13
-0.002773
23
0.014810
33
0.027456
0
3DFACE
8
football_low_poly
10
-0.002807
20
0.014607
30
0.027622
11
-0.002773
21
0.014810
31
0.027456
12
-0.002229
22
0.014866
32
0.027651
13
-0.002168
23
0.014662
33
0.027847
0
3DFACE
8
football_low_poly
10
-0.001344
20
0.014681
30
0.027956
11
-0.002168
21
0.014662
31
0.027847
12
-0.002229
22
0.014866
32
0.027651
13
-0.001443
23
0.014885
33
0.027758
0
3DFACE
8
football_low_poly
10
-0.001497
20
0.007520
30
0.029029
11
-0.001443
21
0.007546
31
0.029255
12
0.000000
22
0.007550
32
0.029290
13
0.000000
23
0.007529
33
0.029101
0
3DFACE
8
football_low_poly
10
0.001497
20
0.007520
30
0.029029
11
0.000000
21
0.007529
31
0.029101
12
0.000000
22
0.007550
32
0.029290
13
0.001443
23
0.007546
33
0.029255
0
3DFACE
8
football_low_poly
10
0.001344
20
0.007789
30
0.029352
11
0.001443
21
0.007546
31
0.029255
12
0.000000
22
0.007550
32
0.029290
13
0.000000
23
0.007793
33
0.029388
0
3DFACE
8
football_low_poly
10
-0.001344
20
0.007789
30
0.029352
11
0.000000
21
0.007793
31
0.029388
12
0.000000
22
0.007550
32
0.029290
13
-0.001443
23
0.007546
33
0.029255
0
3DFACE
8
football_low_poly
10
0.001497
20
0.009338
30
0.028677
11
0.001443
21
0.009364
31
0.028902
12
0.000000
22
0.009369
32
0.028938
13
0.000000
23
0.009347
33
0.028749
0
3DFACE
8
football_low_poly
10
-0.001497
20
0.009338
30
0.028677
11
0.000000
21
0.009347
31
0.028749
12
0.000000
22
0.009369
32
0.028938
13
-0.001443
23
0.009364
33
0.028902
0
3DFACE
8
football_low_poly
10
-0.001344
20
0.009153
30
0.029088
11
-0.001443
21
0.009364
31
0.028902
12
0.000000
22
0.009369
32
0.028938
13
0.000000
23
0.009157
33
0.029124
0
3DFACE
8
football_low_poly
10
0.001344
20
0.009153
30
0.029088
11
0.000000
21
0.009157
31
0.029124
12
0.000000
22
0.009369
32
0.028938
13
0.001443
23
0.009364
33
0.028902
0
3DFACE
8
football_low_poly
10
0.002780
20
-0.018533
30
0.026253
11
0.003530
21
-0.018547
31
0.025955
12
0.003329
22
-0.018570
32
0.026175
13
0.002773
23
-0.018573
33
0.026432
0
3DFACE
8
football_low_poly
10
0.002807
20
-0.018814
30
0.026452
11
0.002773
21
-0.018573
31
0.026432
12
0.003329
22
-0.018570
32
0.026175
13
0.003571
23
-0.018780
33
0.026046
0
3DFACE
8
football_low_poly
10
0.004173
20
-0.018744
30
0.025635
11
0.003571
21
-0.018780
31
0.026046
12
0.003329
22
-0.018570
32
0.026175
13
0.003530
23
-0.018547
33
0.025955
0
3DFACE
8
football_low_poly
10
-0.002807
20
0.014607
30
0.027622
11
-0.003571
21
0.014494
31
0.027243
12
-0.003329
22
0.014722
32
0.027227
13
-0.002773
23
0.014810
33
0.027456
0
3DFACE
8
football_low_poly
10
-0.002780
20
0.014780
30
0.027274
11
-0.002773
21
0.014810
31
0.027456
12
-0.003329
22
0.014722
32
0.027227
13
-0.003530
23
0.014663
33
0.027019
0
3DFACE
8
football_low_poly
10
-0.004173
20
-0.002265
30
0.028784
11
-0.003530
21
-0.002038
31
0.029046
12
-0.003329
22
-0.002032
32
0.029267
13
-0.003571
23
-0.002252
33
0.029195
0
3DFACE
8
football_low_poly
10
-0.002780
20
-0.001991
30
0.029334
11
-0.002773
21
-0.002003
31
0.029519
12
-0.003329
22
-0.002032
32
0.029267
13
-0.003530
23
-0.002038
33
0.029046
0
3DFACE
8
football_low_poly
10
-0.002806
20
-0.002234
30
0.029601
11
-0.003571
21
-0.002252
31
0.029195
12
-0.003329
22
-0.002032
32
0.029267
13
-0.002773
23
-0.002003
33
0.029519
0
3DFACE
8
football_low_poly
10
-0.004173
20
0.014382
30
0.026857
11
-0.003530
21
0.014663
31
0.027019
12
-0.003329
22
0.014722
32
0.027227
13
-0.003571
23
0.014494
33
0.027243
0
3DFACE
8
football_low_poly
10
-0.002780
20
0.018554
30
0.026253
11
-0.003530
21
0.018569
31
0.025955
12
-0.003329
22
0.018591
32
0.026175
13
-0.002773
23
0.018594
33
0.026432
0
3DFACE
8
football_low_poly
10
-0.002807
20
0.018829
30
0.026452
11
-0.002773
21
0.018594
31
0.026432
12
-0.003329
22
0.018591
32
0.026175
13
-0.003571
23
0.018796
33
0.026046
0
3DFACE
8
football_low_poly
10
-0.004173
20
0.018760
30
0.025635
11
-0.003571
21
0.018796
31
0.026046
12
-0.003329
22
0.018591
32
0.026175
13
-0.003530
23
0.018569
33
0.025955
0
3DFACE
8
football_low_poly
10
-0.002780
20
0.007510
30
0.028756
11
-0.002773
21
0.007530
31
0.028940
12
-0.002229
22
0.007532
32
0.029147
13
-0.002291
23
0.007508
33
0.028945
0
3DFACE
8
football_low_poly
10
-0.001497
20
0.007520
30
0.029029
11
-0.002291
21
0.007508
31
0.028945
12
-0.002229
22
0.007532
32
0.029147
13
-0.001443
23
0.007546
33
0.029255
0
3DFACE
8
football_low_poly
10
-0.001344
20
0.007789
30
0.029352
11
-0.001443
21
0.007546
31
0.029255
12
-0.002229
22
0.007532
32
0.029147
13
-0.002168
23
0.007775
33
0.029241
0
3DFACE
8
football_low_poly
10
-0.002806
20
0.007764
30
0.029007
11
-0.002168
21
0.007775
31
0.029241
12
-0.002229
22
0.007532
32
0.029147
13
-0.002773
23
0.007530
33
0.028940
0
3DFACE
8
football_low_poly
10
-0.001497
20
0.009338
30
0.028677
11
-0.001443
21
0.009364
31
0.028902
12
-0.002229
22
0.009350
32
0.028795
13
-0.002291
23
0.009326
33
0.028593
0
3DFACE
8
football_low_poly
10
-0.002780
20
0.009277
30
0.028413
11
-0.002291
21
0.009326
31
0.028593
12
-0.002229
22
0.009350
32
0.028795
13
-0.002773
23
0.009301
33
0.028597
0
3DFACE
8
football_low_poly
10
-0.002806
20
0.009090
30
0.028750
11
-0.002773
21
0.009301
31
0.028597
12
-0.002229
22
0.009350
32
0.028795
13
-0.002168
23
0.009138
33
0.028977
0
3DFACE
8
football_low_poly
10
-0.001344
20
0.009153
30
0.029088
11
-0.002168
21
0.009138
31
0.028977
12
-0.002229
22
0.009350
32
0.028795
13
-0.001443
23
0.009364
33
0.028902
0
3DFACE
8
football_low_poly
10
0.002780
20
-0.013034
30
0.027729
11
0.002773
21
-0.013060
31
0.027912
12
0.002229
22
-0.013069
32
0.028119
13
0.002291
23
-0.013038
33
0.027919
0
3DFACE
8
football_low_poly
10
0.001497
20
-0.013053
30
0.028002
11
0.002291
21
-0.013038
31
0.027919
12
0.002229
22
-0.013069
32
0.028119
13
0.001443
23
-0.013088
33
0.028226
0
3DFACE
8
football_low_poly
10
0.001344
20
-0.013334
30
0.028307
11
0.001443
21
-0.013088
31
0.028226
12
0.002229
22
-0.013069
32
0.028119
13
0.002168
23
-0.013315
33
0.028198
0
3DFACE
8
football_low_poly
10
0.002807
20
-0.013297
30
0.027964
11
0.002168
21
-0.013315
31
0.028198
12
0.002229
22
-0.013069
32
0.028119
13
0.002773
23
-0.013060
33
0.027912
0
3DFACE
8
football_low_poly
10
0.001497
20
-0.014852
30
0.027534
11
0.001443
21
-0.014887
31
0.027758
12
0.002229
22
-0.014868
32
0.027651
13
0.002291
23
-0.014837
33
0.027451
0
3DFACE
8
football_low_poly
10
0.002780
20
-0.014781
30
0.027274
11
0.002291
21
-0.014837
31
0.027451
12
0.002229
22
-0.014868
32
0.027651
13
0.002773
23
-0.014812
33
0.027456
0
3DFACE
8
football_low_poly
10
0.002807
20
-0.014608
30
0.027622
11
0.002773
21
-0.014812
31
0.027456
12
0.002229
22
-0.014868
32
0.027651
13
0.002168
23
-0.014664
33
0.027847
0
3DFACE
8
football_low_poly
10
0.001344
20
-0.014683
30
0.027956
11
0.002168
21
-0.014664
31
0.027847
12
0.002229
22
-0.014868
32
0.027651
13
0.001443
23
-0.014887
33
0.027758
0
3DFACE
8
football_low_poly
10
-0.004173
20
0.002263
30
0.028784
11
-0.003571
21
0.002250
31
0.029195
12
-0.003329
22
0.002029
32
0.029267
13
-0.003530
23
0.002036
33
0.029046
0
3DFACE
8
football_low_poly
10
-0.002806
20
0.002232
30
0.029601
11
-0.002773
21
0.002001
31
0.029519
12
-0.003329
22
0.002029
32
0.029267
13
-0.003571
23
0.002250
33
0.029195
0
3DFACE
8
football_low_poly
10
-0.002780
20
0.001988
30
0.029334
11
-0.003530
21
0.002036
31
0.029046
12
-0.003329
22
0.002029
32
0.029267
13
-0.002773
23
0.002001
33
0.029519
0
3DFACE
8
football_low_poly
10
0.001344
20
0.013335
30
0.028307
11
0.002168
21
0.013316
31
0.028198
12
0.002229
22
0.013071
32
0.028119
13
0.001443
23
0.013090
33
0.028226
0
3DFACE
8
football_low_poly
10
0.002807
20
0.013298
30
0.027964
11
0.002773
21
0.013062
31
0.027912
12
0.002229
22
0.013071
32
0.028119
13
0.002168
23
0.013316
33
0.028198
0
3DFACE
8
football_low_poly
10
0.002780
20
0.013036
30
0.027729
11
0.002291
21
0.013040
31
0.027919
12
0.002229
22
0.013071
32
0.028119
13
0.002773
23
0.013062
33
0.027912
0
3DFACE
8
football_low_poly
10
0.001497
20
0.013055
30
0.028002
11
0.001443
21
0.013090
31
0.028226
12
0.002229
22
0.013071
32
0.028119
13
0.002291
23
0.013040
33
0.027919
0
3DFACE
8
football_low_poly
10
-0.001497
20
0.001987
30
0.029607
11
-0.001443
21
0.002005
31
0.029834
12
0.000000
22
0.002008
32
0.029870
13
0.000000
23
0.001994
33
0.029680
0
3DFACE
8
football_low_poly
10
0.001497
20
0.001987
30
0.029607
11
0.000000
21
0.001994
31
0.029680
12
0.000000
22
0.002008
32
0.029870
13
0.001443
23
0.002005
33
0.029834
0
3DFACE
8
football_low_poly
10
0.001344
20
0.002244
30
0.029947
11
0.001443
21
0.002005
31
0.029834
12
0.000000
22
0.002008
32
0.029870
13
0.000000
23
0.002247
33
0.029984
0
3DFACE
8
football_low_poly
10
-0.001344
20
0.002244
30
0.029947
11
0.000000
21
0.002247
31
0.029984
12
0.000000
22
0.002008
32
0.029870
13
-0.001443
23
0.002005
33
0.029834
0
3DFACE
8
football_low_poly
10
0.001497
20
0.003815
30
0.029372
11
0.001443
21
0.003833
31
0.029599
12
0.000000
22
0.003836
32
0.029635
13
0.000000
23
0.003821
33
0.029445
0
3DFACE
8
football_low_poly
10
-0.001497
20
0.003815
30
0.029372
11
0.000000
21
0.003821
31
0.029445
12
0.000000
22
0.003836
32
0.029635
13
-0.001443
23
0.003833
33
0.029599
0
3DFACE
8
football_low_poly
10
-0.001344
20
0.003615
30
0.029770
11
-0.001443
21
0.003833
31
0.029599
12
0.000000
22
0.003836
32
0.029635
13
0.000000
23
0.003618
33
0.029807
0
3DFACE
8
football_low_poly
10
0.001344
20
0.003615
30
0.029770
11
0.000000
21
0.003618
31
0.029807
12
0.000000
22
0.003836
32
0.029635
13
0.001443
23
0.003833
33
0.029599
0
3DFACE
8
football_low_poly
10
0.002807
20
0.020087
30
0.025938
11
0.002168
21
0.020157
31
0.026155
12
0.002229
22
0.020342
32
0.025933
13
0.002773
23
0.020273
33
0.025746
0
3DFACE
8
football_low_poly
10
0.001344
20
0.020185
30
0.026261
11
0.001443
21
0.020369
31
0.026036
12
0.002229
22
0.020342
32
0.025933
13
0.002168
23
0.020157
33
0.026155
0
3DFACE
8
football_low_poly
10
0.001497
20
0.020318
30
0.025818
11
0.002291
21
0.020296
31
0.025738
12
0.002229
22
0.020342
32
0.025933
13
0.001443
23
0.020369
33
0.026036
0
3DFACE
8
football_low_poly
10
0.002780
20
0.020229
30
0.025569
11
0.002773
21
0.020273
31
0.025746
12
0.002229
22
0.020342
32
0.025933
13
0.002291
23
0.020296
33
0.025738
0
3DFACE
8
football_low_poly
10
0.001497
20
0.007520
30
0.029029
11
0.001443
21
0.007546
31
0.029255
12
0.002229
22
0.007532
32
0.029147
13
0.002291
23
0.007508
33
0.028945
0
3DFACE
8
football_low_poly
10
0.002780
20
0.007510
30
0.028756
11
0.002291
21
0.007508
31
0.028945
12
0.002229
22
0.007532
32
0.029147
13
0.002773
23
0.007530
33
0.028940
0
3DFACE
8
football_low_poly
10
0.002806
20
0.007764
30
0.029007
11
0.002773
21
0.007530
31
0.028940
12
0.002229
22
0.007532
32
0.029147
13
0.002168
23
0.007775
33
0.029241
0
3DFACE
8
football_low_poly
10
0.001344
20
0.007789
30
0.029352
11
0.002168
21
0.007775
31
0.029241
12
0.002229
22
0.007532
32
0.029147
13
0.001443
23
0.007546
33
0.029255
0
3DFACE
8
football_low_poly
10
0.002780
20
0.009277
30
0.028413
11
0.002773
21
0.009301
31
0.028597
12
0.002229
22
0.009350
32
0.028795
13
0.002291
23
0.009326
33
0.028593
0
3DFACE
8
football_low_poly
10
0.001497
20
0.009338
30
0.028677
11
0.002291
21
0.009326
31
0.028593
12
0.002229
22
0.009350
32
0.028795
13
0.001443
23
0.009364
33
0.028902
0
3DFACE
8
football_low_poly
10
0.001344
20
0.009153
30
0.029088
11
0.001443
21
0.009364
31
0.028902
12
0.002229
22
0.009350
32
0.028795
13
0.002168
23
0.009138
33
0.028977
0
3DFACE
8
football_low_poly
10
0.002806
20
0.009090
30
0.028750
11
0.002168
21
0.009138
31
0.028977
12
0.002229
22
0.009350
32
0.028795
13
0.002773
23
0.009301
33
0.028597
0
3DFACE
8
football_low_poly
10
0.004173
20
-0.008883
30
0.027972
11
0.003530
21
-0.009162
31
0.028152
12
0.003329
22
-0.009215
32
0.028363
13
0.003571
23
-0.008985
33
0.028365
0
3DFACE
8
football_low_poly
10
0.002780
20
-0.009273
30
0.028413
11
0.002773
21
-0.009297
31
0.028597
12
0.003329
22
-0.009215
32
0.028363
13
0.003530
23
-0.009162
33
0.028152
0
3DFACE
8
football_low_poly
10
0.002806
20
-0.009087
30
0.028750
11
0.003571
21
-0.008985
31
0.028365
12
0.003329
22
-0.009215
32
0.028363
13
0.002773
23
-0.009297
33
0.028597
0
3DFACE
8
football_low_poly
10
0.004173
20
-0.013282
30
0.027143
11
0.003571
21
-0.013291
31
0.027556
12
0.003329
22
-0.013075
32
0.027656
13
0.003530
23
-0.013067
33
0.027435
0
3DFACE
8
football_low_poly
10
0.002807
20
-0.013297
30
0.027964
11
0.002773
21
-0.013060
31
0.027912
12
0.003329
22
-0.013075
32
0.027656
13
0.003571
23
-0.013291
33
0.027556
0
3DFACE
8
football_low_poly
10
0.002780
20
-0.013034
30
0.027729
11
0.003530
21
-0.013067
31
0.027435
12
0.003329
22
-0.013075
32
0.027656
13
0.002773
23
-0.013060
33
0.027912
0
3DFACE
8
football_low_poly
10
-0.001497
20
0.018594
30
0.026522
11
-0.001443
21
0.018645
31
0.026740
12
0.000000
22
0.018654
32
0.026775
13
0.000000
23
0.018612
33
0.026592
0
3DFACE
8
football_low_poly
10
0.001497
20
0.018594
30
0.026522
11
0.000000
21
0.018612
31
0.026592
12
0.000000
22
0.018654
32
0.026775
13
0.001443
23
0.018645
33
0.026740
0
3DFACE
8
football_low_poly
10
0.001344
20
0.018891
30
0.026789
11
0.001443
21
0.018645
31
0.026740
12
0.000000
22
0.018654
32
0.026775
13
0.000000
23
0.018901
33
0.026824
0
3DFACE
8
football_low_poly
10
-0.001344
20
0.018891
30
0.026789
11
0.000000
21
0.018901
31
0.026824
12
0.000000
22
0.018654
32
0.026775
13
-0.001443
23
0.018645
33
0.026740
0
3DFACE
8
football_low_poly
10
-0.004173
20
-0.018744
30
0.025635
11
-0.003530
21
-0.018547
31
0.025955
12
-0.003329
22
-0.018570
32
0.026175
13
-0.003571
23
-0.018780
33
0.026046
0
3DFACE
8
football_low_poly
10
-0.002780
20
-0.018533
30
0.026253
11
-0.002773
21
-0.018573
31
0.026432
12
-0.003329
22
-0.018570
32
0.026175
13
-0.003530
23
-0.018547
33
0.025955
0
3DFACE
8
football_low_poly
10
-0.002807
20
-0.018814
30
0.026452
11
-0.003571
21
-0.018780
31
0.026046
12
-0.003329
22
-0.018570
32
0.026175
13
-0.002773
23
-0.018573
33
0.026432
0
3DFACE
8
football_low_poly
10
0.001497
20
0.020318
30
0.025818
11
0.001443
21
0.020369
31
0.026036
12
0.000000
22
0.020378
32
0.026071
13
0.000000
23
0.020336
33
0.025888
0
3DFACE
8
football_low_poly
10
-0.001497
20
0.020318
30
0.025818
11
0.000000
21
0.020336
31
0.025888
12
0.000000
22
0.020378
32
0.026071
13
-0.001443
23
0.020369
33
0.026036
0
3DFACE
8
football_low_poly
10
-0.001344
20
0.020185
30
0.026261
11
-0.001443
21
0.020369
31
0.026036
12
0.000000
22
0.020378
32
0.026071
13
0.000000
23
0.020194
33
0.026296
0
3DFACE
8
football_low_poly
10
0.001344
20
0.020185
30
0.026261
11
0.000000
21
0.020194
31
0.026296
12
0.000000
22
0.020378
32
0.026071
13
0.001443
23
0.020369
33
0.026036
0
3DFACE
8
football_low_poly
10
-0.004173
20
-0.014383
30
0.026857
11
-0.003571
21
-0.014495
31
0.027243
12
-0.003329
22
-0.014724
32
0.027227
13
-0.003530
23
-0.014665
33
0.027019
0
3DFACE
8
football_low_poly
10
-0.002807
20
-0.014608
30
0.027622
11
-0.002773
21
-0.014812
31
0.027456
12
-0.003329
22
-0.014724
32
0.027227
13
-0.003571
23
-0.014495
33
0.027243
0
3DFACE
8
football_low_poly
10
-0.002780
20
-0.014781
30
0.027274
11
-0.003530
21
-0.014665
31
0.027019
12
-0.003329
22
-0.014724
32
0.027227
13
-0.002773
23
-0.014812
33
0.027456
0
3DFACE
8
football_low_poly
10
-0.002780
20
0.018554
30
0.026253
11
-0.002773
21
0.018594
31
0.026432
12
-0.002229
22
0.018618
32
0.026637
13
-0.002291
23
0.018572
33
0.026442
0
3DFACE
8
football_low_poly
10
-0.001497
20
0.018594
30
0.026522
11
-0.002291
21
0.018572
31
0.026442
12
-0.002229
22
0.018618
32
0.026637
13
-0.001443
23
0.018645
33
0.026740
0
3DFACE
8
football_low_poly
10
-0.001344
20
0.018891
30
0.026789
11
-0.001443
21
0.018645
31
0.026740
12
-0.002229
22
0.018618
32
0.026637
13
-0.002168
23
0.018864
33
0.026683
0
3DFACE
8
football_low_poly
10
-0.002807
20
0.018829
30
0.026452
11
-0.002168
21
0.018864
31
0.026683
12
-0.002229
22
0.018618
32
0.026637
13
-0.002773
23
0.018594
33
0.026432
0
3DFACE
8
football_low_poly
10
-0.001497
20
0.020318
30
0.025818
11
-0.001443
21
0.020369
31
0.026036
12
-0.002229
22
0.020342
32
0.025933
13
-0.002291
23
0.020296
33
0.025738
0
3DFACE
8
football_low_poly
10
-0.002780
20
0.020229
30
0.025569
11
-0.002291
21
0.020296
31
0.025738
12
-0.002229
22
0.020342
32
0.025933
13
-0.002773
23
0.020273
33
0.025746
0
3DFACE
8
football_low_poly
10
-0.002807
20
0.020087
30
0.025938
11
-0.002773
21
0.020273
31
0.025746
12
-0.002229
22
0.020342
32
0.025933
13
-0.002168
23
0.020157
33
0.026155
0
3DFACE
8
football_low_poly
10
-0.001344
20
0.020185
30
0.026261
11
-0.002168
21
0.020157
31
0.026155
12
-0.002229
22
0.020342
32
0.025933
13
-0.001443
23
0.020369
33
0.026036
0
3DFACE
8
football_low_poly
10
0.002807
20
0.018829
30
0.026452
11
0.003571
21
0.018796
31
0.026046
12
0.003329
22
0.018591
32
0.026175
13
0.002773
23
0.018594
33
0.026432
0
3DFACE
8
football_low_poly
10
0.002780
20
0.018554
30
0.026253
11
0.002773
21
0.018594
31
0.026432
12
0.003329
22
0.018591
32
0.026175
13
0.003530
23
0.018569
33
0.025955
0
3DFACE
8
football_low_poly
10
0.004173
20
0.018760
30
0.025635
11
0.003530
21
0.018569
31
0.025955
12
0.003329
22
0.018591
32
0.026175
13
0.003571
23
0.018796
33
0.026046
0
3DFACE
8
football_low_poly
10
0.002780
20
0.020229
30
0.025569
11
0.003530
21
0.020100
31
0.025329
12
0.003329
22
0.020171
32
0.025529
13
0.002773
23
0.020273
33
0.025746
0
3DFACE
8
football_low_poly
10
0.002807
20
0.020087
30
0.025938
11
0.002773
21
0.020273
31
0.025746
12
0.003329
22
0.020171
32
0.025529
13
0.003571
23
0.019950
33
0.025575
0
3DFACE
8
football_low_poly
10
0.004173
20
0.019815
30
0.025204
11
0.003571
21
0.019950
31
0.025575
12
0.003329
22
0.020171
32
0.025529
13
0.003530
23
0.020100
33
0.025329
0
3DFACE
8
football_low_poly
10
-0.002780
20
-0.020249
30
0.025569
11
-0.003530
21
-0.020116
31
0.025329
12
-0.003329
22
-0.020189
32
0.025529
13
-0.002773
23
-0.020294
33
0.025746
0
3DFACE
8
football_low_poly
10
-0.002807
20
-0.020103
30
0.025938
11
-0.002773
21
-0.020294
31
0.025746
12
-0.003329
22
-0.020189
32
0.025529
13
-0.003571
23
-0.019963
33
0.025575
0
3DFACE
8
football_low_poly
10
-0.004173
20
-0.019825
30
0.025204
11
-0.003571
21
-0.019963
31
0.025575
12
-0.003329
22
-0.020189
32
0.025529
13
-0.003530
23
-0.020116
33
0.025329
0
3DFACE
8
football_low_poly
10
0.002807
20
0.013298
30
0.027964
11
0.003571
21
0.013292
31
0.027556
12
0.003329
22
0.013076
32
0.027656
13
0.002773
23
0.013062
33
0.027912
0
3DFACE
8
football_low_poly
10
0.002780
20
0.013036
30
0.027729
11
0.002773
21
0.013062
31
0.027912
12
0.003329
22
0.013076
32
0.027656
13
0.003530
23
0.013069
33
0.027435
0
3DFACE
8
football_low_poly
10
0.004173
20
0.013283
30
0.027143
11
0.003530
21
0.013069
31
0.027435
12
0.003329
22
0.013076
32
0.027656
13
0.003571
23
0.013292
33
0.027556
0
3DFACE
8
football_low_poly
10
0.002780
20
0.009277
30
0.028413
11
0.003530
21
0.009166
31
0.028152
12
0.003329
22
0.009218
32
0.028363
13
0.002773
23
0.009301
33
0.028597
0
3DFACE
8
football_low_poly
10
0.002806
20
0.009090
30
0.028750
11
0.002773
21
0.009301
31
0.028597
12
0.003329
22
0.009218
32
0.028363
13
0.003571
23
0.008987
33
0.028365
0
3DFACE
8
football_low_poly
10
0.004173
20
0.008886
30
0.027972
11
0.003571
21
0.008987
31
0.028365
12
0.003329
22
0.009218
32
0.028363
13
0.003530
23
0.009166
33
0.028152
0
3DFACE
8
football_low_poly
10
-0.002806
20
0.009090
30
0.028750
11
-0.003571
21
0.008987
31
0.028365
12
-0.003329
22
0.009218
32
0.028363
13
-0.002773
23
0.009301
33
0.028597
0
3DFACE
8
football_low_poly
10
-0.002780
20
0.009277
30
0.028413
11
-0.002773
21
0.009301
31
0.028597
12
-0.003329
22
0.009218
32
0.028363
13
-0.003530
23
0.009166
33
0.028152
0
3DFACE
8
football_low_poly
10
-0.004173
20
0.008886
30
0.027972
11
-0.003530
21
0.009166
31
0.028152
12
-0.003329
22
0.009218
32
0.028363
13
-0.003571
23
0.008987
33
0.028365
0
3DFACE
8
football_low_poly
10
-0.002780
20
0.001988
30
0.029334
11
-0.002773
21
0.002001
31
0.029519
12
-0.002229
22
0.001995
32
0.029726
13
-0.002291
23
0.001980
33
0.029523
0
3DFACE
8
football_low_poly
10
-0.001497
20
0.001987
30
0.029607
11
-0.002291
21
0.001980
31
0.029523
12
-0.002229
22
0.001995
32
0.029726
13
-0.001443
23
0.002005
33
0.029834
0
3DFACE
8
football_low_poly
10
-0.001344
20
0.002244
30
0.029947
11
-0.001443
21
0.002005
31
0.029834
12
-0.002229
22
0.001995
32
0.029726
13
-0.002168
23
0.002234
33
0.029836
0
3DFACE
8
football_low_poly
10
-0.002806
20
0.002232
30
0.029601
11
-0.002168
21
0.002234
31
0.029836
12
-0.002229
22
0.001995
32
0.029726
13
-0.002773
23
0.002001
33
0.029519
0
3DFACE
8
football_low_poly
10
-0.001497
20
0.003815
30
0.029372
11
-0.001443
21
0.003833
31
0.029599
12
-0.002229
22
0.003823
32
0.029490
13
-0.002291
23
0.003807
33
0.029287
0
3DFACE
8
football_low_poly
10
-0.002780
20
0.003764
30
0.029105
11
-0.002291
21
0.003807
31
0.029287
12
-0.002229
22
0.003823
32
0.029490
13
-0.002773
23
0.003781
33
0.029290
0
3DFACE
8
football_low_poly
10
-0.002806
20
0.003565
30
0.029429
11
-0.002773
21
0.003781
31
0.029290
12
-0.002229
22
0.003823
32
0.029490
13
-0.002168
23
0.003605
33
0.029659
0
3DFACE
8
football_low_poly
10
-0.001344
20
0.003615
30
0.029770
11
-0.002168
21
0.003605
31
0.029659
12
-0.002229
22
0.003823
32
0.029490
13
-0.001443
23
0.003833
33
0.029599
0
3DFACE
8
football_low_poly
10
0.001344
20
-0.002246
30
0.029947
11
0.002168
21
-0.002236
31
0.029836
12
0.002148
22
-0.002923
32
0.029794
13
0.001311
23
-0.002932
33
0.029906
0
3DFACE
8
football_low_poly
10
0.001344
20
-0.003612
30
0.029770
11
0.001311
21
-0.002932
31
0.029906
12
0.002148
22
-0.002923
32
0.029794
13
0.002168
23
-0.003603
33
0.029659
0
3DFACE
8
football_low_poly
10
0.002806
20
0.003565
30
0.029429
11
0.002168
21
0.003605
31
0.029659
12
0.002229
22
0.003823
32
0.029490
13
0.002773
23
0.003781
33
0.029290
0
3DFACE
8
football_low_poly
10
0.001344
20
0.003615
30
0.029770
11
0.001443
21
0.003833
31
0.029599
12
0.002229
22
0.003823
32
0.029490
13
0.002168
23
0.003605
33
0.029659
0
3DFACE
8
football_low_poly
10
0.001497
20
0.003815
30
0.029372
11
0.002291
21
0.003807
31
0.029287
12
0.002229
22
0.003823
32
0.029490
13
0.001443
23
0.003833
33
0.029599
0
3DFACE
8
football_low_poly
10
0.002780
20
0.003764
30
0.029105
11
0.002773
21
0.003781
31
0.029290
12
0.002229
22
0.003823
32
0.029490
13
0.002291
23
0.003807
33
0.029287
0
3DFACE
8
football_low_poly
10
0.002806
20
-0.003563
30
0.029429
11
0.002168
21
-0.003603
31
0.029659
12
0.002148
22
-0.002923
32
0.029794
13
0.002831
23
-0.002901
33
0.029545
0
3DFACE
8
football_low_poly
10
0.002806
20
-0.002234
30
0.029601
11
0.002831
21
-0.002901
31
0.029545
12
0.002148
22
-0.002923
32
0.029794
13
0.002168
23
-0.002236
33
0.029836
0
3DFACE
8
football_low_poly
10
0.002806
20
-0.002234
30
0.029601
11
0.003571
21
-0.002252
31
0.029195
12
0.003681
22
-0.002859
32
0.029097
13
0.002831
23
-0.002901
33
0.029545
0
3DFACE
8
football_low_poly
10
0.002806
20
-0.003563
30
0.029429
11
0.002831
21
-0.002901
31
0.029545
12
0.003681
22
-0.002859
32
0.029097
13
0.003571
23
-0.003471
33
0.029038
0
3DFACE
8
football_low_poly
10
-0.001344
20
-0.014683
30
0.027956
11
-0.000000
21
-0.014689
31
0.027992
12
-0.000000
22
-0.014893
32
0.027793
13
-0.001443
23
-0.014887
33
0.027758
0
3DFACE
8
football_low_poly
10
0.001344
20
-0.014683
30
0.027956
11
0.001443
21
-0.014887
31
0.027758
12
-0.000000
22
-0.014893
32
0.027793
13
-0.000000
23
-0.014689
33
0.027992
0
3DFACE
8
football_low_poly
10
0.001497
20
-0.014852
30
0.027534
11
0.000000
21
-0.014865
31
0.027605
12
-0.000000
22
-0.014893
32
0.027793
13
0.001443
23
-0.014887
33
0.027758
0
3DFACE
8
football_low_poly
10
-0.001497
20
-0.014852
30
0.027534
11
-0.001443
21
-0.014887
31
0.027758
12
-0.000000
22
-0.014893
32
0.027793
13
0.000000
23
-0.014865
33
0.027605
0
3DFACE
8
football_low_poly
10
0.004173
20
-0.003380
30
0.028640
11
0.003571
21
-0.003471
31
0.029038
12
0.003681
22
-0.002859
32
0.029097
13
0.004381
23
-0.002815
33
0.028640
0
3DFACE
8
football_low_poly
10
0.004173
20
-0.002265
30
0.028784
11
0.004381
21
-0.002815
31
0.028640
12
0.003681
22
-0.002859
32
0.029097
13
0.003571
23
-0.002252
33
0.029195
0
3DFACE
8
football_low_poly
10
0.001344
20
-0.018878
30
0.026789
11
0.002168
21
-0.018850
31
0.026683
12
0.002148
22
-0.019523
32
0.026463
13
0.001311
23
-0.019551
33
0.026570
0
3DFACE
8
football_low_poly
10
0.001344
20
-0.020203
30
0.026261
11
0.001311
21
-0.019551
31
0.026570
12
0.002148
22
-0.019523
32
0.026463
13
0.002168
23
-0.020175
33
0.026155
0
3DFACE
8
football_low_poly
10
0.002807
20
-0.020103
30
0.025938
11
0.002168
21
-0.020175
31
0.026155
12
0.002148
22
-0.019523
32
0.026463
13
0.002831
23
-0.019465
33
0.026224
0
3DFACE
8
football_low_poly
10
0.002807
20
-0.018814
30
0.026452
11
0.002831
21
-0.019465
31
0.026224
12
0.002148
22
-0.019523
32
0.026463
13
0.002168
23
-0.018850
33
0.026683
0
3DFACE
8
football_low_poly
10
-0.004173
20
-0.007775
30
0.028188
11
-0.003571
21
-0.007773
31
0.028600
12
-0.003681
22
-0.008376
32
0.028463
13
-0.004381
23
-0.008320
33
0.028009
0
3DFACE
8
football_low_poly
10
-0.004173
20
-0.008883
30
0.027972
11
-0.004381
21
-0.008320
31
0.028009
12
-0.003681
22
-0.008376
32
0.028463
13
-0.003571
23
-0.008985
33
0.028365
0
3DFACE
8
football_low_poly
10
-0.002806
20
-0.009087
30
0.028750
11
-0.003571
21
-0.008985
31
0.028365
12
-0.003681
22
-0.008376
32
0.028463
13
-0.002831
23
-0.008431
33
0.028908
0
3DFACE
8
football_low_poly
10
-0.002806
20
-0.007767
30
0.029007
11
-0.002831
21
-0.008431
31
0.028908
12
-0.003681
22
-0.008376
32
0.028463
13
-0.003571
23
-0.007773
33
0.028600
0
3DFACE
8
football_low_poly
10
-0.004173
20
-0.002265
30
0.028784
11
-0.003571
21
-0.002252
31
0.029195
12
-0.003681
22
-0.002859
32
0.029097
13
-0.004381
23
-0.002815
33
0.028640
0
3DFACE
8
football_low_poly
10
-0.004173
20
-0.003380
30
0.028640
11
-0.004381
21
-0.002815
31
0.028640
12
-0.003681
22
-0.002859
32
0.029097
13
-0.003571
23
-0.003471
33
0.029038
0
3DFACE
8
football_low_poly
10
-0.002806
20
-0.003563
30
0.029429
11
-0.003571
21
-0.003471
31
0.029038
12
-0.003681
22
-0.002859
32
0.029097
13
-0.002831
23
-0.002901
33
0.029545
0
3DFACE
8
football_low_poly
10
-0.002806
20
-0.002234
30
0.029601
11
-0.002831
21
-0.002901
31
0.029545
12
-0.003681
22
-0.002859
32
0.029097
13
-0.003571
23
-0.002252
33
0.029195
0
3DFACE
8
football_low_poly
10
0.002806
20
-0.007767
30
0.029007
11
0.003571
21
-0.007773
31
0.028600
12
0.003681
22
-0.008376
32
0.028463
13
0.002831
23
-0.008431
33
0.028908
0
3DFACE
8
football_low_poly
10
0.002806
20
-0.009087
30
0.028750
11
0.002831
21
-0.008431
31
0.028908
12
0.003681
22
-0.008376
32
0.028463
13
0.003571
23
-0.008985
33
0.028365
0
3DFACE
8
football_low_poly
10
0.001344
20
-0.013334
30
0.028307
11
-0.000000
21
-0.013340
31
0.028343
12
-0.000000
22
-0.013094
32
0.028261
13
0.001443
23
-0.013088
33
0.028226
0
3DFACE
8
football_low_poly
10
-0.001344
20
-0.013334
30
0.028307
11
-0.001443
21
-0.013088
31
0.028226
12
-0.000000
22
-0.013094
32
0.028261
13
-0.000000
23
-0.013340
33
0.028343
0
3DFACE
8
football_low_poly
10
-0.001497
20
-0.013053
30
0.028002
11
0.000000
21
-0.013066
31
0.028073
12
-0.000000
22
-0.013094
32
0.028261
13
-0.001443
23
-0.013088
33
0.028226
0
3DFACE
8
football_low_poly
10
0.001497
20
-0.013053
30
0.028002
11
0.001443
21
-0.013088
31
0.028226
12
-0.000000
22
-0.013094
32
0.028261
13
0.000000
23
-0.013066
33
0.028073
0
3DFACE
8
football_low_poly
10
-0.001344
20
-0.013334
30
0.028307
11
-0.002168
21
-0.013315
31
0.028198
12
-0.002229
22
-0.013069
32
0.028119
13
-0.001443
23
-0.013088
33
0.028226
0
3DFACE
8
football_low_poly
10
-0.002807
20
-0.013297
30
0.027964
11
-0.002773
21
-0.013060
31
0.027912
12
-0.002229
22
-0.013069
32
0.028119
13
-0.002168
23
-0.013315
33
0.028198
0
3DFACE
8
football_low_poly
10
-0.002780
20
-0.013034
30
0.027729
11
-0.002291
21
-0.013038
31
0.027919
12
-0.002229
22
-0.013069
32
0.028119
13
-0.002773
23
-0.013060
33
0.027912
0
3DFACE
8
football_low_poly
10
-0.001497
20
-0.013053
30
0.028002
11
-0.001443
21
-0.013088
31
0.028226
12
-0.002229
22
-0.013069
32
0.028119
13
-0.002291
23
-0.013038
33
0.027919
0
3DFACE
8
football_low_poly
10
0.004173
20
-0.008883
30
0.027972
11
0.003571
21
-0.008985
31
0.028365
12
0.003681
22
-0.008376
32
0.028463
13
0.004381
23
-0.008320
33
0.028009
0
3DFACE
8
football_low_poly
10
0.004173
20
-0.007775
30
0.028188
11
0.004381
21
-0.008320
31
0.028009
12
0.003681
22
-0.008376
32
0.028463
13
0.003571
23
-0.007773
33
0.028600
0
3DFACE
8
football_low_poly
10
-0.004173
20
-0.018744
30
0.025635
11
-0.003571
21
-0.018780
31
0.026046
12
-0.003681
22
-0.019368
32
0.025791
13
-0.004381
23
-0.019269
33
0.025350
0
3DFACE
8
football_low_poly
10
-0.004173
20
-0.019825
30
0.025204
11
-0.004381
21
-0.019269
31
0.025350
12
-0.003681
22
-0.019368
32
0.025791
13
-0.003571
23
-0.019963
33
0.025575
0
3DFACE
8
football_low_poly
10
-0.002807
20
-0.020103
30
0.025938
11
-0.003571
21
-0.019963
31
0.025575
12
-0.003681
22
-0.019368
32
0.025791
13
-0.002831
23
-0.019465
33
0.026224
0
3DFACE
8
football_low_poly
10
-0.002807
20
-0.018814
30
0.026452
11
-0.002831
21
-0.019465
31
0.026224
12
-0.003681
22
-0.019368
32
0.025791
13
-0.003571
23
-0.018780
33
0.026046
0
3DFACE
8
football_low_poly
10
-0.001344
20
-0.014683
30
0.027956
11
-0.001311
21
-0.014015
31
0.028178
12
-0.000000
22
-0.014022
32
0.028215
13
-0.000000
23
-0.014689
33
0.027992
0
3DFACE
8
football_low_poly
10
0.001344
20
-0.014683
30
0.027956
11
-0.000000
21
-0.014689
31
0.027992
12
-0.000000
22
-0.014022
32
0.028215
13
0.001311
23
-0.014015
33
0.028178
0
3DFACE
8
football_low_poly
10
0.001344
20
-0.013334
30
0.028307
11
0.001311
21
-0.014015
31
0.028178
12
-0.000000
22
-0.014022
32
0.028215
13
-0.000000
23
-0.013340
33
0.028343
0
3DFACE
8
football_low_poly
10
-0.001344
20
-0.013334
30
0.028307
11
-0.000000
21
-0.013340
31
0.028343
12
-0.000000
22
-0.014022
32
0.028215
13
-0.001311
23
-0.014015
33
0.028178
0
3DFACE
8
football_low_poly
10
-0.002807
20
-0.013297
30
0.027964
11
-0.002168
21
-0.013315
31
0.028198
12
-0.002148
22
-0.013996
32
0.028068
13
-0.002831
23
-0.013957
33
0.027823
0
3DFACE
8
football_low_poly
10
-0.002807
20
-0.014608
30
0.027622
11
-0.002831
21
-0.013957
31
0.027823
12
-0.002148
22
-0.013996
32
0.028068
13
-0.002168
23
-0.014664
33
0.027847
0
3DFACE
8
football_low_poly
10
-0.001344
20
-0.014683
30
0.027956
11
-0.002168
21
-0.014664
31
0.027847
12
-0.002148
22
-0.013996
32
0.028068
13
-0.001311
23
-0.014015
33
0.028178
0
3DFACE
8
football_low_poly
10
-0.001344
20
-0.013334
30
0.028307
11
-0.001311
21
-0.014015
31
0.028178
12
-0.002148
22
-0.013996
32
0.028068
13
-0.002168
23
-0.013315
33
0.028198
0
3DFACE
8
football_low_poly
10
-0.001344
20
-0.009149
30
0.029088
11
-0.001311
21
-0.008476
31
0.029267
12
0.000000
22
-0.008480
32
0.029304
13
0.000000
23
-0.009154
33
0.029124
0
3DFACE
8
football_low_poly
10
0.001344
20
-0.009149
30
0.029088
11
0.000000
21
-0.009154
31
0.029124
12
0.000000
22
-0.008480
32
0.029304
13
0.001311
23
-0.008476
33
0.029267
0
3DFACE
8
football_low_poly
10
0.001344
20
-0.007791
30
0.029352
11
0.001311
21
-0.008476
31
0.029267
12
0.000000
22
-0.008480
32
0.029304
13
0.000000
23
-0.007796
33
0.029388
0
3DFACE
8
football_low_poly
10
-0.001344
20
-0.007791
30
0.029352
11
0.000000
21
-0.007796
31
0.029388
12
0.000000
22
-0.008480
32
0.029304
13
-0.001311
23
-0.008476
33
0.029267
0
3DFACE
8
football_low_poly
10
-0.004173
20
-0.013282
30
0.027143
11
-0.003571
21
-0.013291
31
0.027556
12
-0.003681
22
-0.013890
32
0.027381
13
-0.004381
23
-0.013822
33
0.026929
0
3DFACE
8
football_low_poly
10
-0.004173
20
-0.014383
30
0.026857
11
-0.004381
21
-0.013822
31
0.026929
12
-0.003681
22
-0.013890
32
0.027381
13
-0.003571
23
-0.014495
33
0.027243
0
3DFACE
8
football_low_poly
10
-0.002807
20
-0.014608
30
0.027622
11
-0.002168
21
-0.014664
31
0.027847
12
-0.002229
22
-0.014868
32
0.027651
13
-0.002773
23
-0.014812
33
0.027456
0
3DFACE
8
football_low_poly
10
-0.001344
20
-0.014683
30
0.027956
11
-0.001443
21
-0.014887
31
0.027758
12
-0.002229
22
-0.014868
32
0.027651
13
-0.002168
23
-0.014664
33
0.027847
0
3DFACE
8
football_low_poly
10
-0.001497
20
-0.014852
30
0.027534
11
-0.002291
21
-0.014837
31
0.027451
12
-0.002229
22
-0.014868
32
0.027651
13
-0.001443
23
-0.014887
33
0.027758
0
3DFACE
8
football_low_poly
10
-0.002780
20
-0.014781
30
0.027274
11
-0.002773
21
-0.014812
31
0.027456
12
-0.002229
22
-0.014868
32
0.027651
13
-0.002291
23
-0.014837
33
0.027451
0
3DFACE
8
football_low_poly
10
-0.002807
20
-0.014608
30
0.027622
11
-0.003571
21
-0.014495
31
0.027243
12
-0.003681
22
-0.013890
32
0.027381
13
-0.002831
23
-0.013957
33
0.027823
0
3DFACE
8
football_low_poly
10
-0.002807
20
-0.013297
30
0.027964
11
-0.002831
21
-0.013957
31
0.027823
12
-0.003681
22
-0.013890
32
0.027381
13
-0.003571
23
-0.013291
33
0.027556
0
3DFACE
8
football_low_poly
10
-0.002806
20
-0.007767
30
0.029007
11
-0.002168
21
-0.007777
31
0.029241
12
-0.002148
22
-0.008461
32
0.029156
13
-0.002831
23
-0.008431
33
0.028908
0
3DFACE
8
football_low_poly
10
-0.002806
20
-0.009087
30
0.028750
11
-0.002831
21
-0.008431
31
0.028908
12
-0.002148
22
-0.008461
32
0.029156
13
-0.002168
23
-0.009135
33
0.028977
0
3DFACE
8
football_low_poly
10
-0.001344
20
-0.009149
30
0.029088
11
0.000000
21
-0.009154
31
0.029124
12
0.000000
22
-0.009364
32
0.028938
13
-0.001443
23
-0.009360
33
0.028902
0
3DFACE
8
football_low_poly
10
0.001344
20
-0.009149
30
0.029088
11
0.001443
21
-0.009360
31
0.028902
12
0.000000
22
-0.009364
32
0.028938
13
0.000000
23
-0.009154
33
0.029124
0
3DFACE
8
football_low_poly
10
0.001497
20
-0.009334
30
0.028677
11
0.000000
21
-0.009343
31
0.028749
12
0.000000
22
-0.009364
32
0.028938
13
0.001443
23
-0.009360
33
0.028902
0
3DFACE
8
football_low_poly
10
-0.001497
20
-0.009334
30
0.028677
11
-0.001443
21
-0.009360
31
0.028902
12
0.000000
22
-0.009364
32
0.028938
13
0.000000
23
-0.009343
33
0.028749
0
3DFACE
8
football_low_poly
10
0.001344
20
-0.007791
30
0.029352
11
0.000000
21
-0.007796
31
0.029388
12
0.000000
22
-0.007554
32
0.029290
13
0.001443
23
-0.007549
33
0.029255
0
3DFACE
8
football_low_poly
10
-0.001344
20
-0.007791
30
0.029352
11
-0.001443
21
-0.007549
31
0.029255
12
0.000000
22
-0.007554
32
0.029290
13
0.000000
23
-0.007796
33
0.029388
0
3DFACE
8
football_low_poly
10
-0.001497
20
-0.007524
30
0.029029
11
0.000000
21
-0.007533
31
0.029101
12
0.000000
22
-0.007554
32
0.029290
13
-0.001443
23
-0.007549
33
0.029255
0
3DFACE
8
football_low_poly
10
0.001497
20
-0.007524
30
0.029029
11
0.001443
21
-0.007549
31
0.029255
12
0.000000
22
-0.007554
32
0.029290
13
0.000000
23
-0.007533
33
0.029101
0
3DFACE
8
football_low_poly
10
-0.004173
20
-0.013282
30
0.027143
11
-0.003530
21
-0.013067
31
0.027435
12
-0.003329
22
-0.013075
32
0.027656
13
-0.003571
23
-0.013291
33
0.027556
0
3DFACE
8
football_low_poly
10
-0.002780
20
-0.013034
30
0.027729
11
-0.002773
21
-0.013060
31
0.027912
12
-0.003329
22
-0.013075
32
0.027656
13
-0.003530
23
-0.013067
33
0.027435
0
3DFACE
8
football_low_poly
10
-0.002807
20
-0.013297
30
0.027964
11
-0.003571
21
-0.013291
31
0.027556
12
-0.003329
22
-0.013075
32
0.027656
13
-0.002773
23
-0.013060
33
0.027912
0
3DFACE
8
football_low_poly
10
-0.001344
20
-0.009149
30
0.029088
11
-0.002168
21
-0.009135
31
0.028977
12
-0.002148
22
-0.008461
32
0.029156
13
-0.001311
23
-0.008476
33
0.029267
0
3DFACE
8
football_low_poly
10
-0.001344
20
-0.007791
30
0.029352
11
-0.001311
21
-0.008476
31
0.029267
12
-0.002148
22
-0.008461
32
0.029156
13
-0.002168
23
-0.007777
33
0.029241
0
3DFACE
8
football_low_poly
10
-0.001344
20
-0.002246
30
0.029947
11
0.000000
21
-0.002249
31
0.029984
12
0.000000
22
-0.002936
32
0.029943
13
-0.001311
23
-0.002932
33
0.029906
0
3DFACE
8
football_low_poly
10
-0.001344
20
-0.003612
30
0.029770
11
-0.001311
21
-0.002932
31
0.029906
12
0.000000
22
-0.002936
32
0.029943
13
0.000000
23
-0.003615
33
0.029807
0
3DFACE
8
football_low_poly
10
-0.004173
20
-0.008883
30
0.027972
11
-0.003571
21
-0.008985
31
0.028365
12
-0.003329
22
-0.009215
32
0.028363
13
-0.003530
23
-0.009162
33
0.028152
0
3DFACE
8
football_low_poly
10
-0.002806
20
-0.009087
30
0.028750
11
-0.002773
21
-0.009297
31
0.028597
12
-0.003329
22
-0.009215
32
0.028363
13
-0.003571
23
-0.008985
33
0.028365
0
3DFACE
8
football_low_poly
10
-0.002780
20
-0.009273
30
0.028413
11
-0.003530
21
-0.009162
31
0.028152
12
-0.003329
22
-0.009215
32
0.028363
13
-0.002773
23
-0.009297
33
0.028597
0
3DFACE
8
football_low_poly
10
0.001344
20
0.002244
30
0.029947
11
0.002168
21
0.002234
31
0.029836
12
0.002229
22
0.001995
32
0.029726
13
0.001443
23
0.002005
33
0.029834
0
3DFACE
8
football_low_poly
10
0.002806
20
0.002232
30
0.029601
11
0.002773
21
0.002001
31
0.029519
12
0.002229
22
0.001995
32
0.029726
13
0.002168
23
0.002234
33
0.029836
0
3DFACE
8
football_low_poly
10
0.002780
20
0.001988
30
0.029334
11
0.002291
21
0.001980
31
0.029523
12
0.002229
22
0.001995
32
0.029726
13
0.002773
23
0.002001
33
0.029519
0
3DFACE
8
football_low_poly
10
0.001497
20
0.001987
30
0.029607
11
0.001443
21
0.002005
31
0.029834
12
0.002229
22
0.001995
32
0.029726
13
0.002291
23
0.001980
33
0.029523
0
3DFACE
8
football_low_poly
10
0.001344
20
-0.003612
30
0.029770
11
0.000000
21
-0.003615
31
0.029807
12
0.000000
22
-0.002936
32
0.029943
13
0.001311
23
-0.002932
33
0.029906
0
3DFACE
8
football_low_poly
10
0.001344
20
-0.002246
30
0.029947
11
0.001311
21
-0.002932
31
0.029906
12
0.000000
22
-0.002936
32
0.029943
13
0.000000
23
-0.002249
33
0.029984
0
3DFACE
8
football_low_poly
10
0.001344
20
-0.007791
30
0.029352
11
0.002168
21
-0.007777
31
0.029241
12
0.002148
22
-0.008461
32
0.029156
13
0.001311
23
-0.008476
33
0.029267
0
3DFACE
8
football_low_poly
10
0.001344
20
-0.009149
30
0.029088
11
0.001311
21
-0.008476
31
0.029267
12
0.002148
22
-0.008461
32
0.029156
13
0.002168
23
-0.009135
33
0.028977
0
3DFACE
8
football_low_poly
10
0.002806
20
-0.009087
30
0.028750
11
0.002168
21
-0.009135
31
0.028977
12
0.002148
22
-0.008461
32
0.029156
13
0.002831
23
-0.008431
33
0.028908
0
3DFACE
8
football_low_poly
10
0.002806
20
-0.007767
30
0.029007
11
0.002831
21
-0.008431
31
0.028908
12
0.002148
22
-0.008461
32
0.029156
13
0.002168
23
-0.007777
33
0.029241
0
3DFACE
8
football_low_poly
10
-0.001344
20
-0.020203
30
0.026261
11
-0.001311
21
-0.019551
31
0.026570
12
0.000000
22
-0.019560
32
0.026606
13
0.000000
23
-0.020212
33
0.026296
0
3DFACE
8
football_low_poly
10
0.001344
20
-0.020203
30
0.026261
11
0.000000
21
-0.020212
31
0.026296
12
0.000000
22
-0.019560
32
0.026606
13
0.001311
23
-0.019551
33
0.026570
0
3DFACE
8
football_low_poly
10
0.001344
20
-0.018878
30
0.026789
11
0.001311
21
-0.019551
31
0.026570
12
0.000000
22
-0.019560
32
0.026606
13
0.000000
23
-0.018887
33
0.026824
0
3DFACE
8
football_low_poly
10
-0.001344
20
-0.018878
30
0.026789
11
0.000000
21
-0.018887
31
0.026824
12
0.000000
22
-0.019560
32
0.026606
13
-0.001311
23
-0.019551
33
0.026570
0
3DFACE
8
football_low_poly
10
-0.002807
20
-0.018814
30
0.026452
11
-0.002168
21
-0.018850
31
0.026683
12
-0.002148
22
-0.019523
32
0.026463
13
-0.002831
23
-0.019465
33
0.026224
0
3DFACE
8
football_low_poly
10
-0.002807
20
-0.020103
30
0.025938
11
-0.002831
21
-0.019465
31
0.026224
12
-0.002148
22
-0.019523
32
0.026463
13
-0.002168
23
-0.020175
33
0.026155
0
3DFACE
8
football_low_poly
10
-0.001344
20
-0.020203
30
0.026261
11
-0.002168
21
-0.020175
31
0.026155
12
-0.002148
22
-0.019523
32
0.026463
13
-0.001311
23
-0.019551
33
0.026570
0
3DFACE
8
football_low_poly
10
-0.001344
20
-0.018878
30
0.026789
11
-0.001311
21
-0.019551
31
0.026570
12
-0.002148
22
-0.019523
32
0.026463
13
-0.002168
23
-0.018850
33
0.026683
0
3DFACE
8
football_low_poly
10
0.002807
20
-0.018814
30
0.026452
11
0.003571
21
-0.018780
31
0.026046
12
0.003681
22
-0.019368
32
0.025791
13
0.002831
23
-0.019465
33
0.026224
0
3DFACE
8
football_low_poly
10
0.002807
20
-0.020103
30
0.025938
11
0.002831
21
-0.019465
31
0.026224
12
0.003681
22
-0.019368
32
0.025791
13
0.003571
23
-0.019963
33
0.025575
0
3DFACE
8
football_low_poly
10
0.004173
20
-0.019825
30
0.025204
11
0.003571
21
-0.019963
31
0.025575
12
0.003681
22
-0.019368
32
0.025791
13
0.004381
23
-0.019269
33
0.025350
0
3DFACE
8
football_low_poly
10
0.004173
20
-0.018744
30
0.025635
11
0.004381
21
-0.019269
31
0.025350
12
0.003681
22
-0.019368
32
0.025791
13
0.003571
23
-0.018780
33
0.026046
0
3DFACE
8
football_low_poly
10
0.002807
20
-0.013297
30
0.027964
11
0.003571
21
-0.013291
31
0.027556
12
0.003681
22
-0.013890
32
0.027381
13
0.002831
23
-0.013957
33
0.027823
0
3DFACE
8
football_low_poly
10
0.002807
20
-0.014608
30
0.027622
11
0.002831
21
-0.013957
31
0.027823
12
0.003681
22
-0.013890
32
0.027381
13
0.003571
23
-0.014495
33
0.027243
0
3DFACE
8
football_low_poly
10
-0.001344
20
-0.007791
30
0.029352
11
-0.002168
21
-0.007777
31
0.029241
12
-0.002229
22
-0.007536
32
0.029147
13
-0.001443
23
-0.007549
33
0.029255
0
3DFACE
8
football_low_poly
10
-0.002806
20
-0.007767
30
0.029007
11
-0.002773
21
-0.007534
31
0.028940
12
-0.002229
22
-0.007536
32
0.029147
13
-0.002168
23
-0.007777
33
0.029241
0
3DFACE
8
football_low_poly
10
-0.002780
20
-0.007514
30
0.028756
11
-0.002291
21
-0.007512
31
0.028945
12
-0.002229
22
-0.007536
32
0.029147
13
-0.002773
23
-0.007534
33
0.028940
0
3DFACE
8
football_low_poly
10
-0.001497
20
-0.007524
30
0.029029
11
-0.001443
21
-0.007549
31
0.029255
12
-0.002229
22
-0.007536
32
0.029147
13
-0.002291
23
-0.007512
33
0.028945
0
3DFACE
8
football_low_poly
10
-0.002806
20
-0.009087
30
0.028750
11
-0.002168
21
-0.009135
31
0.028977
12
-0.002229
22
-0.009346
32
0.028795
13
-0.002773
23
-0.009297
33
0.028597
0
3DFACE
8
football_low_poly
10
-0.001344
20
-0.009149
30
0.029088
11
-0.001443
21
-0.009360
31
0.028902
12
-0.002229
22
-0.009346
32
0.028795
13
-0.002168
23
-0.009135
33
0.028977
0
3DFACE
8
football_low_poly
10
-0.001497
20
-0.009334
30
0.028677
11
-0.002291
21
-0.009322
31
0.028593
12
-0.002229
22
-0.009346
32
0.028795
13
-0.001443
23
-0.009360
33
0.028902
0
3DFACE
8
football_low_poly
10
-0.002780
20
-0.009273
30
0.028413
11
-0.002773
21
-0.009297
31
0.028597
12
-0.002229
22
-0.009346
32
0.028795
13
-0.002291
23
-0.009322
33
0.028593
0
3DFACE
8
football_low_poly
10
0.004173
20
-0.014383
30
0.026857
11
0.003571
21
-0.014495
31
0.027243
12
0.003681
22
-0.013890
32
0.027381
13
0.004381
23
-0.013822
33
0.026929
0
3DFACE
8
football_low_poly
10
0.004173
20
-0.013282
30
0.027143
11
0.004381
21
-0.013822
31
0.026929
12
0.003681
22
-0.013890
32
0.027381
13
0.003571
23
-0.013291
33
0.027556
0
3DFACE
8
football_low_poly
10
-0.002806
20
-0.002234
30
0.029601
11
-0.002168
21
-0.002236
31
0.029836
12
-0.002148
22
-0.002923
32
0.029794
13
-0.002831
23
-0.002901
33
0.029545
0
3DFACE
8
football_low_poly
10
-0.002806
20
-0.003563
30
0.029429
11
-0.002831
21
-0.002901
31
0.029545
12
-0.002148
22
-0.002923
32
0.029794
13
-0.002168
23
-0.003603
33
0.029659
0
3DFACE
8
football_low_poly
10
-0.001344
20
-0.003612
30
0.029770
11
-0.002168
21
-0.003603
31
0.029659
12
-0.002148
22
-0.002923
32
0.029794
13
-0.001311
23
-0.002932
33
0.029906
0
3DFACE
8
football_low_poly
10
-0.001344
20
-0.002246
30
0.029947
11
-0.001311
21
-0.002932
31
0.029906
12
-0.002148
22
-0.002923
32
0.029794
13
-0.002168
23
-0.002236
33
0.029836
0
3DFACE
8
football_low_poly
10
0.002807
20
0.013298
30
0.027964
11
0.002168
21
0.013316
31
0.028198
12
0.002148
22
0.013996
32
0.028068
13
0.002831
23
0.013957
33
0.027823
0
3DFACE
8
football_low_poly
10
0.002807
20
0.014607
30
0.027622
11
0.002831
21
0.013957
31
0.027823
12
0.002148
22
0.013996
32
0.028068
13
0.002168
23
0.014662
33
0.027847
0
3DFACE
8
football_low_poly
10
0.001344
20
0.014681
30
0.027956
11
0.002168
21
0.014662
31
0.027847
12
0.002148
22
0.013996
32
0.028068
13
0.001311
23
0.014015
33
0.028178
0
3DFACE
8
football_low_poly
10
0.001344
20
0.013335
30
0.028307
11
0.001311
21
0.014015
31
0.028178
12
0.002148
22
0.013996
32
0.028068
13
0.002168
23
0.013316
33
0.028198
0
3DFACE
8
football_low_poly
10
0.002806
20
0.002232
30
0.029601
11
0.002168
21
0.002234
31
0.029836
12
0.002148
22
0.002923
32
0.029794
13
0.002831
23
0.002901
33
0.029545
0
3DFACE
8
football_low_poly
10
0.002806
20
0.003565
30
0.029429
11
0.002831
21
0.002901
31
0.029545
12
0.002148
22
0.002923
32
0.029794
13
0.002168
23
0.003605
33
0.029659
0
3DFACE
8
football_low_poly
10
0.001344
20
-0.002246
30
0.029947
11
0.000000
21
-0.002249
31
0.029984
12
0.000000
22
-0.002011
32
0.029870
13
0.001443
23
-0.002007
33
0.029834
0
3DFACE
8
football_low_poly
10
-0.001344
20
-0.002246
30
0.029947
11
-0.001443
21
-0.002007
31
0.029834
12
0.000000
22
-0.002011
32
0.029870
13
0.000000
23
-0.002249
33
0.029984
0
3DFACE
8
football_low_poly
10
-0.001497
20
-0.001990
30
0.029607
11
0.000000
21
-0.001996
31
0.029680
12
0.000000
22
-0.002011
32
0.029870
13
-0.001443
23
-0.002007
33
0.029834
0
3DFACE
8
football_low_poly
10
0.001497
20
-0.001990
30
0.029607
11
0.001443
21
-0.002007
31
0.029834
12
0.000000
22
-0.002011
32
0.029870
13
0.000000
23
-0.001996
33
0.029680
0
3DFACE
8
football_low_poly
10
0.001344
20
0.003615
30
0.029770
11
0.002168
21
0.003605
31
0.029659
12
0.002148
22
0.002923
32
0.029794
13
0.001311
23
0.002933
33
0.029906
0
3DFACE
8
football_low_poly
10
0.001344
20
0.002244
30
0.029947
11
0.001311
21
0.002933
31
0.029906
12
0.002148
22
0.002923
32
0.029794
13
0.002168
23
0.002234
33
0.029836
0
3DFACE
8
football_low_poly
10
0.004173
20
0.002263
30
0.028784
11
0.003571
21
0.002250
31
0.029195
12
0.003681
22
0.002859
32
0.029097
13
0.004381
23
0.002815
33
0.028640
0
3DFACE
8
football_low_poly
10
0.004173
20
0.003382
30
0.028640
11
0.004381
21
0.002815
31
0.028640
12
0.003681
22
0.002859
32
0.029097
13
0.003571
23
0.003473
33
0.029038
0
3DFACE
8
football_low_poly
10
0.002806
20
0.003565
30
0.029429
11
0.003571
21
0.003473
31
0.029038
12
0.003681
22
0.002859
32
0.029097
13
0.002831
23
0.002901
33
0.029545
0
3DFACE
8
football_low_poly
10
0.002806
20
0.002232
30
0.029601
11
0.002831
21
0.002901
31
0.029545
12
0.003681
22
0.002859
32
0.029097
13
0.003571
23
0.002250
33
0.029195
0
3DFACE
8
football_low_poly
10
0.002807
20
0.018829
30
0.026452
11
0.002168
21
0.018864
31
0.026683
12
0.002148
22
0.019521
32
0.026463
13
0.002831
23
0.019465
33
0.026224
0
3DFACE
8
football_low_poly
10
0.002807
20
0.020087
30
0.025938
11
0.002831
21
0.019465
31
0.026224
12
0.002148
22
0.019521
32
0.026463
13
0.002168
23
0.020157
33
0.026155
0
3DFACE
8
football_low_poly
10
0.001344
20
0.020185
30
0.026261
11
0.002168
21
0.020157
31
0.026155
12
0.002148
22
0.019521
32
0.026463
13
0.001311
23
0.019548
33
0.026570
0
3DFACE
8
football_low_poly
10
0.001344
20
0.018891
30
0.026789
11
0.001311
21
0.019548
31
0.026570
12
0.002148
22
0.019521
32
0.026463
13
0.002168
23
0.018864
33
0.026683
0
3DFACE
8
football_low_poly
10
-0.002806
20
0.007764
30
0.029007
11
-0.003571
21
0.007770
31
0.028600
12
-0.003681
22
0.008376
32
0.028463
13
-0.002831
23
0.008431
33
0.028908
0
3DFACE
8
football_low_poly
10
-0.002806
20
0.009090
30
0.028750
11
-0.002831
21
0.008431
31
0.028908
12
-0.003681
22
0.008376
32
0.028463
13
-0.003571
23
0.008987
33
0.028365
0
3DFACE
8
football_low_poly
10
-0.004173
20
0.008886
30
0.027972
11
-0.003571
21
0.008987
31
0.028365
12
-0.003681
22
0.008376
32
0.028463
13
-0.004381
23
0.008320
33
0.028009
0
3DFACE
8
football_low_poly
10
-0.004173
20
0.007773
30
0.028188
11
-0.004381
21
0.008320
31
0.028009
12
-0.003681
22
0.008376
32
0.028463
13
-0.003571
23
0.007770
33
0.028600
0
3DFACE
8
football_low_poly
10
-0.002806
20
0.002232
30
0.029601
11
-0.003571
21
0.002250
31
0.029195
12
-0.003681
22
0.002859
32
0.029097
13
-0.002831
23
0.002901
33
0.029545
0
3DFACE
8
football_low_poly
10
-0.002806
20
0.003565
30
0.029429
11
-0.002831
21
0.002901
31
0.029545
12
-0.003681
22
0.002859
32
0.029097
13
-0.003571
23
0.003473
33
0.029038
0
3DFACE
8
football_low_poly
10
-0.004173
20
0.003382
30
0.028640
11
-0.003571
21
0.003473
31
0.029038
12
-0.003681
22
0.002859
32
0.029097
13
-0.004381
23
0.002815
33
0.028640
0
3DFACE
8
football_low_poly
10
-0.004173
20
0.002263
30
0.028784
11
-0.004381
21
0.002815
31
0.028640
12
-0.003681
22
0.002859
32
0.029097
13
-0.003571
23
0.002250
33
0.029195
0
3DFACE
8
football_low_poly
10
0.004173
20
0.007773
30
0.028188
11
0.003571
21
0.007770
31
0.028600
12
0.003681
22
0.008376
32
0.028463
13
0.004381
23
0.008320
33
0.028009
0
3DFACE
8
football_low_poly
10
0.004173
20
0.008886
30
0.027972
11
0.004381
21
0.008320
31
0.028009
12
0.003681
22
0.008376
32
0.028463
13
0.003571
23
0.008987
33
0.028365
0
3DFACE
8
football_low_poly
10
-0.001344
20
-0.003612
30
0.029770
11
0.000000
21
-0.003615
31
0.029807
12
0.000000
22
-0.003833
32
0.029635
13
-0.001443
23
-0.003829
33
0.029599
0
3DFACE
8
football_low_poly
10
0.001344
20
-0.003612
30
0.029770
11
0.001443
21
-0.003829
31
0.029599
12
0.000000
22
-0.003833
32
0.029635
13
0.000000
23
-0.003615
33
0.029807
0
3DFACE
8
football_low_poly
10
0.001497
20
-0.003812
30
0.029372
11
0.000000
21
-0.003818
31
0.029445
12
0.000000
22
-0.003833
32
0.029635
13
0.001443
23
-0.003829
33
0.029599
0
3DFACE
8
football_low_poly
10
-0.001497
20
-0.003812
30
0.029372
11
-0.001443
21
-0.003829
31
0.029599
12
0.000000
22
-0.003833
32
0.029635
13
0.000000
23
-0.003818
33
0.029445
0
3DFACE
8
football_low_poly
10
0.002806
20
-0.007767
30
0.029007
11
0.002168
21
-0.007777
31
0.029241
12
0.002229
22
-0.007536
32
0.029147
13
0.002773
23
-0.007534
33
0.028940
0
3DFACE
8
football_low_poly
10
0.001344
20
-0.007791
30
0.029352
11
0.001443
21
-0.007549
31
0.029255
12
0.002229
22
-0.007536
32
0.029147
13
0.002168
23
-0.007777
33
0.029241
0
3DFACE
8
football_low_poly
10
0.001497
20
-0.007524
30
0.029029
11
0.002291
21
-0.007512
31
0.028945
12
0.002229
22
-0.007536
32
0.029147
13
0.001443
23
-0.007549
33
0.029255
0
3DFACE
8
football_low_poly
10
0.002780
20
-0.007514
30
0.028756
11
0.002773
21
-0.007534
31
0.028940
12
0.002229
22
-0.007536
32
0.029147
13
0.002291
23
-0.007512
33
0.028945
0
3DFACE
8
football_low_poly
10
0.002806
20
0.009090
30
0.028750
11
0.003571
21
0.008987
31
0.028365
12
0.003681
22
0.008376
32
0.028463
13
0.002831
23
0.008431
33
0.028908
0
3DFACE
8
football_low_poly
10
0.002806
20
0.007764
30
0.029007
11
0.002831
21
0.008431
31
0.028908
12
0.003681
22
0.008376
32
0.028463
13
0.003571
23
0.007770
33
0.028600
0
3DFACE
8
football_low_poly
10
-0.002807
20
0.018829
30
0.026452
11
-0.003571
21
0.018796
31
0.026046
12
-0.003681
22
0.019369
32
0.025791
13
-0.002831
23
0.019465
33
0.026224
0
3DFACE
8
football_low_poly
10
-0.002807
20
0.020087
30
0.025938
11
-0.002831
21
0.019465
31
0.026224
12
-0.003681
22
0.019369
32
0.025791
13
-0.003571
23
0.019950
33
0.025575
0
3DFACE
8
football_low_poly
10
-0.004173
20
0.019815
30
0.025204
11
-0.003571
21
0.019950
31
0.025575
12
-0.003681
22
0.019369
32
0.025791
13
-0.004381
23
0.019274
33
0.025350
0
3DFACE
8
football_low_poly
10
-0.004173
20
0.018760
30
0.025635
11
-0.004381
21
0.019274
31
0.025350
12
-0.003681
22
0.019369
32
0.025791
13
-0.003571
23
0.018796
33
0.026046
0
3DFACE
8
football_low_poly
10
-0.001344
20
0.013335
30
0.028307
11
-0.001311
21
0.014015
31
0.028178
12
-0.000000
22
0.014021
32
0.028215
13
-0.000000
23
0.013341
33
0.028343
0
3DFACE
8
football_low_poly
10
0.001344
20
0.013335
30
0.028307
11
-0.000000
21
0.013341
31
0.028343
12
-0.000000
22
0.014021
32
0.028215
13
0.001311
23
0.014015
33
0.028178
0
3DFACE
8
football_low_poly
10
0.001344
20
-0.009149
30
0.029088
11
0.002168
21
-0.009135
31
0.028977
12
0.002229
22
-0.009346
32
0.028795
13
0.001443
23
-0.009360
33
0.028902
0
3DFACE
8
football_low_poly
10
0.002806
20
-0.009087
30
0.028750
11
0.002773
21
-0.009297
31
0.028597
12
0.002229
22
-0.009346
32
0.028795
13
0.002168
23
-0.009135
33
0.028977
0
3DFACE
8
football_low_poly
10
0.002780
20
-0.009273
30
0.028413
11
0.002291
21
-0.009322
31
0.028593
12
0.002229
22
-0.009346
32
0.028795
13
0.002773
23
-0.009297
33
0.028597
0
3DFACE
8
football_low_poly
10
0.001497
20
-0.009334
30
0.028677
11
0.001443
21
-0.009360
31
0.028902
12
0.002229
22
-0.009346
32
0.028795
13
0.002291
23
-0.009322
33
0.028593
0
3DFACE
8
football_low_poly
10
0.001344
20
0.014681
30
0.027956
11
0.001311
21
0.014015
31
0.028178
12
-0.000000
22
0.014021
32
0.028215
13
-0.000000
23
0.014688
33
0.027992
0
3DFACE
8
football_low_poly
10
-0.001344
20
0.014681
30
0.027956
11
-0.000000
21
0.014688
31
0.027992
12
-0.000000
22
0.014021
32
0.028215
13
-0.001311
23
0.014015
33
0.028178
0
3DFACE
8
football_low_poly
10
-0.001344
20
0.013335
30
0.028307
11
-0.002168
21
0.013316
31
0.028198
12
-0.002148
22
0.013996
32
0.028068
13
-0.001311
23
0.014015
33
0.028178
0
3DFACE
8
football_low_poly
10
-0.001344
20
0.014681
30
0.027956
11
-0.001311
21
0.014015
31
0.028178
12
-0.002148
22
0.013996
32
0.028068
13
-0.002168
23
0.014662
33
0.027847
0
3DFACE
8
football_low_poly
10
-0.002807
20
0.014607
30
0.027622
11
-0.002168
21
0.014662
31
0.027847
12
-0.002148
22
0.013996
32
0.028068
13
-0.002831
23
0.013957
33
0.027823
0
3DFACE
8
football_low_poly
10
-0.002807
20
0.013298
30
0.027964
11
-0.002831
21
0.013957
31
0.027823
12
-0.002148
22
0.013996
32
0.028068
13
-0.002168
23
0.013316
33
0.028198
0
3DFACE
8
football_low_poly
10
-0.001344
20
0.007789
30
0.029352
11
-0.001311
21
0.008476
31
0.029267
12
0.000000
22
0.008481
32
0.029304
13
0.000000
23
0.007793
33
0.029388
0
3DFACE
8
football_low_poly
10
0.001344
20
0.007789
30
0.029352
11
0.000000
21
0.007793
31
0.029388
12
0.000000
22
0.008481
32
0.029304
13
0.001311
23
0.008476
33
0.029267
0
3DFACE
8
football_low_poly
10
-0.001344
20
-0.020203
30
0.026261
11
0.000000
21
-0.020212
31
0.026296
12
0.000000
22
-0.020401
32
0.026071
13
-0.001443
23
-0.020392
33
0.026036
0
3DFACE
8
football_low_poly
10
0.001344
20
-0.020203
30
0.026261
11
0.001443
21
-0.020392
31
0.026036
12
0.000000
22
-0.020401
32
0.026071
13
0.000000
23
-0.020212
33
0.026296
0
3DFACE
8
football_low_poly
10
0.001497
20
-0.020340
30
0.025818
11
0.000000
21
-0.020358
31
0.025888
12
0.000000
22
-0.020401
32
0.026071
13
0.001443
23
-0.020392
33
0.026036
0
3DFACE
8
football_low_poly
10
-0.001497
20
-0.020340
30
0.025818
11
-0.001443
21
-0.020392
31
0.026036
12
0.000000
22
-0.020401
32
0.026071
13
0.000000
23
-0.020358
33
0.025888
0
3DFACE
8
football_low_poly
10
0.001344
20
-0.018878
30
0.026789
11
0.000000
21
-0.018887
31
0.026824
12
0.000000
22
-0.018634
32
0.026775
13
0.001443
23
-0.018625
33
0.026740
0
3DFACE
8
football_low_poly
10
-0.001344
20
-0.018878
30
0.026789
11
-0.001443
21
-0.018625
31
0.026740
12
0.000000
22
-0.018634
32
0.026775
13
0.000000
23
-0.018887
33
0.026824
0
3DFACE
8
football_low_poly
10
-0.001497
20
-0.018573
30
0.026522
11
0.000000
21
-0.018591
31
0.026592
12
0.000000
22
-0.018634
32
0.026775
13
-0.001443
23
-0.018625
33
0.026740
0
3DFACE
8
football_low_poly
10
0.001497
20
-0.018573
30
0.026522
11
0.001443
21
-0.018625
31
0.026740
12
0.000000
22
-0.018634
32
0.026775
13
0.000000
23
-0.018591
33
0.026592
0
3DFACE
8
football_low_poly
10
0.001344
20
0.009153
30
0.029088
11
0.001311
21
0.008476
31
0.029267
12
0.000000
22
0.008481
32
0.029304
13
0.000000
23
0.009157
33
0.029124
0
3DFACE
8
football_low_poly
10
-0.001344
20
0.009153
30
0.029088
11
0.000000
21
0.009157
31
0.029124
12
0.000000
22
0.008481
32
0.029304
13
-0.001311
23
0.008476
33
0.029267
0
3DFACE
8
football_low_poly
10
-0.002807
20
0.013298
30
0.027964
11
-0.003571
21
0.013292
31
0.027556
12
-0.003681
22
0.013890
32
0.027381
13
-0.002831
23
0.013957
33
0.027823
0
3DFACE
8
football_low_poly
10
-0.002807
20
0.014607
30
0.027622
11
-0.002831
21
0.013957
31
0.027823
12
-0.003681
22
0.013890
32
0.027381
13
-0.003571
23
0.014494
33
0.027243
0
3DFACE
8
football_low_poly
10
-0.001344
20
-0.018878
30
0.026789
11
-0.002168
21
-0.018850
31
0.026683
12
-0.002229
22
-0.018598
32
0.026637
13
-0.001443
23
-0.018625
33
0.026740
0
3DFACE
8
football_low_poly
10
-0.002807
20
-0.018814
30
0.026452
11
-0.002773
21
-0.018573
31
0.026432
12
-0.002229
22
-0.018598
32
0.026637
13
-0.002168
23
-0.018850
33
0.026683
0
3DFACE
8
football_low_poly
10
-0.002780
20
-0.018533
30
0.026253
11
-0.002291
21
-0.018550
31
0.026442
12
-0.002229
22
-0.018598
32
0.026637
13
-0.002773
23
-0.018573
33
0.026432
0
3DFACE
8
football_low_poly
10
-0.001497
20
-0.018573
30
0.026522
11
-0.001443
21
-0.018625
31
0.026740
12
-0.002229
22
-0.018598
32
0.026637
13
-0.002291
23
-0.018550
33
0.026442
0
3DFACE
8
football_low_poly
10
-0.004173
20
0.014382
30
0.026857
11
-0.003571
21
0.014494
31
0.027243
12
-0.003681
22
0.013890
32
0.027381
13
-0.004381
23
0.013822
33
0.026929
0
3DFACE
8
football_low_poly
10
-0.004173
20
0.013283
30
0.027143
11
-0.004381
21
0.013822
31
0.026929
12
-0.003681
22
0.013890
32
0.027381
13
-0.003571
23
0.013292
33
0.027556
0
3DFACE
8
football_low_poly
10
-0.001344
20
0.007789
30
0.029352
11
-0.002168
21
0.007775
31
0.029241
12
-0.002148
22
0.008462
32
0.029156
13
-0.001311
23
0.008476
33
0.029267
0
3DFACE
8
football_low_poly
10
-0.001344
20
0.009153
30
0.029088
11
-0.001311
21
0.008476
31
0.029267
12
-0.002148
22
0.008462
32
0.029156
13
-0.002168
23
0.009138
33
0.028977
0
3DFACE
8
football_low_poly
10
-0.002807
20
-0.020103
30
0.025938
11
-0.002168
21
-0.020175
31
0.026155
12
-0.002229
22
-0.020364
32
0.025933
13
-0.002773
23
-0.020294
33
0.025746
0
3DFACE
8
football_low_poly
10
-0.001344
20
-0.020203
30
0.026261
11
-0.001443
21
-0.020392
31
0.026036
12
-0.002229
22
-0.020364
32
0.025933
13
-0.002168
23
-0.020175
33
0.026155
0
3DFACE
8
football_low_poly
10
-0.001497
20
-0.020340
30
0.025818
11
-0.002291
21
-0.020317
31
0.025738
12
-0.002229
22
-0.020364
32
0.025933
13
-0.001443
23
-0.020392
33
0.026036
0
3DFACE
8
football_low_poly
10
-0.002780
20
-0.020249
30
0.025569
11
-0.002773
21
-0.020294
31
0.025746
12
-0.002229
22
-0.020364
32
0.025933
13
-0.002291
23
-0.020317
33
0.025738
0
3DFACE
8
football_low_poly
10
-0.002806
20
0.009090
30
0.028750
11
-0.002168
21
0.009138
31
0.028977
12
-0.002148
22
0.008462
32
0.029156
13
-0.002831
23
0.008431
33
0.028908
0
3DFACE
8
football_low_poly
10
-0.002806
20
0.007764
30
0.029007
11
-0.002831
21
0.008431
31
0.028908
12
-0.002148
22
0.008462
32
0.029156
13
-0.002168
23
0.007775
33
0.029241
0
3DFACE
8
football_low_poly
10
0.001344
20
-0.013334
30
0.028307
11
0.002168
21
-0.013315
31
0.028198
12
0.002148
22
-0.013996
32
0.028068
13
0.001311
23
-0.014015
33
0.028178
0
3DFACE
8
football_low_poly
10
0.001344
20
-0.014683
30
0.027956
11
0.001311
21
-0.014015
31
0.028178
12
0.002148
22
-0.013996
32
0.028068
13
0.002168
23
-0.014664
33
0.027847
0
3DFACE
8
football_low_poly
10
0.002807
20
-0.014608
30
0.027622
11
0.002168
21
-0.014664
31
0.027847
12
0.002148
22
-0.013996
32
0.028068
13
0.002831
23
-0.013957
33
0.027823
0
3DFACE
8
football_low_poly
10
0.002807
20
-0.013297
30
0.027964
11
0.002831
21
-0.013957
31
0.027823
12
0.002148
22
-0.013996
32
0.028068
13
0.002168
23
-0.013315
33
0.028198
0
3DFACE
8
football_low_poly
10
0.001344
20
0.002244
30
0.029947
11
0.000000
21
0.002247
31
0.029984
12
0.000000
22
0.002936
32
0.029943
13
0.001311
23
0.002933
33
0.029906
0
3DFACE
8
football_low_poly
10
0.001344
20
0.003615
30
0.029770
11
0.001311
21
0.002933
31
0.029906
12
0.000000
22
0.002936
32
0.029943
13
0.000000
23
0.003618
33
0.029807
0
3DFACE
8
football_low_poly
10
-0.001344
20
0.003615
30
0.029770
11
0.000000
21
0.003618
31
0.029807
12
0.000000
22
0.002936
32
0.029943
13
-0.001311
23
0.002933
33
0.029906
0
3DFACE
8
football_low_poly
10
-0.001344
20
0.002244
30
0.029947
11
-0.001311
21
0.002933
31
0.029906
12
0.000000
22
0.002936
32
0.029943
13
0.000000
23
0.002247
33
0.029984
0
3DFACE
8
football_low_poly
10
0.002806
20
0.007764
30
0.029007
11
0.002168
21
0.007775
31
0.029241
12
0.002148
22
0.008462
32
0.029156
13
0.002831
23
0.008431
33
0.028908
0
3DFACE
8
football_low_poly
10
-0.001284
20
-0.021122
30
0.024990
11
-0.001196
21
-0.021061
31
0.025305
12
0.000000
22
-0.021448
32
0.025160
13
0.000000
23
-0.021531
33
0.024840
0
3DFACE
8
football_low_poly
10
-0.000860
20
-0.020742
30
0.025588
11
0.000000
21
-0.021020
31
0.025539
12
0.000000
22
-0.021448
32
0.025160
13
-0.001196
23
-0.021061
33
0.025305
0
3DFACE
8
football_low_poly
10
0.000860
20
-0.020742
30
0.025588
11
0.001196
21
-0.021061
31
0.025305
12
0.000000
22
-0.021448
32
0.025160
13
0.000000
23
-0.021020
33
0.025539
0
3DFACE
8
football_low_poly
10
0.001284
20
-0.021122
30
0.024990
11
0.000000
21
-0.021531
31
0.024840
12
0.000000
22
-0.021448
32
0.025160
13
0.001196
23
-0.021061
33
0.025305
0
3DFACE
8
football_low_poly
10
-0.001137
20
-0.003961
30
0.029314
11
0.000000
21
-0.003967
31
0.029387
12
0.000000
22
-0.006767
32
0.029097
13
-0.001137
23
-0.006757
33
0.029024
0
3DFACE
8
football_low_poly
10
0.001137
20
-0.003961
30
0.029314
11
0.001137
21
-0.006757
31
0.029024
12
0.000000
22
-0.006767
32
0.029097
13
0.000000
23
-0.003967
33
0.029387
0
3DFACE
8
football_low_poly
10
0.001137
20
-0.009517
30
0.028621
11
0.000000
21
-0.009528
31
0.028693
12
0.000000
22
-0.006767
32
0.029097
13
0.001137
23
-0.006757
33
0.029024
0
3DFACE
8
football_low_poly
10
-0.001137
20
-0.009517
30
0.028621
11
-0.001137
21
-0.006757
31
0.029024
12
0.000000
22
-0.006767
32
0.029097
13
0.000000
23
-0.009528
33
0.028693
0
3DFACE
8
football_low_poly
10
0.001284
20
-0.021122
30
0.024990
11
0.001196
21
-0.021061
31
0.025305
12
0.001594
22
-0.019898
32
0.025737
13
0.001712
23
-0.019895
33
0.025438
0
3DFACE
8
football_low_poly
10
0.000860
20
-0.020742
30
0.025588
11
0.001137
21
-0.019900
31
0.025961
12
0.001594
22
-0.019898
32
0.025737
13
0.001196
23
-0.021061
33
0.025305
0
3DFACE
8
football_low_poly
10
0.001137
20
-0.018362
30
0.026509
11
0.001594
21
-0.018315
31
0.026295
12
0.001594
22
-0.019898
32
0.025737
13
0.001137
23
-0.019900
33
0.025961
0
3DFACE
8
football_low_poly
10
0.001712
20
-0.018252
30
0.026010
11
0.001712
21
-0.019895
31
0.025438
12
0.001594
22
-0.019898
32
0.025737
13
0.001594
23
-0.018315
33
0.026295
0
3DFACE
8
football_low_poly
10
-0.001712
20
-0.003919
30
0.028804
11
-0.001594
21
-0.003943
31
0.029096
12
-0.001594
22
-0.006729
32
0.028806
13
-0.001712
23
-0.006692
33
0.028516
0
3DFACE
8
football_low_poly
10
-0.001137
20
-0.003961
30
0.029314
11
-0.001137
21
-0.006757
31
0.029024
12
-0.001594
22
-0.006729
32
0.028806
13
-0.001594
23
-0.003943
33
0.029096
0
3DFACE
8
football_low_poly
10
-0.001137
20
-0.009517
30
0.028621
11
-0.001594
21
-0.009483
31
0.028404
12
-0.001594
22
-0.006729
32
0.028806
13
-0.001137
23
-0.006757
33
0.029024
0
3DFACE
8
football_low_poly
10
-0.001712
20
-0.009439
30
0.028114
11
-0.001712
21
-0.006692
31
0.028516
12
-0.001594
22
-0.006729
32
0.028806
13
-0.001594
23
-0.009483
33
0.028404
0
3DFACE
8
football_low_poly
10
-0.000860
20
0.020742
30
0.025588
11
0.000000
21
0.021020
31
0.025539
12
0.000000
22
0.019900
32
0.026036
13
-0.001137
23
0.019900
33
0.025961
0
3DFACE
8
football_low_poly
10
0.000860
20
0.020742
30
0.025588
11
0.001137
21
0.019900
31
0.025961
12
0.000000
22
0.019900
32
0.026036
13
0.000000
23
0.021020
33
0.025539
0
3DFACE
8
football_low_poly
10
0.001137
20
0.018093
30
0.026567
11
0.000000
21
0.018108
31
0.026638
12
0.000000
22
0.019900
32
0.026036
13
0.001137
23
0.019900
33
0.025961
0
3DFACE
8
football_low_poly
10
-0.001137
20
0.018093
30
0.026567
11
-0.001137
21
0.019900
31
0.025961
12
0.000000
22
0.019900
32
0.026036
13
0.000000
23
0.018108
33
0.026638
0
3DFACE
8
football_low_poly
10
-0.001137
20
-0.009517
30
0.028621
11
0.000000
21
-0.009528
31
0.028693
12
0.000000
22
-0.012287
32
0.028177
13
-0.001137
23
-0.012274
33
0.028105
0
3DFACE
8
football_low_poly
10
0.001137
20
-0.009517
30
0.028621
11
0.001137
21
-0.012274
31
0.028105
12
0.000000
22
-0.012287
32
0.028177
13
0.000000
23
-0.009528
33
0.028693
0
3DFACE
8
football_low_poly
10
0.001137
20
-0.014765
30
0.027550
11
0.000000
21
-0.014780
31
0.027622
12
0.000000
22
-0.012287
32
0.028177
13
0.001137
23
-0.012274
33
0.028105
0
3DFACE
8
football_low_poly
10
-0.001137
20
-0.014765
30
0.027550
11
-0.001137
21
-0.012274
31
0.028105
12
0.000000
22
-0.012287
32
0.028177
13
0.000000
23
-0.014780
33
0.027622
0
3DFACE
8
football_low_poly
10
-0.001712
20
-0.009439
30
0.028114
11
-0.001594
21
-0.009483
31
0.028404
12
-0.001594
22
-0.012235
32
0.027889
13
-0.001712
23
-0.012184
33
0.027601
0
3DFACE
8
football_low_poly
10
-0.001137
20
-0.009517
30
0.028621
11
-0.001137
21
-0.012274
31
0.028105
12
-0.001594
22
-0.012235
32
0.027889
13
-0.001594
23
-0.009483
33
0.028404
0
3DFACE
8
football_low_poly
10
-0.001137
20
-0.014765
30
0.027550
11
-0.001594
21
-0.014719
31
0.027336
12
-0.001594
22
-0.012235
32
0.027889
13
-0.001137
23
-0.012274
33
0.028105
0
3DFACE
8
football_low_poly
10
-0.001712
20
-0.014658
30
0.027050
11
-0.001712
21
-0.012184
31
0.027601
12
-0.001594
22
-0.012235
32
0.027889
13
-0.001594
23
-0.014719
33
0.027336
0
3DFACE
8
football_low_poly
10
-0.001137
20
0.012879
30
0.027945
11
0.000000
21
0.012894
31
0.028017
12
0.000000
22
0.010125
32
0.028587
13
-0.001137
23
0.010112
33
0.028515
0
3DFACE
8
football_low_poly
10
0.001137
20
0.012879
30
0.027945
11
0.001137
21
0.010112
31
0.028515
12
0.000000
22
0.010125
32
0.028587
13
0.000000
23
0.012894
33
0.028017
0
3DFACE
8
football_low_poly
10
0.001137
20
0.007345
30
0.028973
11
0.000000
21
0.007356
31
0.029045
12
0.000000
22
0.010125
32
0.028587
13
0.001137
23
0.010112
33
0.028515
0
3DFACE
8
football_low_poly
10
-0.001137
20
0.007345
30
0.028973
11
-0.001137
21
0.010112
31
0.028515
12
0.000000
22
0.010125
32
0.028587
13
0.000000
23
0.007356
33
0.029045
0
3DFACE
8
football_low_poly
10
0.001712
20
0.001733
30
0.028996
11
0.001594
21
0.001757
31
0.029287
12
0.001594
22
0.004549
32
0.029100
13
0.001712
23
0.004512
33
0.028809
0
3DFACE
8
football_low_poly
10
0.001137
20
0.001776
30
0.029505
11
0.001137
21
0.004577
31
0.029318
12
0.001594
22
0.004549
32
0.029100
13
0.001594
23
0.001757
33
0.029287
0
3DFACE
8
football_low_poly
10
0.001137
20
0.007345
30
0.028973
11
0.001594
21
0.007311
31
0.028756
12
0.001594
22
0.004549
32
0.029100
13
0.001137
23
0.004577
33
0.029318
0
3DFACE
8
football_low_poly
10
0.001712
20
0.007267
30
0.028466
11
0.001712
21
0.004512
31
0.028809
12
0.001594
22
0.004549
32
0.029100
13
0.001594
23
0.007311
33
0.028756
0
3DFACE
8
football_low_poly
10
-0.001712
20
0.012773
30
0.027445
11
-0.001594
21
0.012834
31
0.027731
12
-0.001594
22
0.010073
32
0.028299
13
-0.001712
23
0.010021
33
0.028011
0
3DFACE
8
football_low_poly
10
-0.001137
20
0.012879
30
0.027945
11
-0.001137
21
0.010112
31
0.028515
12
-0.001594
22
0.010073
32
0.028299
13
-0.001594
23
0.012834
33
0.027731
0
3DFACE
8
football_low_poly
10
-0.001137
20
0.007345
30
0.028973
11
-0.001594
21
0.007311
31
0.028756
12
-0.001594
22
0.010073
32
0.028299
13
-0.001137
23
0.010112
33
0.028515
0
3DFACE
8
football_low_poly
10
-0.001712
20
0.007267
30
0.028466
11
-0.001712
21
0.010021
31
0.028011
12
-0.001594
22
0.010073
32
0.028299
13
-0.001594
23
0.007311
33
0.028756
0
3DFACE
8
football_low_poly
10
0.001712
20
0.012773
30
0.027445
11
0.001594
21
0.012834
31
0.027731
12
0.001594
22
0.015591
32
0.027050
13
0.001712
23
0.015518
33
0.026768
0
3DFACE
8
football_low_poly
10
0.001137
20
0.012879
30
0.027945
11
0.001137
21
0.015646
31
0.027262
12
0.001594
22
0.015591
32
0.027050
13
0.001594
23
0.012834
33
0.027731
0
3DFACE
8
football_low_poly
10
0.001137
20
0.018093
30
0.026567
11
0.001594
21
0.018046
31
0.026353
12
0.001594
22
0.015591
32
0.027050
13
0.001137
23
0.015646
33
0.027262
0
3DFACE
8
football_low_poly
10
0.001712
20
0.017984
30
0.026069
11
0.001712
21
0.015518
31
0.026768
12
0.001594
22
0.015591
32
0.027050
13
0.001594
23
0.018046
33
0.026353
0
3DFACE
8
football_low_poly
10
0.001712
20
-0.018252
30
0.026010
11
0.001594
21
-0.018315
31
0.026295
12
0.001594
22
-0.016667
32
0.026816
13
0.001712
23
-0.016594
33
0.026533
0
3DFACE
8
football_low_poly
10
0.001137
20
-0.018362
30
0.026509
11
0.001137
21
-0.016722
31
0.027028
12
0.001594
22
-0.016667
32
0.026816
13
0.001594
23
-0.018315
33
0.026295
0
3DFACE
8
football_low_poly
10
0.001137
20
-0.014765
30
0.027550
11
0.001594
21
-0.014719
31
0.027336
12
0.001594
22
-0.016667
32
0.026816
13
0.001137
23
-0.016722
33
0.027028
0
3DFACE
8
football_low_poly
10
0.001712
20
-0.014658
30
0.027050
11
0.001712
21
-0.016594
31
0.026533
12
0.001594
22
-0.016667
32
0.026816
13
0.001594
23
-0.014719
33
0.027336
0
3DFACE
8
football_low_poly
10
0.001712
20
0.007267
30
0.028466
11
0.001594
21
0.007311
31
0.028756
12
0.001594
22
0.010073
32
0.028299
13
0.001712
23
0.010021
33
0.028011
0
3DFACE
8
football_low_poly
10
0.001137
20
0.007345
30
0.028973
11
0.001137
21
0.010112
31
0.028515
12
0.001594
22
0.010073
32
0.028299
13
0.001594
23
0.007311
33
0.028756
0
3DFACE
8
football_low_poly
10
0.001137
20
0.012879
30
0.027945
11
0.001594
21
0.012834
31
0.027731
12
0.001594
22
0.010073
32
0.028299
13
0.001137
23
0.010112
33
0.028515
0
3DFACE
8
football_low_poly
10
0.001712
20
0.012773
30
0.027445
11
0.001712
21
0.010021
31
0.028011
12
0.001594
22
0.010073
32
0.028299
13
0.001594
23
0.012834
33
0.027731
0
3DFACE
8
football_low_poly
10
0.001712
20
0.017984
30
0.026069
11
0.001594
21
0.018046
31
0.026353
12
0.001594
22
0.019898
32
0.025737
13
0.001712
23
0.019896
33
0.025438
0
3DFACE
8
football_low_poly
10
0.001137
20
0.018093
30
0.026567
11
0.001137
21
0.019900
31
0.025961
12
0.001594
22
0.019898
32
0.025737
13
0.001594
23
0.018046
33
0.026353
0
3DFACE
8
football_low_poly
10
0.000860
20
0.020742
30
0.025588
11
0.001196
21
0.021061
31
0.025305
12
0.001594
22
0.019898
32
0.025737
13
0.001137
23
0.019900
33
0.025961
0
3DFACE
8
football_low_poly
10
0.001284
20
0.021122
30
0.024990
11
0.001712
21
0.019896
31
0.025438
12
0.001594
22
0.019898
32
0.025737
13
0.001196
23
0.021061
33
0.025305
0
3DFACE
8
football_low_poly
10
-0.001712
20
-0.018252
30
0.026010
11
-0.001594
21
-0.018315
31
0.026295
12
-0.001594
22
-0.019898
32
0.025737
13
-0.001712
23
-0.019895
33
0.025438
0
3DFACE
8
football_low_poly
10
-0.001137
20
-0.018362
30
0.026509
11
-0.001137
21
-0.019900
31
0.025961
12
-0.001594
22
-0.019898
32
0.025737
13
-0.001594
23
-0.018315
33
0.026295
0
3DFACE
8
football_low_poly
10
-0.000860
20
-0.020742
30
0.025588
11
-0.001196
21
-0.021061
31
0.025305
12
-0.001594
22
-0.019898
32
0.025737
13
-0.001137
23
-0.019900
33
0.025961
0
3DFACE
8
football_low_poly
10
-0.001284
20
-0.021122
30
0.024990
11
-0.001712
21
-0.019895
31
0.025438
12
-0.001594
22
-0.019898
32
0.025737
13
-0.001196
23
-0.021061
33
0.025305
0
3DFACE
8
football_low_poly
10
-0.001137
20
-0.014765
30
0.027550
11
0.000000
21
-0.014780
31
0.027622
12
0.000000
22
-0.016740
32
0.027099
13
-0.001137
23
-0.016722
33
0.027028
0
3DFACE
8
football_low_poly
10
0.001137
20
-0.014765
30
0.027550
11
0.001137
21
-0.016722
31
0.027028
12
0.000000
22
-0.016740
32
0.027099
13
0.000000
23
-0.014780
33
0.027622
0
3DFACE
8
football_low_poly
10
0.001137
20
-0.018362
30
0.026509
11
0.000000
21
-0.018377
31
0.026580
12
0.000000
22
-0.016740
32
0.027099
13
0.001137
23
-0.016722
33
0.027028
0
3DFACE
8
football_low_poly
10
-0.001137
20
-0.018362
30
0.026509
11
-0.001137
21
-0.016722
31
0.027028
12
0.000000
22
-0.016740
32
0.027099
13
0.000000
23
-0.018377
33
0.026580
0
3DFACE
8
football_low_poly
10
0.001137
20
-0.003961
30
0.029314
11
0.000000
21
-0.003967
31
0.029387
12
0.000000
22
-0.001094
32
0.029562
13
0.001137
23
-0.001094
33
0.029489
0
3DFACE
8
football_low_poly
10
-0.001137
20
-0.003961
30
0.029314
11
-0.001137
21
-0.001094
31
0.029489
12
0.000000
22
-0.001094
32
0.029562
13
0.000000
23
-0.003967
33
0.029387
0
3DFACE
8
football_low_poly
10
-0.001137
20
0.001776
30
0.029505
11
0.000000
21
0.001782
31
0.029578
12
0.000000
22
-0.001094
32
0.029562
13
-0.001137
23
-0.001094
33
0.029489
0
3DFACE
8
football_low_poly
10
0.001137
20
0.001776
30
0.029505
11
0.001137
21
-0.001094
31
0.029489
12
0.000000
22
-0.001094
32
0.029562
13
0.000000
23
0.001782
33
0.029578
0
3DFACE
8
football_low_poly
10
0.001284
20
0.021122
30
0.024990
11
0.001196
21
0.021061
31
0.025305
12
-0.000000
22
0.021448
32
0.025160
13
0.000000
23
0.021531
33
0.024840
0
3DFACE
8
football_low_poly
10
0.000860
20
0.020742
30
0.025588
11
0.000000
21
0.021020
31
0.025539
12
-0.000000
22
0.021448
32
0.025160
13
0.001196
23
0.021061
33
0.025305
0
3DFACE
8
football_low_poly
10
-0.000860
20
0.020742
30
0.025588
11
-0.001196
21
0.021061
31
0.025305
12
-0.000000
22
0.021448
32
0.025160
13
0.000000
23
0.021020
33
0.025539
0
3DFACE
8
football_low_poly
10
-0.001284
20
0.021122
30
0.024990
11
0.000000
21
0.021531
31
0.024840
12
-0.000000
22
0.021448
32
0.025160
13
-0.001196
23
0.021061
33
0.025305
0
3DFACE
8
football_low_poly
10
-0.001712
20
0.001733
30
0.028996
11
-0.001594
21
0.001757
31
0.029287
12
-0.001594
22
-0.001094
32
0.029271
13
-0.001712
23
-0.001094
33
0.028979
0
3DFACE
8
football_low_poly
10
-0.001137
20
0.001776
30
0.029505
11
-0.001137
21
-0.001094
31
0.029489
12
-0.001594
22
-0.001094
32
0.029271
13
-0.001594
23
0.001757
33
0.029287
0
3DFACE
8
football_low_poly
10
-0.001137
20
-0.003961
30
0.029314
11
-0.001594
21
-0.003943
31
0.029096
12
-0.001594
22
-0.001094
32
0.029271
13
-0.001137
23
-0.001094
33
0.029489
0
3DFACE
8
football_low_poly
10
-0.001712
20
-0.003919
30
0.028804
11
-0.001712
21
-0.001094
31
0.028979
12
-0.001594
22
-0.001094
32
0.029271
13
-0.001594
23
-0.003943
33
0.029096
0
3DFACE
8
football_low_poly
10
0.001712
20
-0.003919
30
0.028804
11
0.001594
21
-0.003943
31
0.029096
12
0.001594
22
-0.001094
32
0.029271
13
0.001712
23
-0.001094
33
0.028979
0
3DFACE
8
football_low_poly
10
0.001137
20
-0.003961
30
0.029314
11
0.001137
21
-0.001094
31
0.029489
12
0.001594
22
-0.001094
32
0.029271
13
0.001594
23
-0.003943
33
0.029096
0
3DFACE
8
football_low_poly
10
0.001137
20
0.001776
30
0.029505
11
0.001594
21
0.001757
31
0.029287
12
0.001594
22
-0.001094
32
0.029271
13
0.001137
23
-0.001094
33
0.029489
0
3DFACE
8
football_low_poly
10
0.001712
20
0.001733
30
0.028996
11
0.001712
21
-0.001094
31
0.028979
12
0.001594
22
-0.001094
32
0.029271
13
0.001594
23
0.001757
33
0.029287
0
3DFACE
8
football_low_poly
10
-0.001137
20
0.018093
30
0.026567
11
0.000000
21
0.018108
31
0.026638
12
0.000000
22
0.015664
32
0.027333
13
-0.001137
23
0.015646
33
0.027262
0
3DFACE
8
football_low_poly
10
0.001137
20
0.018093
30
0.026567
11
0.001137
21
0.015646
31
0.027262
12
0.000000
22
0.015664
32
0.027333
13
0.000000
23
0.018108
33
0.026638
0
3DFACE
8
football_low_poly
10
0.001137
20
0.012879
30
0.027945
11
0.000000
21
0.012894
31
0.028017
12
0.000000
22
0.015664
32
0.027333
13
0.001137
23
0.015646
33
0.027262
0
3DFACE
8
football_low_poly
10
-0.001137
20
0.012879
30
0.027945
11
-0.001137
21
0.015646
31
0.027262
12
0.000000
22
0.015664
32
0.027333
13
0.000000
23
0.012894
33
0.028017
0
3DFACE
8
football_low_poly
10
-0.001712
20
0.017984
30
0.026069
11
-0.001594
21
0.018046
31
0.026353
12
-0.001594
22
0.015591
32
0.027050
13
-0.001712
23
0.015518
33
0.026768
0
3DFACE
8
football_low_poly
10
-0.001137
20
0.018093
30
0.026567
11
-0.001137
21
0.015646
31
0.027262
12
-0.001594
22
0.015591
32
0.027050
13
-0.001594
23
0.018046
33
0.026353
0
3DFACE
8
football_low_poly
10
-0.001137
20
0.012879
30
0.027945
11
-0.001594
21
0.012834
31
0.027731
12
-0.001594
22
0.015591
32
0.027050
13
-0.001137
23
0.015646
33
0.027262
0
3DFACE
8
football_low_poly
10
-0.001712
20
0.012773
30
0.027445
11
-0.001712
21
0.015518
31
0.026768
12
-0.001594
22
0.015591
32
0.027050
13
-0.001594
23
0.012834
33
0.027731
0
3DFACE
8
football_low_poly
10
0.001712
20
-0.014658
30
0.027050
11
0.001594
21
-0.014719
31
0.027336
12
0.001594
22
-0.012235
32
0.027889
13
0.001712
23
-0.012184
33
0.027601
0
3DFACE
8
football_low_poly
10
0.001137
20
-0.014765
30
0.027550
11
0.001137
21
-0.012274
31
0.028105
12
0.001594
22
-0.012235
32
0.027889
13
0.001594
23
-0.014719
33
0.027336
0
3DFACE
8
football_low_poly
10
0.001137
20
-0.009517
30
0.028621
11
0.001594
21
-0.009483
31
0.028404
12
0.001594
22
-0.012235
32
0.027889
13
0.001137
23
-0.012274
33
0.028105
0
3DFACE
8
football_low_poly
10
0.001712
20
-0.009439
30
0.028114
11
0.001712
21
-0.012184
31
0.027601
12
0.001594
22
-0.012235
32
0.027889
13
0.001594
23
-0.009483
33
0.028404
0
3DFACE
8
football_low_poly
10
-0.001137
20
0.007345
30
0.028973
11
0.000000
21
0.007356
31
0.029045
12
0.000000
22
0.004586
32
0.029390
13
-0.001137
23
0.004577
33
0.029318
0
3DFACE
8
football_low_poly
10
0.001137
20
0.007345
30
0.028973
11
0.001137
21
0.004577
31
0.029318
12
0.000000
22
0.004586
32
0.029390
13
0.000000
23
0.007356
33
0.029045
0
3DFACE
8
football_low_poly
10
0.001137
20
0.001776
30
0.029505
11
0.000000
21
0.001782
31
0.029578
12
0.000000
22
0.004586
32
0.029390
13
0.001137
23
0.004577
33
0.029318
0
3DFACE
8
football_low_poly
10
-0.001137
20
0.001776
30
0.029505
11
-0.001137
21
0.004577
31
0.029318
12
0.000000
22
0.004586
32
0.029390
13
0.000000
23
0.001782
33
0.029578
0
3DFACE
8
football_low_poly
10
-0.001712
20
0.007267
30
0.028466
11
-0.001594
21
0.007311
31
0.028756
12
-0.001594
22
0.004549
32
0.029100
13
-0.001712
23
0.004512
33
0.028809
0
3DFACE
8
football_low_poly
10
-0.001137
20
0.007345
30
0.028973
11
-0.001137
21
0.004577
31
0.029318
12
-0.001594
22
0.004549
32
0.029100
13
-0.001594
23
0.007311
33
0.028756
0
3DFACE
8
football_low_poly
10
-0.001137
20
0.001776
30
0.029505
11
-0.001594
21
0.001757
31
0.029287
12
-0.001594
22
0.004549
32
0.029100
13
-0.001137
23
0.004577
33
0.029318
0
3DFACE
8
football_low_poly
10
-0.001712
20
0.001733
30
0.028996
11
-0.001712
21
0.004512
31
0.028809
12
-0.001594
22
0.004549
32
0.029100
13
-0.001594
23
0.001757
33
0.029287
0
3DFACE
8
football_low_poly
10
-0.001137
20
-0.018362
30
0.026509
11
0.000000
21
-0.018377
31
0.026580
12
0.000000
22
-0.019900
32
0.026036
13
-0.001137
23
-0.019900
33
0.025961
0
3DFACE
8
football_low_poly
10
0.001137
20
-0.018362
30
0.026509
11
0.001137
21
-0.019900
31
0.025961
12
0.000000
22
-0.019900
32
0.026036
13
0.000000
23
-0.018377
33
0.026580
0
3DFACE
8
football_low_poly
10
0.000860
20
-0.020742
30
0.025588
11
0.000000
21
-0.021020
31
0.025539
12
0.000000
22
-0.019900
32
0.026036
13
0.001137
23
-0.019900
33
0.025961
0
3DFACE
8
football_low_poly
10
-0.000860
20
-0.020742
30
0.025588
11
-0.001137
21
-0.019900
31
0.025961
12
0.000000
22
-0.019900
32
0.026036
13
0.000000
23
-0.021020
33
0.025539
0
3DFACE
8
football_low_poly
10
-0.001712
20
-0.014658
30
0.027050
11
-0.001594
21
-0.014719
31
0.027336
12
-0.001594
22
-0.016667
32
0.026816
13
-0.001712
23
-0.016594
33
0.026533
0
3DFACE
8
football_low_poly
10
-0.001137
20
-0.014765
30
0.027550
11
-0.001137
21
-0.016722
31
0.027028
12
-0.001594
22
-0.016667
32
0.026816
13
-0.001594
23
-0.014719
33
0.027336
0
3DFACE
8
football_low_poly
10
-0.001137
20
-0.018362
30
0.026509
11
-0.001594
21
-0.018315
31
0.026295
12
-0.001594
22
-0.016667
32
0.026816
13
-0.001137
23
-0.016722
33
0.027028
0
3DFACE
8
football_low_poly
10
-0.001712
20
-0.018252
30
0.026010
11
-0.001712
21
-0.016594
31
0.026533
12
-0.001594
22
-0.016667
32
0.026816
13
-0.001594
23
-0.018315
33
0.026295
0
3DFACE
8
football_low_poly
10
0.001712
20
-0.009439
30
0.028114
11
0.001594
21
-0.009483
31
0.028404
12
0.001594
22
-0.006729
32
0.028806
13
0.001712
23
-0.006692
33
0.028516
0
3DFACE
8
football_low_poly
10
0.001137
20
-0.009517
30
0.028621
11
0.001137
21
-0.006757
31
0.029024
12
0.001594
22
-0.006729
32
0.028806
13
0.001594
23
-0.009483
33
0.028404
0
3DFACE
8
football_low_poly
10
0.001137
20
-0.003961
30
0.029314
11
0.001594
21
-0.003943
31
0.029096
12
0.001594
22
-0.006729
32
0.028806
13
0.001137
23
-0.006757
33
0.029024
0
3DFACE
8
football_low_poly
10
0.001712
20
-0.003919
30
0.028804
11
0.001712
21
-0.006692
31
0.028516
12
0.001594
22
-0.006729
32
0.028806
13
0.001594
23
-0.003943
33
0.029096
0
3DFACE
8
football_low_poly
10
-0.001284
20
0.021122
30
0.024990
11
-0.001196
21
0.021061
31
0.025305
12
-0.001594
22
0.019898
32
0.025737
13
-0.001712
23
0.019896
33
0.025438
0
3DFACE
8
football_low_poly
10
-0.000860
20
0.020742
30
0.025588
11
-0.001137
21
0.019900
31
0.025961
12
-0.001594
22
0.019898
32
0.025737
13
-0.001196
23
0.021061
33
0.025305
0
3DFACE
8
football_low_poly
10
-0.001137
20
0.018093
30
0.026567
11
-0.001594
21
0.018046
31
0.026353
12
-0.001594
22
0.019898
32
0.025737
13
-0.001137
23
0.019900
33
0.025961
0
3DFACE
8
football_low_poly
10
-0.001712
20
0.017984
30
0.026069
11
-0.001712
21
0.019896
31
0.025438
12
-0.001594
22
0.019898
32
0.025737
13
-0.001594
23
0.018046
33
0.026353
0
ENDSEC
0
EOF
